%TF.GenerationSoftware,KiCad,Pcbnew,8.0.2*%
%TF.CreationDate,2024-06-02T13:55:41-07:00*%
%TF.ProjectId,RLS_PCBA,524c535f-5043-4424-912e-6b696361645f,rev?*%
%TF.SameCoordinates,Original*%
%TF.FileFunction,Legend,Top*%
%TF.FilePolarity,Positive*%
%FSLAX46Y46*%
G04 Gerber Fmt 4.6, Leading zero omitted, Abs format (unit mm)*
G04 Created by KiCad (PCBNEW 8.0.2) date 2024-06-02 13:55:41*
%MOMM*%
%LPD*%
G01*
G04 APERTURE LIST*
%ADD10C,0.100000*%
%ADD11C,0.050000*%
%ADD12C,0.508000*%
G04 APERTURE END LIST*
D10*
X161380561Y-145847019D02*
X161047228Y-145370828D01*
X160809133Y-145847019D02*
X160809133Y-144847019D01*
X160809133Y-144847019D02*
X161190085Y-144847019D01*
X161190085Y-144847019D02*
X161285323Y-144894638D01*
X161285323Y-144894638D02*
X161332942Y-144942257D01*
X161332942Y-144942257D02*
X161380561Y-145037495D01*
X161380561Y-145037495D02*
X161380561Y-145180352D01*
X161380561Y-145180352D02*
X161332942Y-145275590D01*
X161332942Y-145275590D02*
X161285323Y-145323209D01*
X161285323Y-145323209D02*
X161190085Y-145370828D01*
X161190085Y-145370828D02*
X160809133Y-145370828D01*
X161666276Y-144847019D02*
X161999609Y-145847019D01*
X161999609Y-145847019D02*
X162332942Y-144847019D01*
X163142466Y-144847019D02*
X162666276Y-144847019D01*
X162666276Y-144847019D02*
X162618657Y-145323209D01*
X162618657Y-145323209D02*
X162666276Y-145275590D01*
X162666276Y-145275590D02*
X162761514Y-145227971D01*
X162761514Y-145227971D02*
X162999609Y-145227971D01*
X162999609Y-145227971D02*
X163094847Y-145275590D01*
X163094847Y-145275590D02*
X163142466Y-145323209D01*
X163142466Y-145323209D02*
X163190085Y-145418447D01*
X163190085Y-145418447D02*
X163190085Y-145656542D01*
X163190085Y-145656542D02*
X163142466Y-145751780D01*
X163142466Y-145751780D02*
X163094847Y-145799400D01*
X163094847Y-145799400D02*
X162999609Y-145847019D01*
X162999609Y-145847019D02*
X162761514Y-145847019D01*
X162761514Y-145847019D02*
X162666276Y-145799400D01*
X162666276Y-145799400D02*
X162618657Y-145751780D01*
X129376561Y-145847019D02*
X129043228Y-145370828D01*
X128805133Y-145847019D02*
X128805133Y-144847019D01*
X128805133Y-144847019D02*
X129186085Y-144847019D01*
X129186085Y-144847019D02*
X129281323Y-144894638D01*
X129281323Y-144894638D02*
X129328942Y-144942257D01*
X129328942Y-144942257D02*
X129376561Y-145037495D01*
X129376561Y-145037495D02*
X129376561Y-145180352D01*
X129376561Y-145180352D02*
X129328942Y-145275590D01*
X129328942Y-145275590D02*
X129281323Y-145323209D01*
X129281323Y-145323209D02*
X129186085Y-145370828D01*
X129186085Y-145370828D02*
X128805133Y-145370828D01*
X129662276Y-144847019D02*
X129995609Y-145847019D01*
X129995609Y-145847019D02*
X130328942Y-144847019D01*
X130567038Y-144847019D02*
X131186085Y-144847019D01*
X131186085Y-144847019D02*
X130852752Y-145227971D01*
X130852752Y-145227971D02*
X130995609Y-145227971D01*
X130995609Y-145227971D02*
X131090847Y-145275590D01*
X131090847Y-145275590D02*
X131138466Y-145323209D01*
X131138466Y-145323209D02*
X131186085Y-145418447D01*
X131186085Y-145418447D02*
X131186085Y-145656542D01*
X131186085Y-145656542D02*
X131138466Y-145751780D01*
X131138466Y-145751780D02*
X131090847Y-145799400D01*
X131090847Y-145799400D02*
X130995609Y-145847019D01*
X130995609Y-145847019D02*
X130709895Y-145847019D01*
X130709895Y-145847019D02*
X130614657Y-145799400D01*
X130614657Y-145799400D02*
X130567038Y-145751780D01*
X156300561Y-145847019D02*
X155967228Y-145370828D01*
X155729133Y-145847019D02*
X155729133Y-144847019D01*
X155729133Y-144847019D02*
X156110085Y-144847019D01*
X156110085Y-144847019D02*
X156205323Y-144894638D01*
X156205323Y-144894638D02*
X156252942Y-144942257D01*
X156252942Y-144942257D02*
X156300561Y-145037495D01*
X156300561Y-145037495D02*
X156300561Y-145180352D01*
X156300561Y-145180352D02*
X156252942Y-145275590D01*
X156252942Y-145275590D02*
X156205323Y-145323209D01*
X156205323Y-145323209D02*
X156110085Y-145370828D01*
X156110085Y-145370828D02*
X155729133Y-145370828D01*
X156586276Y-144847019D02*
X156919609Y-145847019D01*
X156919609Y-145847019D02*
X157252942Y-144847019D01*
X158014847Y-145180352D02*
X158014847Y-145847019D01*
X157776752Y-144799400D02*
X157538657Y-145513685D01*
X157538657Y-145513685D02*
X158157704Y-145513685D01*
X109818561Y-145593019D02*
X109485228Y-145116828D01*
X109247133Y-145593019D02*
X109247133Y-144593019D01*
X109247133Y-144593019D02*
X109628085Y-144593019D01*
X109628085Y-144593019D02*
X109723323Y-144640638D01*
X109723323Y-144640638D02*
X109770942Y-144688257D01*
X109770942Y-144688257D02*
X109818561Y-144783495D01*
X109818561Y-144783495D02*
X109818561Y-144926352D01*
X109818561Y-144926352D02*
X109770942Y-145021590D01*
X109770942Y-145021590D02*
X109723323Y-145069209D01*
X109723323Y-145069209D02*
X109628085Y-145116828D01*
X109628085Y-145116828D02*
X109247133Y-145116828D01*
X110104276Y-144593019D02*
X110437609Y-145593019D01*
X110437609Y-145593019D02*
X110770942Y-144593019D01*
X111628085Y-145593019D02*
X111056657Y-145593019D01*
X111342371Y-145593019D02*
X111342371Y-144593019D01*
X111342371Y-144593019D02*
X111247133Y-144735876D01*
X111247133Y-144735876D02*
X111151895Y-144831114D01*
X111151895Y-144831114D02*
X111056657Y-144878733D01*
X175858561Y-145847019D02*
X175525228Y-145370828D01*
X175287133Y-145847019D02*
X175287133Y-144847019D01*
X175287133Y-144847019D02*
X175668085Y-144847019D01*
X175668085Y-144847019D02*
X175763323Y-144894638D01*
X175763323Y-144894638D02*
X175810942Y-144942257D01*
X175810942Y-144942257D02*
X175858561Y-145037495D01*
X175858561Y-145037495D02*
X175858561Y-145180352D01*
X175858561Y-145180352D02*
X175810942Y-145275590D01*
X175810942Y-145275590D02*
X175763323Y-145323209D01*
X175763323Y-145323209D02*
X175668085Y-145370828D01*
X175668085Y-145370828D02*
X175287133Y-145370828D01*
X176144276Y-144847019D02*
X176477609Y-145847019D01*
X176477609Y-145847019D02*
X176810942Y-144847019D01*
X177572847Y-144847019D02*
X177382371Y-144847019D01*
X177382371Y-144847019D02*
X177287133Y-144894638D01*
X177287133Y-144894638D02*
X177239514Y-144942257D01*
X177239514Y-144942257D02*
X177144276Y-145085114D01*
X177144276Y-145085114D02*
X177096657Y-145275590D01*
X177096657Y-145275590D02*
X177096657Y-145656542D01*
X177096657Y-145656542D02*
X177144276Y-145751780D01*
X177144276Y-145751780D02*
X177191895Y-145799400D01*
X177191895Y-145799400D02*
X177287133Y-145847019D01*
X177287133Y-145847019D02*
X177477609Y-145847019D01*
X177477609Y-145847019D02*
X177572847Y-145799400D01*
X177572847Y-145799400D02*
X177620466Y-145751780D01*
X177620466Y-145751780D02*
X177668085Y-145656542D01*
X177668085Y-145656542D02*
X177668085Y-145418447D01*
X177668085Y-145418447D02*
X177620466Y-145323209D01*
X177620466Y-145323209D02*
X177572847Y-145275590D01*
X177572847Y-145275590D02*
X177477609Y-145227971D01*
X177477609Y-145227971D02*
X177287133Y-145227971D01*
X177287133Y-145227971D02*
X177191895Y-145275590D01*
X177191895Y-145275590D02*
X177144276Y-145323209D01*
X177144276Y-145323209D02*
X177096657Y-145418447D01*
X124550561Y-145847019D02*
X124217228Y-145370828D01*
X123979133Y-145847019D02*
X123979133Y-144847019D01*
X123979133Y-144847019D02*
X124360085Y-144847019D01*
X124360085Y-144847019D02*
X124455323Y-144894638D01*
X124455323Y-144894638D02*
X124502942Y-144942257D01*
X124502942Y-144942257D02*
X124550561Y-145037495D01*
X124550561Y-145037495D02*
X124550561Y-145180352D01*
X124550561Y-145180352D02*
X124502942Y-145275590D01*
X124502942Y-145275590D02*
X124455323Y-145323209D01*
X124455323Y-145323209D02*
X124360085Y-145370828D01*
X124360085Y-145370828D02*
X123979133Y-145370828D01*
X124836276Y-144847019D02*
X125169609Y-145847019D01*
X125169609Y-145847019D02*
X125502942Y-144847019D01*
X125788657Y-144942257D02*
X125836276Y-144894638D01*
X125836276Y-144894638D02*
X125931514Y-144847019D01*
X125931514Y-144847019D02*
X126169609Y-144847019D01*
X126169609Y-144847019D02*
X126264847Y-144894638D01*
X126264847Y-144894638D02*
X126312466Y-144942257D01*
X126312466Y-144942257D02*
X126360085Y-145037495D01*
X126360085Y-145037495D02*
X126360085Y-145132733D01*
X126360085Y-145132733D02*
X126312466Y-145275590D01*
X126312466Y-145275590D02*
X125741038Y-145847019D01*
X125741038Y-145847019D02*
X126360085Y-145847019D01*
D11*
%TO.C,RV5*%
X173156000Y-145824000D02*
X173156000Y-85824000D01*
X164156000Y-145824000D02*
X173156000Y-145824000D01*
X164156000Y-145824000D02*
X164156000Y-85824000D01*
X164156000Y-85824000D02*
X173156000Y-85824000D01*
%TO.C,RV3*%
X140898000Y-145824000D02*
X140898000Y-85824000D01*
X131898000Y-145824000D02*
X140898000Y-145824000D01*
X131898000Y-145824000D02*
X131898000Y-85824000D01*
X131898000Y-85824000D02*
X140898000Y-85824000D01*
%TO.C,RV4*%
X155122000Y-145824000D02*
X155122000Y-85824000D01*
X146122000Y-145824000D02*
X155122000Y-145824000D01*
X146122000Y-145824000D02*
X146122000Y-85824000D01*
X146122000Y-85824000D02*
X155122000Y-85824000D01*
%TO.C,RV1*%
X108640000Y-145824000D02*
X108640000Y-85824000D01*
X99640000Y-145824000D02*
X108640000Y-145824000D01*
X99640000Y-145824000D02*
X99640000Y-85824000D01*
X99640000Y-85824000D02*
X108640000Y-85824000D01*
%TO.C,RV6*%
X187380000Y-145824000D02*
X187380000Y-85824000D01*
X178380000Y-145824000D02*
X187380000Y-145824000D01*
X178380000Y-145824000D02*
X178380000Y-85824000D01*
X178380000Y-85824000D02*
X187380000Y-85824000D01*
D12*
%TO.C,J2*%
X177517951Y-103174800D02*
G75*
G02*
X176755951Y-103174800I-381000J0D01*
G01*
X176755951Y-103174800D02*
G75*
G02*
X177517951Y-103174800I381000J0D01*
G01*
D11*
%TO.C,RV2*%
X122864000Y-145824000D02*
X122864000Y-85824000D01*
X113864000Y-145824000D02*
X122864000Y-145824000D01*
X113864000Y-145824000D02*
X113864000Y-85824000D01*
X113864000Y-85824000D02*
X122864000Y-85824000D01*
%TD*%
M02*
