%TF.GenerationSoftware,KiCad,Pcbnew,8.0.2*%
%TF.CreationDate,2024-06-02T13:55:41-07:00*%
%TF.ProjectId,RLS_PCBA,524c535f-5043-4424-912e-6b696361645f,rev?*%
%TF.SameCoordinates,Original*%
%TF.FileFunction,Copper,L1,Top*%
%TF.FilePolarity,Positive*%
%FSLAX46Y46*%
G04 Gerber Fmt 4.6, Leading zero omitted, Abs format (unit mm)*
G04 Created by KiCad (PCBNEW 8.0.2) date 2024-06-02 13:55:41*
%MOMM*%
%LPD*%
G01*
G04 APERTURE LIST*
%TA.AperFunction,ComponentPad*%
%ADD10C,2.000000*%
%TD*%
%TA.AperFunction,ComponentPad*%
%ADD11C,2.500000*%
%TD*%
%TA.AperFunction,ComponentPad*%
%ADD12C,2.600000*%
%TD*%
%TA.AperFunction,ComponentPad*%
%ADD13C,1.473200*%
%TD*%
%TA.AperFunction,ComponentPad*%
%ADD14C,1.905000*%
%TD*%
%TA.AperFunction,ViaPad*%
%ADD15C,0.635000*%
%TD*%
%TA.AperFunction,Conductor*%
%ADD16C,0.254000*%
%TD*%
G04 APERTURE END LIST*
D10*
%TO.P,RV5,3,3*%
%TO.N,GND*%
X166906000Y-86574000D03*
%TO.P,RV5,2,2*%
%TO.N,/AIN5*%
X170406000Y-145074000D03*
%TO.P,RV5,1,1*%
%TO.N,+5V*%
X166906000Y-145074000D03*
D11*
%TO.P,RV5,*%
%TO.N,*%
X172906000Y-90724000D03*
X164406000Y-91924000D03*
X164406000Y-139724000D03*
X172906000Y-140924000D03*
%TD*%
D10*
%TO.P,RV3,3,3*%
%TO.N,GND*%
X134648000Y-86574000D03*
%TO.P,RV3,2,2*%
%TO.N,/AIN3*%
X138148000Y-145074000D03*
%TO.P,RV3,1,1*%
%TO.N,+5V*%
X134648000Y-145074000D03*
D11*
%TO.P,RV3,*%
%TO.N,*%
X140648000Y-90724000D03*
X132148000Y-91924000D03*
X132148000Y-139724000D03*
X140648000Y-140924000D03*
%TD*%
D10*
%TO.P,RV4,3,3*%
%TO.N,GND*%
X148872000Y-86574000D03*
%TO.P,RV4,2,2*%
%TO.N,/AIN4*%
X152372000Y-145074000D03*
%TO.P,RV4,1,1*%
%TO.N,+5V*%
X148872000Y-145074000D03*
D11*
%TO.P,RV4,*%
%TO.N,*%
X154872000Y-90724000D03*
X146372000Y-91924000D03*
X146372000Y-139724000D03*
X154872000Y-140924000D03*
%TD*%
D10*
%TO.P,RV1,3,3*%
%TO.N,GND*%
X102390000Y-86574000D03*
%TO.P,RV1,2,2*%
%TO.N,/AIN1*%
X105890000Y-145074000D03*
%TO.P,RV1,1,1*%
%TO.N,+5V*%
X102390000Y-145074000D03*
D11*
%TO.P,RV1,*%
%TO.N,*%
X108390000Y-90724000D03*
X99890000Y-91924000D03*
X99890000Y-139724000D03*
X108390000Y-140924000D03*
%TD*%
D10*
%TO.P,RV6,3,3*%
%TO.N,GND*%
X181130000Y-86574000D03*
%TO.P,RV6,2,2*%
%TO.N,/AIN6*%
X184630000Y-145074000D03*
%TO.P,RV6,1,1*%
%TO.N,+5V*%
X181130000Y-145074000D03*
D11*
%TO.P,RV6,*%
%TO.N,*%
X187130000Y-90724000D03*
X178630000Y-91924000D03*
X178630000Y-139724000D03*
X187130000Y-140924000D03*
%TD*%
D12*
%TO.P,H4,1,1*%
%TO.N,/D+*%
X163195000Y-110490000D03*
%TD*%
%TO.P,H1,1,1*%
%TO.N,+5V*%
X127316690Y-121743124D03*
%TD*%
%TO.P,H2,1,1*%
%TO.N,GND*%
X127500000Y-115500000D03*
%TD*%
%TO.P,H3,1,1*%
%TO.N,/D-*%
X168275000Y-110490000D03*
%TD*%
D13*
%TO.P,J2,1,VBUS*%
%TO.N,Net-(J2-VBUS)*%
X177136951Y-98526600D03*
%TO.P,J2,2,D-*%
%TO.N,Net-(J2-D-)*%
X179136950Y-98526600D03*
%TO.P,J2,3,D+*%
%TO.N,Net-(J2-D+)*%
X181136951Y-98526600D03*
%TO.P,J2,4,GND*%
%TO.N,Net-(J2-GND)*%
X183136949Y-98526600D03*
D14*
%TO.P,J2,5,Shield*%
X183406951Y-101246600D03*
%TO.P,J2,6*%
%TO.N,N/C*%
X183406951Y-95806600D03*
%TO.P,J2,7*%
X176406950Y-101246600D03*
%TO.P,J2,8*%
X176406950Y-95806600D03*
%TD*%
D10*
%TO.P,RV2,3,3*%
%TO.N,GND*%
X116614000Y-86574000D03*
%TO.P,RV2,2,2*%
%TO.N,/AIN2*%
X120114000Y-145074000D03*
%TO.P,RV2,1,1*%
%TO.N,+5V*%
X116614000Y-145074000D03*
D11*
%TO.P,RV2,*%
%TO.N,*%
X122614000Y-90724000D03*
X114114000Y-91924000D03*
X114114000Y-139724000D03*
X122614000Y-140924000D03*
%TD*%
D15*
%TO.N,/AIN2*%
X108250000Y-136500000D03*
%TO.N,/AIN6*%
X161036000Y-137033000D03*
X180594000Y-137160000D03*
%TO.N,/AIN5*%
X126238000Y-131953000D03*
X143510000Y-140716000D03*
%TO.N,/AIN3*%
X114935000Y-125222000D03*
X121666000Y-134112000D03*
%TO.N,/AIN6*%
X117094000Y-132207000D03*
X127000000Y-142113000D03*
%TO.N,/AIN4*%
X126619000Y-136525000D03*
%TO.N,GND*%
X140716000Y-126492000D03*
X106107154Y-117784801D03*
X111919336Y-110702036D03*
X104068000Y-121044000D03*
X109780120Y-114774828D03*
X135890000Y-136398000D03*
X103768000Y-123044000D03*
X112193000Y-113444000D03*
X109805397Y-132102415D03*
X112915269Y-132083681D03*
X179578000Y-109855000D03*
X111379538Y-132081545D03*
X111943000Y-108694000D03*
%TO.N,/nCS*%
X131750000Y-113250000D03*
X115805500Y-105444000D03*
%TO.N,/SCLK*%
X135525000Y-108225000D03*
X115768000Y-102044000D03*
%TO.N,/DIN*%
X132750000Y-111750000D03*
X115805500Y-104194000D03*
%TO.N,/DOUT*%
X134125000Y-110125000D03*
X115805500Y-103088500D03*
%TO.N,/AIN3*%
X112068000Y-116044000D03*
X111368000Y-120344000D03*
%TO.N,/AIN4*%
X117168000Y-116044000D03*
X143764000Y-145288000D03*
%TO.N,/AIN5*%
X118268000Y-117144000D03*
%TO.N,/AIN6*%
X116268000Y-119544000D03*
X111568000Y-118344000D03*
%TO.N,/AIN5*%
X116368000Y-123044000D03*
%TO.N,/AIN6*%
X108068000Y-117644000D03*
%TD*%
D16*
%TO.N,/nCS*%
X124037000Y-105537000D02*
X115898500Y-105537000D01*
X131750000Y-113250000D02*
X124037000Y-105537000D01*
X115898500Y-105537000D02*
X115805500Y-105444000D01*
%TO.N,/DOUT*%
X127088500Y-103088500D02*
X115805500Y-103088500D01*
X134125000Y-110125000D02*
X127088500Y-103088500D01*
%TO.N,/SCLK*%
X129408000Y-102108000D02*
X115832000Y-102108000D01*
X115832000Y-102108000D02*
X115768000Y-102044000D01*
X135525000Y-108225000D02*
X129408000Y-102108000D01*
%TO.N,/AIN2*%
X118000000Y-136500000D02*
X108250000Y-136500000D01*
X120114000Y-138614000D02*
X118000000Y-136500000D01*
X120114000Y-145074000D02*
X120114000Y-138614000D01*
%TO.N,/AIN3*%
X112522000Y-119126000D02*
X112522000Y-116498000D01*
X112522000Y-116498000D02*
X112068000Y-116044000D01*
X111368000Y-120280000D02*
X112522000Y-119126000D01*
X111368000Y-120344000D02*
X111368000Y-120280000D01*
%TO.N,/AIN6*%
X108768000Y-118344000D02*
X108068000Y-117644000D01*
X111568000Y-118344000D02*
X108768000Y-118344000D01*
%TO.N,/AIN5*%
X127063500Y-133985000D02*
X126238000Y-133159500D01*
X126238000Y-133159500D02*
X126238000Y-131953000D01*
X141097000Y-133985000D02*
X127063500Y-133985000D01*
X143510000Y-136398000D02*
X141097000Y-133985000D01*
X143510000Y-140716000D02*
X143510000Y-136398000D01*
%TO.N,/AIN4*%
X145542000Y-143510000D02*
X150808000Y-143510000D01*
X150808000Y-143510000D02*
X152372000Y-145074000D01*
X143764000Y-145288000D02*
X145542000Y-143510000D01*
%TO.N,/AIN6*%
X127889000Y-142875000D02*
X127127000Y-142113000D01*
X160274000Y-141986000D02*
X159385000Y-142875000D01*
X159385000Y-142875000D02*
X127889000Y-142875000D01*
X160274000Y-137752215D02*
X160274000Y-141986000D01*
X160993215Y-137033000D02*
X160274000Y-137752215D01*
X182372000Y-137033000D02*
X180721000Y-137033000D01*
X183769000Y-138430000D02*
X182372000Y-137033000D01*
X183769000Y-143637000D02*
X183769000Y-138430000D01*
X184630000Y-144498000D02*
X183769000Y-143637000D01*
X184630000Y-145074000D02*
X184630000Y-144498000D01*
%TO.N,/AIN3*%
X114935000Y-132207000D02*
X114935000Y-125349000D01*
X116205000Y-133477000D02*
X114935000Y-132207000D01*
X121666000Y-134112000D02*
X121031000Y-133477000D01*
X121031000Y-133477000D02*
X116205000Y-133477000D01*
%TO.N,/AIN4*%
X117202000Y-116078000D02*
X117168000Y-116044000D01*
X121793000Y-116078000D02*
X117202000Y-116078000D01*
X122809000Y-117094000D02*
X121793000Y-116078000D01*
X122809000Y-132715000D02*
X122809000Y-117094000D01*
X126619000Y-136525000D02*
X122809000Y-132715000D01*
%TO.N,/AIN6*%
X115723500Y-120088500D02*
X116268000Y-119544000D01*
X115723500Y-130836500D02*
X115723500Y-120088500D01*
X117094000Y-132207000D02*
X115723500Y-130836500D01*
%TO.N,/AIN5*%
X118268000Y-121144000D02*
X118268000Y-117144000D01*
X116368000Y-123044000D02*
X118268000Y-121144000D01*
%TO.N,/DIN*%
X132750000Y-111668000D02*
X132750000Y-111750000D01*
X125276000Y-104194000D02*
X132750000Y-111668000D01*
X115805500Y-104194000D02*
X125276000Y-104194000D01*
%TD*%
%TA.AperFunction,Conductor*%
%TO.N,GND*%
G36*
X101882808Y-84949785D02*
G01*
X101928563Y-85002589D01*
X101938507Y-85071747D01*
X101909482Y-85135303D01*
X101856032Y-85171381D01*
X101785396Y-85195630D01*
X101785390Y-85195632D01*
X101566761Y-85313949D01*
X101519942Y-85350388D01*
X101519942Y-85350390D01*
X102104242Y-85934690D01*
X102058426Y-85953668D01*
X101943776Y-86030274D01*
X101846274Y-86127776D01*
X101769668Y-86242426D01*
X101750690Y-86288242D01*
X101166564Y-85704116D01*
X101066267Y-85857632D01*
X100966412Y-86085282D01*
X100905387Y-86326261D01*
X100905385Y-86326270D01*
X100884859Y-86573994D01*
X100884859Y-86574005D01*
X100905385Y-86821729D01*
X100905387Y-86821738D01*
X100966412Y-87062717D01*
X101066266Y-87290364D01*
X101166564Y-87443882D01*
X101750690Y-86859756D01*
X101769668Y-86905574D01*
X101846274Y-87020224D01*
X101943776Y-87117726D01*
X102058426Y-87194332D01*
X102104242Y-87213309D01*
X101519942Y-87797609D01*
X101566768Y-87834055D01*
X101566770Y-87834056D01*
X101785385Y-87952364D01*
X101785396Y-87952369D01*
X102020506Y-88033083D01*
X102265707Y-88074000D01*
X102514293Y-88074000D01*
X102759493Y-88033083D01*
X102994603Y-87952369D01*
X102994614Y-87952364D01*
X103213228Y-87834057D01*
X103213231Y-87834055D01*
X103260056Y-87797609D01*
X102675756Y-87213309D01*
X102721574Y-87194332D01*
X102836224Y-87117726D01*
X102933726Y-87020224D01*
X103010332Y-86905574D01*
X103029309Y-86859757D01*
X103613434Y-87443882D01*
X103713731Y-87290369D01*
X103813587Y-87062717D01*
X103874612Y-86821738D01*
X103874614Y-86821729D01*
X103895141Y-86574005D01*
X103895141Y-86573994D01*
X103874614Y-86326270D01*
X103874612Y-86326261D01*
X103813587Y-86085282D01*
X103713731Y-85857630D01*
X103613434Y-85704116D01*
X103029309Y-86288241D01*
X103010332Y-86242426D01*
X102933726Y-86127776D01*
X102836224Y-86030274D01*
X102721574Y-85953668D01*
X102675757Y-85934690D01*
X103260057Y-85350390D01*
X103260056Y-85350389D01*
X103213229Y-85313943D01*
X102994614Y-85195635D01*
X102994603Y-85195630D01*
X102923968Y-85171381D01*
X102866953Y-85130995D01*
X102840822Y-85066196D01*
X102853874Y-84997556D01*
X102901962Y-84946868D01*
X102964231Y-84930100D01*
X116039769Y-84930100D01*
X116106808Y-84949785D01*
X116152563Y-85002589D01*
X116162507Y-85071747D01*
X116133482Y-85135303D01*
X116080032Y-85171381D01*
X116009396Y-85195630D01*
X116009390Y-85195632D01*
X115790761Y-85313949D01*
X115743942Y-85350388D01*
X115743942Y-85350390D01*
X116328242Y-85934690D01*
X116282426Y-85953668D01*
X116167776Y-86030274D01*
X116070274Y-86127776D01*
X115993668Y-86242426D01*
X115974690Y-86288242D01*
X115390564Y-85704116D01*
X115290267Y-85857632D01*
X115190412Y-86085282D01*
X115129387Y-86326261D01*
X115129385Y-86326270D01*
X115108859Y-86573994D01*
X115108859Y-86574005D01*
X115129385Y-86821729D01*
X115129387Y-86821738D01*
X115190412Y-87062717D01*
X115290266Y-87290364D01*
X115390564Y-87443882D01*
X115974690Y-86859756D01*
X115993668Y-86905574D01*
X116070274Y-87020224D01*
X116167776Y-87117726D01*
X116282426Y-87194332D01*
X116328242Y-87213309D01*
X115743942Y-87797609D01*
X115790768Y-87834055D01*
X115790770Y-87834056D01*
X116009385Y-87952364D01*
X116009396Y-87952369D01*
X116244506Y-88033083D01*
X116489707Y-88074000D01*
X116738293Y-88074000D01*
X116983493Y-88033083D01*
X117218603Y-87952369D01*
X117218614Y-87952364D01*
X117437228Y-87834057D01*
X117437231Y-87834055D01*
X117484056Y-87797609D01*
X116899756Y-87213309D01*
X116945574Y-87194332D01*
X117060224Y-87117726D01*
X117157726Y-87020224D01*
X117234332Y-86905574D01*
X117253309Y-86859757D01*
X117837434Y-87443882D01*
X117937731Y-87290369D01*
X118037587Y-87062717D01*
X118098612Y-86821738D01*
X118098614Y-86821729D01*
X118119141Y-86574005D01*
X118119141Y-86573994D01*
X118098614Y-86326270D01*
X118098612Y-86326261D01*
X118037587Y-86085282D01*
X117937731Y-85857630D01*
X117837434Y-85704116D01*
X117253309Y-86288241D01*
X117234332Y-86242426D01*
X117157726Y-86127776D01*
X117060224Y-86030274D01*
X116945574Y-85953668D01*
X116899757Y-85934690D01*
X117484057Y-85350390D01*
X117484056Y-85350389D01*
X117437229Y-85313943D01*
X117218614Y-85195635D01*
X117218603Y-85195630D01*
X117147968Y-85171381D01*
X117090953Y-85130995D01*
X117064822Y-85066196D01*
X117077874Y-84997556D01*
X117125962Y-84946868D01*
X117188231Y-84930100D01*
X134073769Y-84930100D01*
X134140808Y-84949785D01*
X134186563Y-85002589D01*
X134196507Y-85071747D01*
X134167482Y-85135303D01*
X134114032Y-85171381D01*
X134043396Y-85195630D01*
X134043390Y-85195632D01*
X133824761Y-85313949D01*
X133777942Y-85350388D01*
X133777942Y-85350390D01*
X134362242Y-85934690D01*
X134316426Y-85953668D01*
X134201776Y-86030274D01*
X134104274Y-86127776D01*
X134027668Y-86242426D01*
X134008690Y-86288242D01*
X133424564Y-85704116D01*
X133324267Y-85857632D01*
X133224412Y-86085282D01*
X133163387Y-86326261D01*
X133163385Y-86326270D01*
X133142859Y-86573994D01*
X133142859Y-86574005D01*
X133163385Y-86821729D01*
X133163387Y-86821738D01*
X133224412Y-87062717D01*
X133324266Y-87290364D01*
X133424564Y-87443882D01*
X134008690Y-86859756D01*
X134027668Y-86905574D01*
X134104274Y-87020224D01*
X134201776Y-87117726D01*
X134316426Y-87194332D01*
X134362242Y-87213309D01*
X133777942Y-87797609D01*
X133824768Y-87834055D01*
X133824770Y-87834056D01*
X134043385Y-87952364D01*
X134043396Y-87952369D01*
X134278506Y-88033083D01*
X134523707Y-88074000D01*
X134772293Y-88074000D01*
X135017493Y-88033083D01*
X135252603Y-87952369D01*
X135252614Y-87952364D01*
X135471228Y-87834057D01*
X135471231Y-87834055D01*
X135518056Y-87797609D01*
X134933756Y-87213309D01*
X134979574Y-87194332D01*
X135094224Y-87117726D01*
X135191726Y-87020224D01*
X135268332Y-86905574D01*
X135287309Y-86859757D01*
X135871434Y-87443882D01*
X135971731Y-87290369D01*
X136071587Y-87062717D01*
X136132612Y-86821738D01*
X136132614Y-86821729D01*
X136153141Y-86574005D01*
X136153141Y-86573994D01*
X136132614Y-86326270D01*
X136132612Y-86326261D01*
X136071587Y-86085282D01*
X135971731Y-85857630D01*
X135871434Y-85704116D01*
X135287309Y-86288241D01*
X135268332Y-86242426D01*
X135191726Y-86127776D01*
X135094224Y-86030274D01*
X134979574Y-85953668D01*
X134933757Y-85934690D01*
X135518057Y-85350390D01*
X135518056Y-85350389D01*
X135471229Y-85313943D01*
X135252614Y-85195635D01*
X135252603Y-85195630D01*
X135181968Y-85171381D01*
X135124953Y-85130995D01*
X135098822Y-85066196D01*
X135111874Y-84997556D01*
X135159962Y-84946868D01*
X135222231Y-84930100D01*
X148297769Y-84930100D01*
X148364808Y-84949785D01*
X148410563Y-85002589D01*
X148420507Y-85071747D01*
X148391482Y-85135303D01*
X148338032Y-85171381D01*
X148267396Y-85195630D01*
X148267390Y-85195632D01*
X148048761Y-85313949D01*
X148001942Y-85350388D01*
X148001942Y-85350390D01*
X148586242Y-85934690D01*
X148540426Y-85953668D01*
X148425776Y-86030274D01*
X148328274Y-86127776D01*
X148251668Y-86242426D01*
X148232690Y-86288242D01*
X147648564Y-85704116D01*
X147548267Y-85857632D01*
X147448412Y-86085282D01*
X147387387Y-86326261D01*
X147387385Y-86326270D01*
X147366859Y-86573994D01*
X147366859Y-86574005D01*
X147387385Y-86821729D01*
X147387387Y-86821738D01*
X147448412Y-87062717D01*
X147548266Y-87290364D01*
X147648564Y-87443882D01*
X148232690Y-86859756D01*
X148251668Y-86905574D01*
X148328274Y-87020224D01*
X148425776Y-87117726D01*
X148540426Y-87194332D01*
X148586242Y-87213309D01*
X148001942Y-87797609D01*
X148048768Y-87834055D01*
X148048770Y-87834056D01*
X148267385Y-87952364D01*
X148267396Y-87952369D01*
X148502506Y-88033083D01*
X148747707Y-88074000D01*
X148996293Y-88074000D01*
X149241493Y-88033083D01*
X149476603Y-87952369D01*
X149476614Y-87952364D01*
X149695228Y-87834057D01*
X149695231Y-87834055D01*
X149742056Y-87797609D01*
X149157756Y-87213309D01*
X149203574Y-87194332D01*
X149318224Y-87117726D01*
X149415726Y-87020224D01*
X149492332Y-86905574D01*
X149511309Y-86859757D01*
X150095434Y-87443882D01*
X150195731Y-87290369D01*
X150295587Y-87062717D01*
X150356612Y-86821738D01*
X150356614Y-86821729D01*
X150377141Y-86574005D01*
X150377141Y-86573994D01*
X150356614Y-86326270D01*
X150356612Y-86326261D01*
X150295587Y-86085282D01*
X150195731Y-85857630D01*
X150095434Y-85704116D01*
X149511309Y-86288241D01*
X149492332Y-86242426D01*
X149415726Y-86127776D01*
X149318224Y-86030274D01*
X149203574Y-85953668D01*
X149157757Y-85934690D01*
X149742057Y-85350390D01*
X149742056Y-85350389D01*
X149695229Y-85313943D01*
X149476614Y-85195635D01*
X149476603Y-85195630D01*
X149405968Y-85171381D01*
X149348953Y-85130995D01*
X149322822Y-85066196D01*
X149335874Y-84997556D01*
X149383962Y-84946868D01*
X149446231Y-84930100D01*
X166331769Y-84930100D01*
X166398808Y-84949785D01*
X166444563Y-85002589D01*
X166454507Y-85071747D01*
X166425482Y-85135303D01*
X166372032Y-85171381D01*
X166301396Y-85195630D01*
X166301390Y-85195632D01*
X166082761Y-85313949D01*
X166035942Y-85350388D01*
X166035942Y-85350390D01*
X166620242Y-85934690D01*
X166574426Y-85953668D01*
X166459776Y-86030274D01*
X166362274Y-86127776D01*
X166285668Y-86242426D01*
X166266690Y-86288242D01*
X165682564Y-85704116D01*
X165582267Y-85857632D01*
X165482412Y-86085282D01*
X165421387Y-86326261D01*
X165421385Y-86326270D01*
X165400859Y-86573994D01*
X165400859Y-86574005D01*
X165421385Y-86821729D01*
X165421387Y-86821738D01*
X165482412Y-87062717D01*
X165582266Y-87290364D01*
X165682564Y-87443882D01*
X166266690Y-86859756D01*
X166285668Y-86905574D01*
X166362274Y-87020224D01*
X166459776Y-87117726D01*
X166574426Y-87194332D01*
X166620242Y-87213309D01*
X166035942Y-87797609D01*
X166082768Y-87834055D01*
X166082770Y-87834056D01*
X166301385Y-87952364D01*
X166301396Y-87952369D01*
X166536506Y-88033083D01*
X166781707Y-88074000D01*
X167030293Y-88074000D01*
X167275493Y-88033083D01*
X167510603Y-87952369D01*
X167510614Y-87952364D01*
X167729228Y-87834057D01*
X167729231Y-87834055D01*
X167776056Y-87797609D01*
X167191756Y-87213309D01*
X167237574Y-87194332D01*
X167352224Y-87117726D01*
X167449726Y-87020224D01*
X167526332Y-86905574D01*
X167545309Y-86859757D01*
X168129434Y-87443882D01*
X168229731Y-87290369D01*
X168329587Y-87062717D01*
X168390612Y-86821738D01*
X168390614Y-86821729D01*
X168411141Y-86574005D01*
X168411141Y-86573994D01*
X168390614Y-86326270D01*
X168390612Y-86326261D01*
X168329587Y-86085282D01*
X168229731Y-85857630D01*
X168129434Y-85704116D01*
X167545309Y-86288241D01*
X167526332Y-86242426D01*
X167449726Y-86127776D01*
X167352224Y-86030274D01*
X167237574Y-85953668D01*
X167191757Y-85934690D01*
X167776057Y-85350390D01*
X167776056Y-85350389D01*
X167729229Y-85313943D01*
X167510614Y-85195635D01*
X167510603Y-85195630D01*
X167439968Y-85171381D01*
X167382953Y-85130995D01*
X167356822Y-85066196D01*
X167369874Y-84997556D01*
X167417962Y-84946868D01*
X167480231Y-84930100D01*
X180555769Y-84930100D01*
X180622808Y-84949785D01*
X180668563Y-85002589D01*
X180678507Y-85071747D01*
X180649482Y-85135303D01*
X180596032Y-85171381D01*
X180525396Y-85195630D01*
X180525390Y-85195632D01*
X180306761Y-85313949D01*
X180259942Y-85350388D01*
X180259942Y-85350390D01*
X180844242Y-85934690D01*
X180798426Y-85953668D01*
X180683776Y-86030274D01*
X180586274Y-86127776D01*
X180509668Y-86242426D01*
X180490690Y-86288242D01*
X179906564Y-85704116D01*
X179806267Y-85857632D01*
X179706412Y-86085282D01*
X179645387Y-86326261D01*
X179645385Y-86326270D01*
X179624859Y-86573994D01*
X179624859Y-86574005D01*
X179645385Y-86821729D01*
X179645387Y-86821738D01*
X179706412Y-87062717D01*
X179806266Y-87290364D01*
X179906564Y-87443882D01*
X180490690Y-86859756D01*
X180509668Y-86905574D01*
X180586274Y-87020224D01*
X180683776Y-87117726D01*
X180798426Y-87194332D01*
X180844242Y-87213309D01*
X180259942Y-87797609D01*
X180306768Y-87834055D01*
X180306770Y-87834056D01*
X180525385Y-87952364D01*
X180525396Y-87952369D01*
X180760506Y-88033083D01*
X181005707Y-88074000D01*
X181254293Y-88074000D01*
X181499493Y-88033083D01*
X181734603Y-87952369D01*
X181734614Y-87952364D01*
X181953228Y-87834057D01*
X181953231Y-87834055D01*
X182000056Y-87797609D01*
X181415756Y-87213309D01*
X181461574Y-87194332D01*
X181576224Y-87117726D01*
X181673726Y-87020224D01*
X181750332Y-86905574D01*
X181769309Y-86859757D01*
X182353434Y-87443882D01*
X182453731Y-87290369D01*
X182553587Y-87062717D01*
X182614612Y-86821738D01*
X182614614Y-86821729D01*
X182635141Y-86574005D01*
X182635141Y-86573994D01*
X182614614Y-86326270D01*
X182614612Y-86326261D01*
X182553587Y-86085282D01*
X182453731Y-85857630D01*
X182353434Y-85704116D01*
X181769309Y-86288241D01*
X181750332Y-86242426D01*
X181673726Y-86127776D01*
X181576224Y-86030274D01*
X181461574Y-85953668D01*
X181415757Y-85934690D01*
X182000057Y-85350390D01*
X182000056Y-85350389D01*
X181953229Y-85313943D01*
X181734614Y-85195635D01*
X181734603Y-85195630D01*
X181663968Y-85171381D01*
X181606953Y-85130995D01*
X181580822Y-85066196D01*
X181593874Y-84997556D01*
X181641962Y-84946868D01*
X181704231Y-84930100D01*
X188544146Y-84930100D01*
X188553876Y-84930481D01*
X188737542Y-84944940D01*
X188756754Y-84947983D01*
X188931155Y-84989854D01*
X188949643Y-84995863D01*
X189115332Y-85064496D01*
X189132665Y-85073327D01*
X189145188Y-85081001D01*
X189285584Y-85167038D01*
X189301325Y-85178475D01*
X189437695Y-85294946D01*
X189451453Y-85308704D01*
X189567924Y-85445074D01*
X189579361Y-85460815D01*
X189673071Y-85613732D01*
X189681904Y-85631069D01*
X189750533Y-85796747D01*
X189756547Y-85815253D01*
X189798415Y-85989642D01*
X189801459Y-86008859D01*
X189815913Y-86192479D01*
X189816295Y-86202294D01*
X189776349Y-144944157D01*
X189776301Y-144944888D01*
X189776300Y-145013484D01*
X189775917Y-145023213D01*
X189760013Y-145225207D01*
X189756969Y-145244424D01*
X189710802Y-145436703D01*
X189704789Y-145455207D01*
X189629118Y-145637886D01*
X189620285Y-145655223D01*
X189516962Y-145823828D01*
X189505526Y-145839568D01*
X189377104Y-145989932D01*
X189363346Y-146003690D01*
X189212987Y-146132112D01*
X189197246Y-146143549D01*
X189028649Y-146246871D01*
X189011313Y-146255705D01*
X188828626Y-146331383D01*
X188810122Y-146337396D01*
X188617844Y-146383566D01*
X188598626Y-146386610D01*
X188397053Y-146402483D01*
X188387374Y-146402866D01*
X188385137Y-146402866D01*
X188385082Y-146402867D01*
X188385071Y-146402867D01*
X188318326Y-146402869D01*
X188318246Y-146402874D01*
X185726460Y-146403171D01*
X185659418Y-146383494D01*
X185613658Y-146330695D01*
X185603706Y-146261538D01*
X185632724Y-146197979D01*
X185646065Y-146185320D01*
X185645968Y-146185214D01*
X185649732Y-146181747D01*
X185649744Y-146181738D01*
X185818164Y-145998785D01*
X185954173Y-145790607D01*
X186054063Y-145562881D01*
X186115108Y-145321821D01*
X186115109Y-145321812D01*
X186135643Y-145074005D01*
X186135643Y-145073994D01*
X186115109Y-144826187D01*
X186115107Y-144826175D01*
X186054063Y-144585118D01*
X185954173Y-144357393D01*
X185818166Y-144149217D01*
X185779365Y-144107068D01*
X185649744Y-143966262D01*
X185453509Y-143813526D01*
X185453507Y-143813525D01*
X185453506Y-143813524D01*
X185234811Y-143695172D01*
X185234802Y-143695169D01*
X184999616Y-143614429D01*
X184754335Y-143573500D01*
X184644281Y-143573500D01*
X184577242Y-143553815D01*
X184556600Y-143537181D01*
X184432819Y-143413400D01*
X184399334Y-143352077D01*
X184396500Y-143325719D01*
X184396500Y-140923995D01*
X185374592Y-140923995D01*
X185374592Y-140924004D01*
X185394196Y-141185620D01*
X185394197Y-141185625D01*
X185452576Y-141441402D01*
X185452578Y-141441411D01*
X185452580Y-141441416D01*
X185548432Y-141685643D01*
X185679614Y-141912857D01*
X185785941Y-142046187D01*
X185843198Y-142117985D01*
X186021287Y-142283226D01*
X186035521Y-142296433D01*
X186252296Y-142444228D01*
X186252301Y-142444230D01*
X186252302Y-142444231D01*
X186252303Y-142444232D01*
X186377843Y-142504688D01*
X186488673Y-142558061D01*
X186488674Y-142558061D01*
X186488677Y-142558063D01*
X186739385Y-142635396D01*
X186998818Y-142674500D01*
X187261182Y-142674500D01*
X187520615Y-142635396D01*
X187771323Y-142558063D01*
X188007704Y-142444228D01*
X188224479Y-142296433D01*
X188416805Y-142117981D01*
X188580386Y-141912857D01*
X188711568Y-141685643D01*
X188807420Y-141441416D01*
X188865802Y-141185630D01*
X188865803Y-141185620D01*
X188885408Y-140924004D01*
X188885408Y-140923995D01*
X188865803Y-140662379D01*
X188865802Y-140662374D01*
X188865802Y-140662370D01*
X188807420Y-140406584D01*
X188711568Y-140162357D01*
X188580386Y-139935143D01*
X188416805Y-139730019D01*
X188416804Y-139730018D01*
X188416801Y-139730014D01*
X188224479Y-139551567D01*
X188007704Y-139403772D01*
X188007700Y-139403770D01*
X188007697Y-139403768D01*
X188007696Y-139403767D01*
X187771325Y-139289938D01*
X187771327Y-139289938D01*
X187520623Y-139212606D01*
X187520619Y-139212605D01*
X187520615Y-139212604D01*
X187395823Y-139193794D01*
X187261187Y-139173500D01*
X187261182Y-139173500D01*
X186998818Y-139173500D01*
X186998812Y-139173500D01*
X186837247Y-139197853D01*
X186739385Y-139212604D01*
X186739382Y-139212605D01*
X186739376Y-139212606D01*
X186488673Y-139289938D01*
X186252303Y-139403767D01*
X186252302Y-139403768D01*
X186035520Y-139551567D01*
X185843198Y-139730014D01*
X185679614Y-139935143D01*
X185548432Y-140162356D01*
X185452582Y-140406578D01*
X185452576Y-140406597D01*
X185394197Y-140662374D01*
X185394196Y-140662379D01*
X185374592Y-140923995D01*
X184396500Y-140923995D01*
X184396500Y-138368194D01*
X184372386Y-138246970D01*
X184372385Y-138246969D01*
X184372385Y-138246965D01*
X184354494Y-138203772D01*
X184325086Y-138132773D01*
X184325079Y-138132760D01*
X184256412Y-138029993D01*
X184222876Y-137996457D01*
X184169008Y-137942589D01*
X183491223Y-137264804D01*
X182772011Y-136545591D01*
X182772010Y-136545590D01*
X182733349Y-136519758D01*
X182703779Y-136500000D01*
X182703775Y-136499997D01*
X182669241Y-136476921D01*
X182669226Y-136476913D01*
X182627917Y-136459803D01*
X182555035Y-136429614D01*
X182555027Y-136429612D01*
X182433807Y-136405500D01*
X182433803Y-136405500D01*
X180935526Y-136405500D01*
X180894572Y-136398542D01*
X180777172Y-136357462D01*
X180777169Y-136357461D01*
X180594003Y-136336824D01*
X180593997Y-136336824D01*
X180410828Y-136357461D01*
X180236834Y-136418345D01*
X180080757Y-136516415D01*
X179950415Y-136646757D01*
X179852345Y-136802834D01*
X179791461Y-136976828D01*
X179770824Y-137159997D01*
X179770824Y-137160002D01*
X179791461Y-137343171D01*
X179852345Y-137517165D01*
X179885028Y-137569179D01*
X179950415Y-137673242D01*
X180080758Y-137803585D01*
X180236837Y-137901656D01*
X180369059Y-137947922D01*
X180410828Y-137962538D01*
X180593997Y-137983176D01*
X180594000Y-137983176D01*
X180594003Y-137983176D01*
X180777171Y-137962538D01*
X180777174Y-137962537D01*
X180951163Y-137901656D01*
X181107242Y-137803585D01*
X181214009Y-137696818D01*
X181275332Y-137663334D01*
X181301690Y-137660500D01*
X182060719Y-137660500D01*
X182127758Y-137680185D01*
X182148400Y-137696819D01*
X183105181Y-138653600D01*
X183138666Y-138714923D01*
X183141500Y-138741281D01*
X183141500Y-143698807D01*
X183165612Y-143820028D01*
X183165614Y-143820034D01*
X183196507Y-143894615D01*
X183212915Y-143934229D01*
X183212923Y-143934243D01*
X183281585Y-144037003D01*
X183281591Y-144037011D01*
X183351648Y-144107068D01*
X183385133Y-144168391D01*
X183380149Y-144238083D01*
X183367776Y-144262569D01*
X183305828Y-144357389D01*
X183205936Y-144585118D01*
X183144892Y-144826175D01*
X183144890Y-144826187D01*
X183124357Y-145073994D01*
X183124357Y-145074005D01*
X183144890Y-145321812D01*
X183144892Y-145321824D01*
X183205936Y-145562881D01*
X183305826Y-145790606D01*
X183441833Y-145998782D01*
X183451636Y-146009431D01*
X183610256Y-146181738D01*
X183610259Y-146181740D01*
X183614032Y-146185214D01*
X183613262Y-146186050D01*
X183650849Y-146238274D01*
X183654526Y-146308046D01*
X183619897Y-146368731D01*
X183557956Y-146401060D01*
X183533889Y-146403421D01*
X182225945Y-146403572D01*
X182158904Y-146383895D01*
X182113143Y-146331096D01*
X182103191Y-146261939D01*
X182132209Y-146198380D01*
X182146022Y-146185273D01*
X182145968Y-146185214D01*
X182149732Y-146181747D01*
X182149744Y-146181738D01*
X182318164Y-145998785D01*
X182454173Y-145790607D01*
X182554063Y-145562881D01*
X182615108Y-145321821D01*
X182615109Y-145321812D01*
X182635643Y-145074005D01*
X182635643Y-145073994D01*
X182615109Y-144826187D01*
X182615107Y-144826175D01*
X182554063Y-144585118D01*
X182454173Y-144357393D01*
X182318166Y-144149217D01*
X182279365Y-144107068D01*
X182149744Y-143966262D01*
X181953509Y-143813526D01*
X181953507Y-143813525D01*
X181953506Y-143813524D01*
X181734811Y-143695172D01*
X181734802Y-143695169D01*
X181499616Y-143614429D01*
X181254335Y-143573500D01*
X181005665Y-143573500D01*
X180760383Y-143614429D01*
X180525197Y-143695169D01*
X180525188Y-143695172D01*
X180306493Y-143813524D01*
X180110257Y-143966261D01*
X179941833Y-144149217D01*
X179805826Y-144357393D01*
X179705936Y-144585118D01*
X179644892Y-144826175D01*
X179644890Y-144826187D01*
X179624357Y-145073994D01*
X179624357Y-145074005D01*
X179644890Y-145321812D01*
X179644892Y-145321824D01*
X179705936Y-145562881D01*
X179805826Y-145790606D01*
X179941833Y-145998782D01*
X179951636Y-146009431D01*
X180110256Y-146181738D01*
X180110259Y-146181740D01*
X180110260Y-146181742D01*
X180110551Y-146181968D01*
X180110639Y-146182090D01*
X180114032Y-146185214D01*
X180113389Y-146185911D01*
X180151365Y-146238678D01*
X180155040Y-146308451D01*
X180120409Y-146369134D01*
X180058468Y-146401462D01*
X180034404Y-146403822D01*
X171500368Y-146404799D01*
X171433326Y-146385122D01*
X171387566Y-146332323D01*
X171377614Y-146263166D01*
X171406632Y-146199607D01*
X171424195Y-146182942D01*
X171425744Y-146181738D01*
X171594164Y-145998785D01*
X171730173Y-145790607D01*
X171830063Y-145562881D01*
X171891108Y-145321821D01*
X171891109Y-145321812D01*
X171911643Y-145074005D01*
X171911643Y-145073994D01*
X171891109Y-144826187D01*
X171891107Y-144826175D01*
X171830063Y-144585118D01*
X171730173Y-144357393D01*
X171594166Y-144149217D01*
X171555365Y-144107068D01*
X171425744Y-143966262D01*
X171229509Y-143813526D01*
X171229507Y-143813525D01*
X171229506Y-143813524D01*
X171010811Y-143695172D01*
X171010802Y-143695169D01*
X170775616Y-143614429D01*
X170530335Y-143573500D01*
X170281665Y-143573500D01*
X170036383Y-143614429D01*
X169801197Y-143695169D01*
X169801188Y-143695172D01*
X169582493Y-143813524D01*
X169386257Y-143966261D01*
X169217833Y-144149217D01*
X169081826Y-144357393D01*
X168981936Y-144585118D01*
X168920892Y-144826175D01*
X168920890Y-144826187D01*
X168900357Y-145073994D01*
X168900357Y-145074005D01*
X168920890Y-145321812D01*
X168920892Y-145321824D01*
X168981936Y-145562881D01*
X169081826Y-145790606D01*
X169217833Y-145998782D01*
X169227636Y-146009431D01*
X169386256Y-146181738D01*
X169387780Y-146182924D01*
X169388124Y-146183192D01*
X169388690Y-146183978D01*
X169390032Y-146185214D01*
X169389777Y-146185489D01*
X169428940Y-146239900D01*
X169432618Y-146309673D01*
X169397990Y-146370358D01*
X169336050Y-146402688D01*
X169311981Y-146405049D01*
X167999853Y-146405200D01*
X167932812Y-146385523D01*
X167887051Y-146332724D01*
X167877099Y-146263567D01*
X167906117Y-146200008D01*
X167923682Y-146183343D01*
X167925740Y-146181741D01*
X167925744Y-146181738D01*
X168094164Y-145998785D01*
X168230173Y-145790607D01*
X168330063Y-145562881D01*
X168391108Y-145321821D01*
X168391109Y-145321812D01*
X168411643Y-145074005D01*
X168411643Y-145073994D01*
X168391109Y-144826187D01*
X168391107Y-144826175D01*
X168330063Y-144585118D01*
X168230173Y-144357393D01*
X168094166Y-144149217D01*
X168055365Y-144107068D01*
X167925744Y-143966262D01*
X167729509Y-143813526D01*
X167729507Y-143813525D01*
X167729506Y-143813524D01*
X167510811Y-143695172D01*
X167510802Y-143695169D01*
X167275616Y-143614429D01*
X167030335Y-143573500D01*
X166781665Y-143573500D01*
X166536383Y-143614429D01*
X166301197Y-143695169D01*
X166301188Y-143695172D01*
X166082493Y-143813524D01*
X165886257Y-143966261D01*
X165717833Y-144149217D01*
X165581826Y-144357393D01*
X165481936Y-144585118D01*
X165420892Y-144826175D01*
X165420890Y-144826187D01*
X165400357Y-145073994D01*
X165400357Y-145074005D01*
X165420890Y-145321812D01*
X165420892Y-145321824D01*
X165481936Y-145562881D01*
X165581826Y-145790606D01*
X165717833Y-145998782D01*
X165886257Y-146181739D01*
X165888641Y-146183594D01*
X165889365Y-146184599D01*
X165890032Y-146185214D01*
X165889905Y-146185351D01*
X165929456Y-146240303D01*
X165933133Y-146310076D01*
X165898503Y-146370760D01*
X165836563Y-146403089D01*
X165812496Y-146405450D01*
X153463715Y-146406863D01*
X153396673Y-146387186D01*
X153350913Y-146334387D01*
X153340961Y-146265230D01*
X153369979Y-146201671D01*
X153387542Y-146185008D01*
X153391744Y-146181738D01*
X153560164Y-145998785D01*
X153696173Y-145790607D01*
X153796063Y-145562881D01*
X153857108Y-145321821D01*
X153857109Y-145321812D01*
X153877643Y-145074005D01*
X153877643Y-145073994D01*
X153857109Y-144826187D01*
X153857107Y-144826175D01*
X153796063Y-144585118D01*
X153696173Y-144357393D01*
X153560166Y-144149217D01*
X153521365Y-144107068D01*
X153391744Y-143966262D01*
X153195509Y-143813526D01*
X153195507Y-143813525D01*
X153195506Y-143813524D01*
X153051431Y-143735555D01*
X153001841Y-143686335D01*
X152986733Y-143618119D01*
X153010903Y-143552563D01*
X153066679Y-143510482D01*
X153110449Y-143502500D01*
X159446804Y-143502500D01*
X159446805Y-143502499D01*
X159568035Y-143478386D01*
X159648784Y-143444937D01*
X159682233Y-143431083D01*
X159785008Y-143362411D01*
X159872411Y-143275008D01*
X160761411Y-142386008D01*
X160792965Y-142338784D01*
X160830083Y-142283233D01*
X160874996Y-142174803D01*
X160877386Y-142169034D01*
X160901500Y-142047803D01*
X160901500Y-141924197D01*
X160901500Y-139723995D01*
X162650592Y-139723995D01*
X162650592Y-139724004D01*
X162670196Y-139985620D01*
X162670197Y-139985625D01*
X162728576Y-140241402D01*
X162728578Y-140241411D01*
X162728580Y-140241416D01*
X162824432Y-140485643D01*
X162955614Y-140712857D01*
X163087736Y-140878533D01*
X163119198Y-140917985D01*
X163286442Y-141073163D01*
X163311521Y-141096433D01*
X163528296Y-141244228D01*
X163528301Y-141244230D01*
X163528302Y-141244231D01*
X163528303Y-141244232D01*
X163622977Y-141289824D01*
X163764673Y-141358061D01*
X163764674Y-141358061D01*
X163764677Y-141358063D01*
X164015385Y-141435396D01*
X164274818Y-141474500D01*
X164537182Y-141474500D01*
X164796615Y-141435396D01*
X165047323Y-141358063D01*
X165283704Y-141244228D01*
X165500479Y-141096433D01*
X165686318Y-140924000D01*
X165686323Y-140923995D01*
X171150592Y-140923995D01*
X171150592Y-140924004D01*
X171170196Y-141185620D01*
X171170197Y-141185625D01*
X171228576Y-141441402D01*
X171228578Y-141441411D01*
X171228580Y-141441416D01*
X171324432Y-141685643D01*
X171455614Y-141912857D01*
X171561941Y-142046187D01*
X171619198Y-142117985D01*
X171797287Y-142283226D01*
X171811521Y-142296433D01*
X172028296Y-142444228D01*
X172028301Y-142444230D01*
X172028302Y-142444231D01*
X172028303Y-142444232D01*
X172153843Y-142504688D01*
X172264673Y-142558061D01*
X172264674Y-142558061D01*
X172264677Y-142558063D01*
X172515385Y-142635396D01*
X172774818Y-142674500D01*
X173037182Y-142674500D01*
X173296615Y-142635396D01*
X173547323Y-142558063D01*
X173783704Y-142444228D01*
X174000479Y-142296433D01*
X174192805Y-142117981D01*
X174356386Y-141912857D01*
X174487568Y-141685643D01*
X174583420Y-141441416D01*
X174641802Y-141185630D01*
X174641803Y-141185620D01*
X174661408Y-140924004D01*
X174661408Y-140923995D01*
X174641803Y-140662379D01*
X174641802Y-140662374D01*
X174641802Y-140662370D01*
X174583420Y-140406584D01*
X174487568Y-140162357D01*
X174356386Y-139935143D01*
X174192805Y-139730019D01*
X174192804Y-139730018D01*
X174192801Y-139730014D01*
X174186314Y-139723995D01*
X176874592Y-139723995D01*
X176874592Y-139724004D01*
X176894196Y-139985620D01*
X176894197Y-139985625D01*
X176952576Y-140241402D01*
X176952578Y-140241411D01*
X176952580Y-140241416D01*
X177048432Y-140485643D01*
X177179614Y-140712857D01*
X177311736Y-140878533D01*
X177343198Y-140917985D01*
X177510442Y-141073163D01*
X177535521Y-141096433D01*
X177752296Y-141244228D01*
X177752301Y-141244230D01*
X177752302Y-141244231D01*
X177752303Y-141244232D01*
X177846977Y-141289824D01*
X177988673Y-141358061D01*
X177988674Y-141358061D01*
X177988677Y-141358063D01*
X178239385Y-141435396D01*
X178498818Y-141474500D01*
X178761182Y-141474500D01*
X179020615Y-141435396D01*
X179271323Y-141358063D01*
X179507704Y-141244228D01*
X179724479Y-141096433D01*
X179910318Y-140924000D01*
X179916801Y-140917985D01*
X179916801Y-140917983D01*
X179916805Y-140917981D01*
X180080386Y-140712857D01*
X180211568Y-140485643D01*
X180307420Y-140241416D01*
X180365802Y-139985630D01*
X180365803Y-139985620D01*
X180385408Y-139724004D01*
X180385408Y-139723995D01*
X180365803Y-139462379D01*
X180365802Y-139462374D01*
X180365802Y-139462370D01*
X180309448Y-139215469D01*
X180307423Y-139206597D01*
X180307422Y-139206596D01*
X180307420Y-139206584D01*
X180211568Y-138962357D01*
X180080386Y-138735143D01*
X179916805Y-138530019D01*
X179916804Y-138530018D01*
X179916801Y-138530014D01*
X179724479Y-138351567D01*
X179673437Y-138316767D01*
X179507704Y-138203772D01*
X179507700Y-138203770D01*
X179507697Y-138203768D01*
X179507696Y-138203767D01*
X179271325Y-138089938D01*
X179271327Y-138089938D01*
X179020623Y-138012606D01*
X179020619Y-138012605D01*
X179020615Y-138012604D01*
X178895823Y-137993794D01*
X178761187Y-137973500D01*
X178761182Y-137973500D01*
X178498818Y-137973500D01*
X178498812Y-137973500D01*
X178346511Y-137996457D01*
X178239385Y-138012604D01*
X178239382Y-138012605D01*
X178239376Y-138012606D01*
X177988673Y-138089938D01*
X177752303Y-138203767D01*
X177752302Y-138203768D01*
X177535520Y-138351567D01*
X177343198Y-138530014D01*
X177179614Y-138735143D01*
X177048432Y-138962356D01*
X176952582Y-139206578D01*
X176952576Y-139206597D01*
X176894197Y-139462374D01*
X176894196Y-139462379D01*
X176874592Y-139723995D01*
X174186314Y-139723995D01*
X174000479Y-139551567D01*
X173783704Y-139403772D01*
X173783700Y-139403770D01*
X173783697Y-139403768D01*
X173783696Y-139403767D01*
X173547325Y-139289938D01*
X173547327Y-139289938D01*
X173296623Y-139212606D01*
X173296619Y-139212605D01*
X173296615Y-139212604D01*
X173171823Y-139193794D01*
X173037187Y-139173500D01*
X173037182Y-139173500D01*
X172774818Y-139173500D01*
X172774812Y-139173500D01*
X172613247Y-139197853D01*
X172515385Y-139212604D01*
X172515382Y-139212605D01*
X172515376Y-139212606D01*
X172264673Y-139289938D01*
X172028303Y-139403767D01*
X172028302Y-139403768D01*
X171811520Y-139551567D01*
X171619198Y-139730014D01*
X171455614Y-139935143D01*
X171324432Y-140162356D01*
X171228582Y-140406578D01*
X171228576Y-140406597D01*
X171170197Y-140662374D01*
X171170196Y-140662379D01*
X171150592Y-140923995D01*
X165686323Y-140923995D01*
X165692801Y-140917985D01*
X165692801Y-140917983D01*
X165692805Y-140917981D01*
X165856386Y-140712857D01*
X165987568Y-140485643D01*
X166083420Y-140241416D01*
X166141802Y-139985630D01*
X166141803Y-139985620D01*
X166161408Y-139724004D01*
X166161408Y-139723995D01*
X166141803Y-139462379D01*
X166141802Y-139462374D01*
X166141802Y-139462370D01*
X166085448Y-139215469D01*
X166083423Y-139206597D01*
X166083422Y-139206596D01*
X166083420Y-139206584D01*
X165987568Y-138962357D01*
X165856386Y-138735143D01*
X165692805Y-138530019D01*
X165692804Y-138530018D01*
X165692801Y-138530014D01*
X165500479Y-138351567D01*
X165449437Y-138316767D01*
X165283704Y-138203772D01*
X165283700Y-138203770D01*
X165283697Y-138203768D01*
X165283696Y-138203767D01*
X165047325Y-138089938D01*
X165047327Y-138089938D01*
X164796623Y-138012606D01*
X164796619Y-138012605D01*
X164796615Y-138012604D01*
X164671823Y-137993794D01*
X164537187Y-137973500D01*
X164537182Y-137973500D01*
X164274818Y-137973500D01*
X164274812Y-137973500D01*
X164122511Y-137996457D01*
X164015385Y-138012604D01*
X164015382Y-138012605D01*
X164015376Y-138012606D01*
X163764673Y-138089938D01*
X163528303Y-138203767D01*
X163528302Y-138203768D01*
X163311520Y-138351567D01*
X163119198Y-138530014D01*
X162955614Y-138735143D01*
X162824432Y-138962356D01*
X162728582Y-139206578D01*
X162728576Y-139206597D01*
X162670197Y-139462374D01*
X162670196Y-139462379D01*
X162650592Y-139723995D01*
X160901500Y-139723995D01*
X160901500Y-138063496D01*
X160921185Y-137996457D01*
X160937819Y-137975815D01*
X161029502Y-137884132D01*
X161090825Y-137850647D01*
X161103300Y-137848593D01*
X161147145Y-137843652D01*
X161219174Y-137835537D01*
X161393163Y-137774656D01*
X161549242Y-137676585D01*
X161679585Y-137546242D01*
X161777656Y-137390163D01*
X161838537Y-137216174D01*
X161838537Y-137216173D01*
X161838538Y-137216171D01*
X161859176Y-137033002D01*
X161859176Y-137032997D01*
X161838538Y-136849828D01*
X161789358Y-136709281D01*
X161777656Y-136675837D01*
X161679585Y-136519758D01*
X161549242Y-136389415D01*
X161464546Y-136336197D01*
X161393165Y-136291345D01*
X161393164Y-136291344D01*
X161393163Y-136291344D01*
X161351396Y-136276729D01*
X161219171Y-136230461D01*
X161036003Y-136209824D01*
X161035997Y-136209824D01*
X160852828Y-136230461D01*
X160678834Y-136291345D01*
X160522757Y-136389415D01*
X160392415Y-136519757D01*
X160294344Y-136675835D01*
X160233463Y-136849825D01*
X160233463Y-136849828D01*
X160231272Y-136869268D01*
X160204202Y-136933681D01*
X160195733Y-136943061D01*
X159873992Y-137264804D01*
X159836259Y-137302537D01*
X159786586Y-137352209D01*
X159786585Y-137352211D01*
X159717233Y-137456004D01*
X159715586Y-137460608D01*
X159670614Y-137569179D01*
X159670612Y-137569187D01*
X159646500Y-137690407D01*
X159646500Y-141674719D01*
X159626815Y-141741758D01*
X159610181Y-141762400D01*
X159161400Y-142211181D01*
X159100077Y-142244666D01*
X159073719Y-142247500D01*
X156313005Y-142247500D01*
X156245966Y-142227815D01*
X156200211Y-142175011D01*
X156190267Y-142105853D01*
X156216057Y-142046189D01*
X156322386Y-141912857D01*
X156453568Y-141685643D01*
X156549420Y-141441416D01*
X156607802Y-141185630D01*
X156607803Y-141185620D01*
X156627408Y-140924004D01*
X156627408Y-140923995D01*
X156607803Y-140662379D01*
X156607802Y-140662374D01*
X156607802Y-140662370D01*
X156549420Y-140406584D01*
X156453568Y-140162357D01*
X156322386Y-139935143D01*
X156158805Y-139730019D01*
X156158804Y-139730018D01*
X156158801Y-139730014D01*
X155966479Y-139551567D01*
X155749704Y-139403772D01*
X155749700Y-139403770D01*
X155749697Y-139403768D01*
X155749696Y-139403767D01*
X155513325Y-139289938D01*
X155513327Y-139289938D01*
X155262623Y-139212606D01*
X155262619Y-139212605D01*
X155262615Y-139212604D01*
X155137823Y-139193794D01*
X155003187Y-139173500D01*
X155003182Y-139173500D01*
X154740818Y-139173500D01*
X154740812Y-139173500D01*
X154579247Y-139197853D01*
X154481385Y-139212604D01*
X154481382Y-139212605D01*
X154481376Y-139212606D01*
X154230673Y-139289938D01*
X153994303Y-139403767D01*
X153994302Y-139403768D01*
X153777520Y-139551567D01*
X153585198Y-139730014D01*
X153421614Y-139935143D01*
X153290432Y-140162356D01*
X153194582Y-140406578D01*
X153194576Y-140406597D01*
X153136197Y-140662374D01*
X153136196Y-140662379D01*
X153116592Y-140923995D01*
X153116592Y-140924004D01*
X153136196Y-141185620D01*
X153136197Y-141185625D01*
X153194576Y-141441402D01*
X153194578Y-141441411D01*
X153194580Y-141441416D01*
X153290432Y-141685643D01*
X153421614Y-141912857D01*
X153527942Y-142046189D01*
X153554350Y-142110874D01*
X153541595Y-142179569D01*
X153493724Y-142230463D01*
X153430995Y-142247500D01*
X142089005Y-142247500D01*
X142021966Y-142227815D01*
X141976211Y-142175011D01*
X141966267Y-142105853D01*
X141992057Y-142046189D01*
X142098386Y-141912857D01*
X142229568Y-141685643D01*
X142325420Y-141441416D01*
X142383802Y-141185630D01*
X142383803Y-141185620D01*
X142403408Y-140924004D01*
X142403408Y-140923995D01*
X142383803Y-140662379D01*
X142383802Y-140662374D01*
X142383802Y-140662370D01*
X142325420Y-140406584D01*
X142229568Y-140162357D01*
X142098386Y-139935143D01*
X141934805Y-139730019D01*
X141934804Y-139730018D01*
X141934801Y-139730014D01*
X141742479Y-139551567D01*
X141525704Y-139403772D01*
X141525700Y-139403770D01*
X141525697Y-139403768D01*
X141525696Y-139403767D01*
X141289325Y-139289938D01*
X141289327Y-139289938D01*
X141038623Y-139212606D01*
X141038619Y-139212605D01*
X141038615Y-139212604D01*
X140913823Y-139193794D01*
X140779187Y-139173500D01*
X140779182Y-139173500D01*
X140516818Y-139173500D01*
X140516812Y-139173500D01*
X140355247Y-139197853D01*
X140257385Y-139212604D01*
X140257382Y-139212605D01*
X140257376Y-139212606D01*
X140006673Y-139289938D01*
X139770303Y-139403767D01*
X139770302Y-139403768D01*
X139553520Y-139551567D01*
X139361198Y-139730014D01*
X139197614Y-139935143D01*
X139066432Y-140162356D01*
X138970582Y-140406578D01*
X138970576Y-140406597D01*
X138912197Y-140662374D01*
X138912196Y-140662379D01*
X138892592Y-140923995D01*
X138892592Y-140924004D01*
X138912196Y-141185620D01*
X138912197Y-141185625D01*
X138970576Y-141441402D01*
X138970578Y-141441411D01*
X138970580Y-141441416D01*
X139066432Y-141685643D01*
X139197614Y-141912857D01*
X139303942Y-142046189D01*
X139330350Y-142110874D01*
X139317595Y-142179569D01*
X139269724Y-142230463D01*
X139206995Y-142247500D01*
X128200281Y-142247500D01*
X128133242Y-142227815D01*
X128112600Y-142211181D01*
X127807097Y-141905678D01*
X127777737Y-141858952D01*
X127741656Y-141755837D01*
X127643585Y-141599758D01*
X127513242Y-141469415D01*
X127494528Y-141457656D01*
X127357165Y-141371345D01*
X127357164Y-141371344D01*
X127357163Y-141371344D01*
X127315396Y-141356729D01*
X127183171Y-141310461D01*
X127000003Y-141289824D01*
X126999997Y-141289824D01*
X126816828Y-141310461D01*
X126642834Y-141371345D01*
X126486757Y-141469415D01*
X126356415Y-141599757D01*
X126258345Y-141755834D01*
X126197461Y-141929828D01*
X126176824Y-142112997D01*
X126176824Y-142113002D01*
X126197461Y-142296171D01*
X126243729Y-142428396D01*
X126258344Y-142470163D01*
X126356415Y-142626242D01*
X126486758Y-142756585D01*
X126642837Y-142854656D01*
X126816826Y-142915537D01*
X126816829Y-142915538D01*
X126999997Y-142936176D01*
X127006965Y-142936176D01*
X127006965Y-142938243D01*
X127065872Y-142948555D01*
X127098627Y-142972046D01*
X127401589Y-143275008D01*
X127452300Y-143325719D01*
X127488993Y-143362412D01*
X127591760Y-143431079D01*
X127591773Y-143431086D01*
X127633083Y-143448197D01*
X127633084Y-143448197D01*
X127705966Y-143478386D01*
X127827192Y-143502499D01*
X127827196Y-143502500D01*
X127827197Y-143502500D01*
X133909551Y-143502500D01*
X133976590Y-143522185D01*
X134022345Y-143574989D01*
X134032289Y-143644147D01*
X134003264Y-143707703D01*
X133968569Y-143735555D01*
X133824493Y-143813524D01*
X133628257Y-143966261D01*
X133459833Y-144149217D01*
X133323826Y-144357393D01*
X133223936Y-144585118D01*
X133162892Y-144826175D01*
X133162890Y-144826187D01*
X133142357Y-145073994D01*
X133142357Y-145074005D01*
X133162890Y-145321812D01*
X133162892Y-145321824D01*
X133223936Y-145562881D01*
X133323826Y-145790606D01*
X133459833Y-145998782D01*
X133469636Y-146009431D01*
X133628256Y-146181738D01*
X133635388Y-146187289D01*
X133676201Y-146243999D01*
X133679875Y-146313772D01*
X133645243Y-146374455D01*
X133583302Y-146406782D01*
X133559239Y-146409142D01*
X121200971Y-146410556D01*
X121133929Y-146390879D01*
X121088169Y-146338080D01*
X121078217Y-146268923D01*
X121107235Y-146205364D01*
X121124792Y-146188705D01*
X121133744Y-146181738D01*
X121302164Y-145998785D01*
X121438173Y-145790607D01*
X121538063Y-145562881D01*
X121599108Y-145321821D01*
X121599109Y-145321812D01*
X121619643Y-145074005D01*
X121619643Y-145073994D01*
X121599109Y-144826187D01*
X121599107Y-144826175D01*
X121538063Y-144585118D01*
X121438173Y-144357393D01*
X121302166Y-144149217D01*
X121263365Y-144107068D01*
X121133744Y-143966262D01*
X120937509Y-143813526D01*
X120937508Y-143813525D01*
X120937505Y-143813523D01*
X120937498Y-143813519D01*
X120806482Y-143742616D01*
X120756892Y-143693397D01*
X120741500Y-143633562D01*
X120741500Y-141599714D01*
X120761185Y-141532675D01*
X120813989Y-141486920D01*
X120883147Y-141476976D01*
X120946703Y-141506001D01*
X120980927Y-141554410D01*
X121032432Y-141685643D01*
X121163614Y-141912857D01*
X121269941Y-142046187D01*
X121327198Y-142117985D01*
X121505287Y-142283226D01*
X121519521Y-142296433D01*
X121736296Y-142444228D01*
X121736301Y-142444230D01*
X121736302Y-142444231D01*
X121736303Y-142444232D01*
X121861843Y-142504688D01*
X121972673Y-142558061D01*
X121972674Y-142558061D01*
X121972677Y-142558063D01*
X122223385Y-142635396D01*
X122482818Y-142674500D01*
X122745182Y-142674500D01*
X123004615Y-142635396D01*
X123255323Y-142558063D01*
X123491704Y-142444228D01*
X123708479Y-142296433D01*
X123900805Y-142117981D01*
X124064386Y-141912857D01*
X124195568Y-141685643D01*
X124291420Y-141441416D01*
X124349802Y-141185630D01*
X124349803Y-141185620D01*
X124369408Y-140924004D01*
X124369408Y-140923995D01*
X124349803Y-140662379D01*
X124349802Y-140662374D01*
X124349802Y-140662370D01*
X124291420Y-140406584D01*
X124195568Y-140162357D01*
X124064386Y-139935143D01*
X123900805Y-139730019D01*
X123900804Y-139730018D01*
X123900801Y-139730014D01*
X123894314Y-139723995D01*
X130392592Y-139723995D01*
X130392592Y-139724004D01*
X130412196Y-139985620D01*
X130412197Y-139985625D01*
X130470576Y-140241402D01*
X130470578Y-140241411D01*
X130470580Y-140241416D01*
X130566432Y-140485643D01*
X130697614Y-140712857D01*
X130829736Y-140878533D01*
X130861198Y-140917985D01*
X131028442Y-141073163D01*
X131053521Y-141096433D01*
X131270296Y-141244228D01*
X131270301Y-141244230D01*
X131270302Y-141244231D01*
X131270303Y-141244232D01*
X131364977Y-141289824D01*
X131506673Y-141358061D01*
X131506674Y-141358061D01*
X131506677Y-141358063D01*
X131757385Y-141435396D01*
X132016818Y-141474500D01*
X132279182Y-141474500D01*
X132538615Y-141435396D01*
X132789323Y-141358063D01*
X133025704Y-141244228D01*
X133242479Y-141096433D01*
X133428318Y-140924000D01*
X133434801Y-140917985D01*
X133434801Y-140917983D01*
X133434805Y-140917981D01*
X133598386Y-140712857D01*
X133729568Y-140485643D01*
X133825420Y-140241416D01*
X133883802Y-139985630D01*
X133883803Y-139985620D01*
X133903408Y-139724004D01*
X133903408Y-139723995D01*
X133883803Y-139462379D01*
X133883802Y-139462374D01*
X133883802Y-139462370D01*
X133827448Y-139215469D01*
X133825423Y-139206597D01*
X133825422Y-139206596D01*
X133825420Y-139206584D01*
X133729568Y-138962357D01*
X133598386Y-138735143D01*
X133434805Y-138530019D01*
X133434804Y-138530018D01*
X133434801Y-138530014D01*
X133242479Y-138351567D01*
X133191437Y-138316767D01*
X133025704Y-138203772D01*
X133025700Y-138203770D01*
X133025697Y-138203768D01*
X133025696Y-138203767D01*
X132789325Y-138089938D01*
X132789327Y-138089938D01*
X132538623Y-138012606D01*
X132538619Y-138012605D01*
X132538615Y-138012604D01*
X132413823Y-137993794D01*
X132279187Y-137973500D01*
X132279182Y-137973500D01*
X132016818Y-137973500D01*
X132016812Y-137973500D01*
X131864511Y-137996457D01*
X131757385Y-138012604D01*
X131757382Y-138012605D01*
X131757376Y-138012606D01*
X131506673Y-138089938D01*
X131270303Y-138203767D01*
X131270302Y-138203768D01*
X131053520Y-138351567D01*
X130861198Y-138530014D01*
X130697614Y-138735143D01*
X130566432Y-138962356D01*
X130470582Y-139206578D01*
X130470576Y-139206597D01*
X130412197Y-139462374D01*
X130412196Y-139462379D01*
X130392592Y-139723995D01*
X123894314Y-139723995D01*
X123708479Y-139551567D01*
X123491704Y-139403772D01*
X123491700Y-139403770D01*
X123491697Y-139403768D01*
X123491696Y-139403767D01*
X123255325Y-139289938D01*
X123255327Y-139289938D01*
X123004623Y-139212606D01*
X123004619Y-139212605D01*
X123004615Y-139212604D01*
X122879823Y-139193794D01*
X122745187Y-139173500D01*
X122745182Y-139173500D01*
X122482818Y-139173500D01*
X122482812Y-139173500D01*
X122321247Y-139197853D01*
X122223385Y-139212604D01*
X122223382Y-139212605D01*
X122223376Y-139212606D01*
X121972673Y-139289938D01*
X121736303Y-139403767D01*
X121736302Y-139403768D01*
X121519520Y-139551567D01*
X121327198Y-139730014D01*
X121163614Y-139935143D01*
X121032432Y-140162356D01*
X120980928Y-140293587D01*
X120938112Y-140348801D01*
X120872242Y-140372102D01*
X120804232Y-140356091D01*
X120755673Y-140305853D01*
X120741500Y-140248285D01*
X120741500Y-138552196D01*
X120737088Y-138530020D01*
X120737088Y-138530019D01*
X120717385Y-138430965D01*
X120684498Y-138351567D01*
X120670086Y-138316772D01*
X120670079Y-138316760D01*
X120601410Y-138213991D01*
X120601407Y-138213987D01*
X118400010Y-136012590D01*
X118356814Y-135983728D01*
X118297233Y-135943917D01*
X118297229Y-135943915D01*
X118297227Y-135943914D01*
X118297228Y-135943914D01*
X118263785Y-135930062D01*
X118183035Y-135896614D01*
X118183027Y-135896612D01*
X118061807Y-135872500D01*
X118061803Y-135872500D01*
X108824565Y-135872500D01*
X108758593Y-135853494D01*
X108607165Y-135758345D01*
X108607164Y-135758344D01*
X108607163Y-135758344D01*
X108565396Y-135743729D01*
X108433171Y-135697461D01*
X108250003Y-135676824D01*
X108249997Y-135676824D01*
X108066828Y-135697461D01*
X107892834Y-135758345D01*
X107736757Y-135856415D01*
X107606415Y-135986757D01*
X107508345Y-136142834D01*
X107447461Y-136316828D01*
X107426824Y-136499997D01*
X107426824Y-136499999D01*
X107447461Y-136683171D01*
X107489335Y-136802837D01*
X107505777Y-136849828D01*
X107508345Y-136857165D01*
X107606415Y-137013242D01*
X107736758Y-137143585D01*
X107892837Y-137241656D01*
X108025059Y-137287922D01*
X108066828Y-137302538D01*
X108249997Y-137323176D01*
X108250000Y-137323176D01*
X108250003Y-137323176D01*
X108433171Y-137302538D01*
X108433174Y-137302537D01*
X108607163Y-137241656D01*
X108758593Y-137146505D01*
X108824565Y-137127500D01*
X117688719Y-137127500D01*
X117755758Y-137147185D01*
X117776400Y-137163819D01*
X119450181Y-138837600D01*
X119483666Y-138898923D01*
X119486500Y-138925281D01*
X119486500Y-143633562D01*
X119466815Y-143700601D01*
X119421518Y-143742616D01*
X119290501Y-143813519D01*
X119290494Y-143813523D01*
X119094257Y-143966261D01*
X118925833Y-144149217D01*
X118789826Y-144357393D01*
X118689936Y-144585118D01*
X118628892Y-144826175D01*
X118628890Y-144826187D01*
X118608357Y-145073994D01*
X118608357Y-145074005D01*
X118628890Y-145321812D01*
X118628892Y-145321824D01*
X118689936Y-145562881D01*
X118789826Y-145790606D01*
X118925833Y-145998782D01*
X118935636Y-146009431D01*
X119094256Y-146181738D01*
X119094259Y-146181740D01*
X119094260Y-146181741D01*
X119103523Y-146188951D01*
X119144337Y-146245661D01*
X119148012Y-146315433D01*
X119113381Y-146376117D01*
X119051440Y-146408445D01*
X119027376Y-146410805D01*
X117700456Y-146410957D01*
X117633414Y-146391280D01*
X117587654Y-146338481D01*
X117577702Y-146269324D01*
X117606720Y-146205765D01*
X117624278Y-146189105D01*
X117633744Y-146181738D01*
X117802164Y-145998785D01*
X117938173Y-145790607D01*
X118038063Y-145562881D01*
X118099108Y-145321821D01*
X118099109Y-145321812D01*
X118119643Y-145074005D01*
X118119643Y-145073994D01*
X118099109Y-144826187D01*
X118099107Y-144826175D01*
X118038063Y-144585118D01*
X117938173Y-144357393D01*
X117802166Y-144149217D01*
X117763365Y-144107068D01*
X117633744Y-143966262D01*
X117437509Y-143813526D01*
X117437507Y-143813525D01*
X117437506Y-143813524D01*
X117218811Y-143695172D01*
X117218802Y-143695169D01*
X116983616Y-143614429D01*
X116738335Y-143573500D01*
X116489665Y-143573500D01*
X116244383Y-143614429D01*
X116009197Y-143695169D01*
X116009188Y-143695172D01*
X115790493Y-143813524D01*
X115594257Y-143966261D01*
X115425833Y-144149217D01*
X115289826Y-144357393D01*
X115189936Y-144585118D01*
X115128892Y-144826175D01*
X115128890Y-144826187D01*
X115108357Y-145073994D01*
X115108357Y-145074005D01*
X115128890Y-145321812D01*
X115128892Y-145321824D01*
X115189936Y-145562881D01*
X115289826Y-145790606D01*
X115425833Y-145998782D01*
X115435636Y-146009431D01*
X115594256Y-146181738D01*
X115604039Y-146189352D01*
X115644852Y-146246062D01*
X115648527Y-146315835D01*
X115613896Y-146376519D01*
X115551954Y-146408846D01*
X115527891Y-146411206D01*
X106974878Y-146412185D01*
X106907836Y-146392508D01*
X106862076Y-146339709D01*
X106852124Y-146270552D01*
X106881142Y-146206993D01*
X106898698Y-146190334D01*
X106909744Y-146181738D01*
X107078164Y-145998785D01*
X107214173Y-145790607D01*
X107314063Y-145562881D01*
X107375108Y-145321821D01*
X107375109Y-145321812D01*
X107395643Y-145074005D01*
X107395643Y-145073994D01*
X107375109Y-144826187D01*
X107375107Y-144826175D01*
X107314063Y-144585118D01*
X107214173Y-144357393D01*
X107078166Y-144149217D01*
X107039365Y-144107068D01*
X106909744Y-143966262D01*
X106713509Y-143813526D01*
X106713507Y-143813525D01*
X106713506Y-143813524D01*
X106494811Y-143695172D01*
X106494802Y-143695169D01*
X106259616Y-143614429D01*
X106014335Y-143573500D01*
X105765665Y-143573500D01*
X105520383Y-143614429D01*
X105285197Y-143695169D01*
X105285188Y-143695172D01*
X105066493Y-143813524D01*
X104870257Y-143966261D01*
X104701833Y-144149217D01*
X104565826Y-144357393D01*
X104465936Y-144585118D01*
X104404892Y-144826175D01*
X104404890Y-144826187D01*
X104384357Y-145073994D01*
X104384357Y-145074005D01*
X104404890Y-145321812D01*
X104404892Y-145321824D01*
X104465936Y-145562881D01*
X104565826Y-145790606D01*
X104701833Y-145998782D01*
X104711636Y-146009431D01*
X104870256Y-146181738D01*
X104877388Y-146187289D01*
X104881616Y-146190580D01*
X104922429Y-146247291D01*
X104926102Y-146317064D01*
X104891470Y-146377747D01*
X104829529Y-146410073D01*
X104805467Y-146412433D01*
X103474364Y-146412585D01*
X103407322Y-146392908D01*
X103361562Y-146340109D01*
X103351610Y-146270952D01*
X103380628Y-146207393D01*
X103398184Y-146190735D01*
X103409744Y-146181738D01*
X103578164Y-145998785D01*
X103714173Y-145790607D01*
X103814063Y-145562881D01*
X103875108Y-145321821D01*
X103875109Y-145321812D01*
X103895643Y-145074005D01*
X103895643Y-145073994D01*
X103875109Y-144826187D01*
X103875107Y-144826175D01*
X103814063Y-144585118D01*
X103714173Y-144357393D01*
X103578166Y-144149217D01*
X103539365Y-144107068D01*
X103409744Y-143966262D01*
X103213509Y-143813526D01*
X103213507Y-143813525D01*
X103213506Y-143813524D01*
X102994811Y-143695172D01*
X102994802Y-143695169D01*
X102759616Y-143614429D01*
X102514335Y-143573500D01*
X102265665Y-143573500D01*
X102020383Y-143614429D01*
X101785197Y-143695169D01*
X101785188Y-143695172D01*
X101566493Y-143813524D01*
X101370257Y-143966261D01*
X101201833Y-144149217D01*
X101065826Y-144357393D01*
X100965936Y-144585118D01*
X100904892Y-144826175D01*
X100904890Y-144826187D01*
X100884357Y-145073994D01*
X100884357Y-145074005D01*
X100904890Y-145321812D01*
X100904892Y-145321824D01*
X100965936Y-145562881D01*
X101065826Y-145790606D01*
X101201833Y-145998782D01*
X101211636Y-146009431D01*
X101370256Y-146181738D01*
X101382131Y-146190981D01*
X101422944Y-146247689D01*
X101426619Y-146317462D01*
X101391989Y-146378146D01*
X101330048Y-146410474D01*
X101305983Y-146412834D01*
X98988687Y-146413099D01*
X98978945Y-146412717D01*
X98776945Y-146396820D01*
X98757726Y-146393776D01*
X98565455Y-146347616D01*
X98546949Y-146341603D01*
X98364265Y-146265932D01*
X98346931Y-146257100D01*
X98178322Y-146153776D01*
X98162593Y-146142347D01*
X98012231Y-146013926D01*
X97998471Y-146000167D01*
X97870052Y-145849807D01*
X97858616Y-145834066D01*
X97755302Y-145665473D01*
X97746468Y-145648136D01*
X97673168Y-145471174D01*
X97670795Y-145465444D01*
X97664786Y-145446952D01*
X97618623Y-145254670D01*
X97615580Y-145235457D01*
X97614773Y-145225207D01*
X97599682Y-145033454D01*
X97599300Y-145023725D01*
X97599300Y-139723995D01*
X98134592Y-139723995D01*
X98134592Y-139724004D01*
X98154196Y-139985620D01*
X98154197Y-139985625D01*
X98212576Y-140241402D01*
X98212578Y-140241411D01*
X98212580Y-140241416D01*
X98308432Y-140485643D01*
X98439614Y-140712857D01*
X98571736Y-140878533D01*
X98603198Y-140917985D01*
X98770442Y-141073163D01*
X98795521Y-141096433D01*
X99012296Y-141244228D01*
X99012301Y-141244230D01*
X99012302Y-141244231D01*
X99012303Y-141244232D01*
X99106977Y-141289824D01*
X99248673Y-141358061D01*
X99248674Y-141358061D01*
X99248677Y-141358063D01*
X99499385Y-141435396D01*
X99758818Y-141474500D01*
X100021182Y-141474500D01*
X100280615Y-141435396D01*
X100531323Y-141358063D01*
X100767704Y-141244228D01*
X100984479Y-141096433D01*
X101170318Y-140924000D01*
X101170323Y-140923995D01*
X106634592Y-140923995D01*
X106634592Y-140924004D01*
X106654196Y-141185620D01*
X106654197Y-141185625D01*
X106712576Y-141441402D01*
X106712578Y-141441411D01*
X106712580Y-141441416D01*
X106808432Y-141685643D01*
X106939614Y-141912857D01*
X107045941Y-142046187D01*
X107103198Y-142117985D01*
X107281287Y-142283226D01*
X107295521Y-142296433D01*
X107512296Y-142444228D01*
X107512301Y-142444230D01*
X107512302Y-142444231D01*
X107512303Y-142444232D01*
X107637843Y-142504688D01*
X107748673Y-142558061D01*
X107748674Y-142558061D01*
X107748677Y-142558063D01*
X107999385Y-142635396D01*
X108258818Y-142674500D01*
X108521182Y-142674500D01*
X108780615Y-142635396D01*
X109031323Y-142558063D01*
X109267704Y-142444228D01*
X109484479Y-142296433D01*
X109676805Y-142117981D01*
X109840386Y-141912857D01*
X109971568Y-141685643D01*
X110067420Y-141441416D01*
X110125802Y-141185630D01*
X110125803Y-141185620D01*
X110145408Y-140924004D01*
X110145408Y-140923995D01*
X110125803Y-140662379D01*
X110125802Y-140662374D01*
X110125802Y-140662370D01*
X110067420Y-140406584D01*
X109971568Y-140162357D01*
X109840386Y-139935143D01*
X109676805Y-139730019D01*
X109676804Y-139730018D01*
X109676801Y-139730014D01*
X109670314Y-139723995D01*
X112358592Y-139723995D01*
X112358592Y-139724004D01*
X112378196Y-139985620D01*
X112378197Y-139985625D01*
X112436576Y-140241402D01*
X112436578Y-140241411D01*
X112436580Y-140241416D01*
X112532432Y-140485643D01*
X112663614Y-140712857D01*
X112795736Y-140878533D01*
X112827198Y-140917985D01*
X112994442Y-141073163D01*
X113019521Y-141096433D01*
X113236296Y-141244228D01*
X113236301Y-141244230D01*
X113236302Y-141244231D01*
X113236303Y-141244232D01*
X113330977Y-141289824D01*
X113472673Y-141358061D01*
X113472674Y-141358061D01*
X113472677Y-141358063D01*
X113723385Y-141435396D01*
X113982818Y-141474500D01*
X114245182Y-141474500D01*
X114504615Y-141435396D01*
X114755323Y-141358063D01*
X114991704Y-141244228D01*
X115208479Y-141096433D01*
X115394318Y-140924000D01*
X115400801Y-140917985D01*
X115400801Y-140917983D01*
X115400805Y-140917981D01*
X115564386Y-140712857D01*
X115695568Y-140485643D01*
X115791420Y-140241416D01*
X115849802Y-139985630D01*
X115849803Y-139985620D01*
X115869408Y-139724004D01*
X115869408Y-139723995D01*
X115849803Y-139462379D01*
X115849802Y-139462374D01*
X115849802Y-139462370D01*
X115793448Y-139215469D01*
X115791423Y-139206597D01*
X115791422Y-139206596D01*
X115791420Y-139206584D01*
X115695568Y-138962357D01*
X115564386Y-138735143D01*
X115400805Y-138530019D01*
X115400804Y-138530018D01*
X115400801Y-138530014D01*
X115208479Y-138351567D01*
X115157437Y-138316767D01*
X114991704Y-138203772D01*
X114991700Y-138203770D01*
X114991697Y-138203768D01*
X114991696Y-138203767D01*
X114755325Y-138089938D01*
X114755327Y-138089938D01*
X114504623Y-138012606D01*
X114504619Y-138012605D01*
X114504615Y-138012604D01*
X114379823Y-137993794D01*
X114245187Y-137973500D01*
X114245182Y-137973500D01*
X113982818Y-137973500D01*
X113982812Y-137973500D01*
X113830511Y-137996457D01*
X113723385Y-138012604D01*
X113723382Y-138012605D01*
X113723376Y-138012606D01*
X113472673Y-138089938D01*
X113236303Y-138203767D01*
X113236302Y-138203768D01*
X113019520Y-138351567D01*
X112827198Y-138530014D01*
X112663614Y-138735143D01*
X112532432Y-138962356D01*
X112436582Y-139206578D01*
X112436576Y-139206597D01*
X112378197Y-139462374D01*
X112378196Y-139462379D01*
X112358592Y-139723995D01*
X109670314Y-139723995D01*
X109484479Y-139551567D01*
X109267704Y-139403772D01*
X109267700Y-139403770D01*
X109267697Y-139403768D01*
X109267696Y-139403767D01*
X109031325Y-139289938D01*
X109031327Y-139289938D01*
X108780623Y-139212606D01*
X108780619Y-139212605D01*
X108780615Y-139212604D01*
X108655823Y-139193794D01*
X108521187Y-139173500D01*
X108521182Y-139173500D01*
X108258818Y-139173500D01*
X108258812Y-139173500D01*
X108097247Y-139197853D01*
X107999385Y-139212604D01*
X107999382Y-139212605D01*
X107999376Y-139212606D01*
X107748673Y-139289938D01*
X107512303Y-139403767D01*
X107512302Y-139403768D01*
X107295520Y-139551567D01*
X107103198Y-139730014D01*
X106939614Y-139935143D01*
X106808432Y-140162356D01*
X106712582Y-140406578D01*
X106712576Y-140406597D01*
X106654197Y-140662374D01*
X106654196Y-140662379D01*
X106634592Y-140923995D01*
X101170323Y-140923995D01*
X101176801Y-140917985D01*
X101176801Y-140917983D01*
X101176805Y-140917981D01*
X101340386Y-140712857D01*
X101471568Y-140485643D01*
X101567420Y-140241416D01*
X101625802Y-139985630D01*
X101625803Y-139985620D01*
X101645408Y-139724004D01*
X101645408Y-139723995D01*
X101625803Y-139462379D01*
X101625802Y-139462374D01*
X101625802Y-139462370D01*
X101569448Y-139215469D01*
X101567423Y-139206597D01*
X101567422Y-139206596D01*
X101567420Y-139206584D01*
X101471568Y-138962357D01*
X101340386Y-138735143D01*
X101176805Y-138530019D01*
X101176804Y-138530018D01*
X101176801Y-138530014D01*
X100984479Y-138351567D01*
X100933437Y-138316767D01*
X100767704Y-138203772D01*
X100767700Y-138203770D01*
X100767697Y-138203768D01*
X100767696Y-138203767D01*
X100531325Y-138089938D01*
X100531327Y-138089938D01*
X100280623Y-138012606D01*
X100280619Y-138012605D01*
X100280615Y-138012604D01*
X100155823Y-137993794D01*
X100021187Y-137973500D01*
X100021182Y-137973500D01*
X99758818Y-137973500D01*
X99758812Y-137973500D01*
X99606511Y-137996457D01*
X99499385Y-138012604D01*
X99499382Y-138012605D01*
X99499376Y-138012606D01*
X99248673Y-138089938D01*
X99012303Y-138203767D01*
X99012302Y-138203768D01*
X98795520Y-138351567D01*
X98603198Y-138530014D01*
X98439614Y-138735143D01*
X98308432Y-138962356D01*
X98212582Y-139206578D01*
X98212576Y-139206597D01*
X98154197Y-139462374D01*
X98154196Y-139462379D01*
X98134592Y-139723995D01*
X97599300Y-139723995D01*
X97599300Y-125221997D01*
X114111824Y-125221997D01*
X114111824Y-125222002D01*
X114132461Y-125405171D01*
X114193345Y-125579166D01*
X114288493Y-125730591D01*
X114307500Y-125796564D01*
X114307500Y-132268807D01*
X114331612Y-132390028D01*
X114331613Y-132390032D01*
X114331614Y-132390035D01*
X114343102Y-132417768D01*
X114378915Y-132504230D01*
X114378916Y-132504232D01*
X114378917Y-132504233D01*
X114440625Y-132596585D01*
X114447589Y-132607008D01*
X115717589Y-133877008D01*
X115769407Y-133928826D01*
X115804993Y-133964412D01*
X115907760Y-134033079D01*
X115907773Y-134033086D01*
X116021960Y-134080383D01*
X116021965Y-134080385D01*
X116021969Y-134080385D01*
X116021970Y-134080386D01*
X116143194Y-134104500D01*
X116143197Y-134104500D01*
X120719719Y-134104500D01*
X120786758Y-134124185D01*
X120807400Y-134140819D01*
X120820300Y-134153719D01*
X120853785Y-134215042D01*
X120855839Y-134227516D01*
X120863461Y-134295168D01*
X120924344Y-134469164D01*
X120926385Y-134472412D01*
X121022415Y-134625242D01*
X121152758Y-134755585D01*
X121308837Y-134853656D01*
X121441059Y-134899922D01*
X121482828Y-134914538D01*
X121665997Y-134935176D01*
X121666000Y-134935176D01*
X121666003Y-134935176D01*
X121849171Y-134914538D01*
X121849174Y-134914537D01*
X122023163Y-134853656D01*
X122179242Y-134755585D01*
X122309585Y-134625242D01*
X122407656Y-134469163D01*
X122468537Y-134295174D01*
X122468537Y-134295173D01*
X122468538Y-134295171D01*
X122489176Y-134112002D01*
X122489176Y-134111997D01*
X122468538Y-133928828D01*
X122450405Y-133877008D01*
X122407656Y-133754837D01*
X122309585Y-133598758D01*
X122179242Y-133468415D01*
X122160644Y-133456729D01*
X122023164Y-133370344D01*
X121849168Y-133309461D01*
X121781516Y-133301839D01*
X121717102Y-133274772D01*
X121707719Y-133266300D01*
X121431011Y-132989591D01*
X121431007Y-132989588D01*
X121328239Y-132920920D01*
X121328226Y-132920913D01*
X121272992Y-132898035D01*
X121214035Y-132873614D01*
X121214027Y-132873612D01*
X121092807Y-132849500D01*
X121092803Y-132849500D01*
X117880728Y-132849500D01*
X117813689Y-132829815D01*
X117767934Y-132777011D01*
X117757990Y-132707853D01*
X117775734Y-132659528D01*
X117808733Y-132607010D01*
X117835656Y-132564163D01*
X117896537Y-132390174D01*
X117896537Y-132390173D01*
X117896538Y-132390171D01*
X117917176Y-132207002D01*
X117917176Y-132206997D01*
X117896538Y-132023828D01*
X117869683Y-131947081D01*
X117835656Y-131849837D01*
X117737585Y-131693758D01*
X117607242Y-131563415D01*
X117606453Y-131562919D01*
X117451164Y-131465344D01*
X117277168Y-131404461D01*
X117209516Y-131396839D01*
X117145102Y-131369772D01*
X117135719Y-131361300D01*
X116387319Y-130612900D01*
X116353834Y-130551577D01*
X116351000Y-130525219D01*
X116351000Y-123979904D01*
X116370685Y-123912865D01*
X116423489Y-123867110D01*
X116461116Y-123856684D01*
X116475952Y-123855012D01*
X116551170Y-123846538D01*
X116551172Y-123846537D01*
X116551174Y-123846537D01*
X116725163Y-123785656D01*
X116881242Y-123687585D01*
X117011585Y-123557242D01*
X117109656Y-123401163D01*
X117170537Y-123227174D01*
X117170537Y-123227173D01*
X117170538Y-123227171D01*
X117178160Y-123159517D01*
X117205226Y-123095103D01*
X117213689Y-123085728D01*
X118755411Y-121544008D01*
X118824083Y-121441233D01*
X118843676Y-121393930D01*
X118871386Y-121327034D01*
X118895500Y-121205803D01*
X118895500Y-121082197D01*
X118895500Y-117718564D01*
X118914507Y-117652591D01*
X118919906Y-117644000D01*
X119009656Y-117501163D01*
X119070537Y-117327174D01*
X119070537Y-117327173D01*
X119070538Y-117327171D01*
X119091176Y-117144002D01*
X119091176Y-117143997D01*
X119070537Y-116960827D01*
X119062795Y-116938702D01*
X119038915Y-116870454D01*
X119035354Y-116800676D01*
X119070083Y-116740048D01*
X119132076Y-116707821D01*
X119155957Y-116705500D01*
X121481719Y-116705500D01*
X121548758Y-116725185D01*
X121569400Y-116741819D01*
X122145181Y-117317600D01*
X122178666Y-117378923D01*
X122181500Y-117405281D01*
X122181500Y-132776807D01*
X122205612Y-132898027D01*
X122205614Y-132898035D01*
X122239062Y-132978785D01*
X122252915Y-133012230D01*
X122296187Y-133076990D01*
X122296187Y-133076991D01*
X122321590Y-133115010D01*
X122321593Y-133115013D01*
X125773300Y-136566719D01*
X125806785Y-136628042D01*
X125808839Y-136640516D01*
X125816461Y-136708168D01*
X125877344Y-136882164D01*
X125936826Y-136976828D01*
X125975415Y-137038242D01*
X126105758Y-137168585D01*
X126261837Y-137266656D01*
X126364380Y-137302537D01*
X126435828Y-137327538D01*
X126618997Y-137348176D01*
X126619000Y-137348176D01*
X126619003Y-137348176D01*
X126802171Y-137327538D01*
X126814637Y-137323176D01*
X126976163Y-137266656D01*
X127132242Y-137168585D01*
X127262585Y-137038242D01*
X127360656Y-136882163D01*
X127421537Y-136708174D01*
X127421537Y-136708173D01*
X127421538Y-136708171D01*
X127442176Y-136525002D01*
X127442176Y-136524997D01*
X127421538Y-136341828D01*
X127403873Y-136291344D01*
X127360656Y-136167837D01*
X127262585Y-136011758D01*
X127132242Y-135881415D01*
X127087806Y-135853494D01*
X126976164Y-135783344D01*
X126802168Y-135722461D01*
X126734516Y-135714839D01*
X126670102Y-135687772D01*
X126660719Y-135679300D01*
X123472819Y-132491400D01*
X123439334Y-132430077D01*
X123436500Y-132403719D01*
X123436500Y-131952997D01*
X125414824Y-131952997D01*
X125414824Y-131953002D01*
X125435461Y-132136171D01*
X125496345Y-132310166D01*
X125591493Y-132461591D01*
X125610500Y-132527564D01*
X125610500Y-133221307D01*
X125634612Y-133342528D01*
X125634615Y-133342538D01*
X125650802Y-133381616D01*
X125681915Y-133456729D01*
X125681920Y-133456739D01*
X125750588Y-133559507D01*
X125750591Y-133559511D01*
X126576089Y-134385008D01*
X126660244Y-134469163D01*
X126663493Y-134472412D01*
X126766260Y-134541079D01*
X126766273Y-134541086D01*
X126880460Y-134588383D01*
X126880465Y-134588385D01*
X126880469Y-134588385D01*
X126880470Y-134588386D01*
X127001694Y-134612500D01*
X127001697Y-134612500D01*
X140785719Y-134612500D01*
X140852758Y-134632185D01*
X140873400Y-134648819D01*
X142846181Y-136621600D01*
X142879666Y-136682923D01*
X142882500Y-136709281D01*
X142882500Y-140141435D01*
X142863494Y-140207407D01*
X142768345Y-140358834D01*
X142707461Y-140532828D01*
X142686824Y-140715997D01*
X142686824Y-140716002D01*
X142707461Y-140899171D01*
X142768345Y-141073165D01*
X142839005Y-141185620D01*
X142866415Y-141229242D01*
X142996758Y-141359585D01*
X143152837Y-141457656D01*
X143285059Y-141503922D01*
X143326828Y-141518538D01*
X143509997Y-141539176D01*
X143510000Y-141539176D01*
X143510003Y-141539176D01*
X143693171Y-141518538D01*
X143693174Y-141518537D01*
X143867163Y-141457656D01*
X144023242Y-141359585D01*
X144153585Y-141229242D01*
X144251656Y-141073163D01*
X144312537Y-140899174D01*
X144312537Y-140899173D01*
X144312538Y-140899171D01*
X144333176Y-140716002D01*
X144333176Y-140715997D01*
X144312538Y-140532828D01*
X144296027Y-140485643D01*
X144251656Y-140358837D01*
X144156505Y-140207406D01*
X144137500Y-140141435D01*
X144137500Y-139723995D01*
X144616592Y-139723995D01*
X144616592Y-139724004D01*
X144636196Y-139985620D01*
X144636197Y-139985625D01*
X144694576Y-140241402D01*
X144694578Y-140241411D01*
X144694580Y-140241416D01*
X144790432Y-140485643D01*
X144921614Y-140712857D01*
X145053736Y-140878533D01*
X145085198Y-140917985D01*
X145252442Y-141073163D01*
X145277521Y-141096433D01*
X145494296Y-141244228D01*
X145494301Y-141244230D01*
X145494302Y-141244231D01*
X145494303Y-141244232D01*
X145588977Y-141289824D01*
X145730673Y-141358061D01*
X145730674Y-141358061D01*
X145730677Y-141358063D01*
X145981385Y-141435396D01*
X146240818Y-141474500D01*
X146503182Y-141474500D01*
X146762615Y-141435396D01*
X147013323Y-141358063D01*
X147249704Y-141244228D01*
X147466479Y-141096433D01*
X147652318Y-140924000D01*
X147658801Y-140917985D01*
X147658801Y-140917983D01*
X147658805Y-140917981D01*
X147822386Y-140712857D01*
X147953568Y-140485643D01*
X148049420Y-140241416D01*
X148107802Y-139985630D01*
X148107803Y-139985620D01*
X148127408Y-139724004D01*
X148127408Y-139723995D01*
X148107803Y-139462379D01*
X148107802Y-139462374D01*
X148107802Y-139462370D01*
X148051448Y-139215469D01*
X148049423Y-139206597D01*
X148049422Y-139206596D01*
X148049420Y-139206584D01*
X147953568Y-138962357D01*
X147822386Y-138735143D01*
X147658805Y-138530019D01*
X147658804Y-138530018D01*
X147658801Y-138530014D01*
X147466479Y-138351567D01*
X147415437Y-138316767D01*
X147249704Y-138203772D01*
X147249700Y-138203770D01*
X147249697Y-138203768D01*
X147249696Y-138203767D01*
X147013325Y-138089938D01*
X147013327Y-138089938D01*
X146762623Y-138012606D01*
X146762619Y-138012605D01*
X146762615Y-138012604D01*
X146637823Y-137993794D01*
X146503187Y-137973500D01*
X146503182Y-137973500D01*
X146240818Y-137973500D01*
X146240812Y-137973500D01*
X146088511Y-137996457D01*
X145981385Y-138012604D01*
X145981382Y-138012605D01*
X145981376Y-138012606D01*
X145730673Y-138089938D01*
X145494303Y-138203767D01*
X145494302Y-138203768D01*
X145277520Y-138351567D01*
X145085198Y-138530014D01*
X144921614Y-138735143D01*
X144790432Y-138962356D01*
X144694582Y-139206578D01*
X144694576Y-139206597D01*
X144636197Y-139462374D01*
X144636196Y-139462379D01*
X144616592Y-139723995D01*
X144137500Y-139723995D01*
X144137500Y-136336194D01*
X144113386Y-136214970D01*
X144113385Y-136214969D01*
X144113385Y-136214965D01*
X144083508Y-136142834D01*
X144066086Y-136100773D01*
X144066079Y-136100760D01*
X143997412Y-135997993D01*
X143983147Y-135983728D01*
X143910008Y-135910589D01*
X142755003Y-134755584D01*
X141497011Y-133497591D01*
X141497010Y-133497590D01*
X141439406Y-133459101D01*
X141439407Y-133459101D01*
X141439405Y-133459100D01*
X141394233Y-133428917D01*
X141394226Y-133428913D01*
X141360785Y-133415062D01*
X141280035Y-133381614D01*
X141280027Y-133381612D01*
X141158807Y-133357500D01*
X141158803Y-133357500D01*
X127374781Y-133357500D01*
X127307742Y-133337815D01*
X127287100Y-133321181D01*
X126901819Y-132935900D01*
X126868334Y-132874577D01*
X126865500Y-132848219D01*
X126865500Y-132527564D01*
X126884507Y-132461591D01*
X126912046Y-132417764D01*
X126979656Y-132310163D01*
X127040537Y-132136174D01*
X127040537Y-132136173D01*
X127040538Y-132136171D01*
X127061176Y-131953002D01*
X127061176Y-131952997D01*
X127040538Y-131769828D01*
X127013919Y-131693757D01*
X126979656Y-131595837D01*
X126881585Y-131439758D01*
X126751242Y-131309415D01*
X126595163Y-131211344D01*
X126553396Y-131196729D01*
X126421171Y-131150461D01*
X126238003Y-131129824D01*
X126237997Y-131129824D01*
X126054828Y-131150461D01*
X125880834Y-131211345D01*
X125724757Y-131309415D01*
X125594415Y-131439757D01*
X125496345Y-131595834D01*
X125435461Y-131769828D01*
X125414824Y-131952997D01*
X123436500Y-131952997D01*
X123436500Y-121743119D01*
X125511141Y-121743119D01*
X125511141Y-121743128D01*
X125531306Y-122012225D01*
X125568135Y-122173581D01*
X125591356Y-122275319D01*
X125689947Y-122526522D01*
X125824875Y-122760226D01*
X125960770Y-122930633D01*
X125993132Y-122971213D01*
X126116540Y-123085718D01*
X126190949Y-123154759D01*
X126413916Y-123306775D01*
X126657049Y-123423862D01*
X126914918Y-123503404D01*
X126914919Y-123503404D01*
X126914922Y-123503405D01*
X127181753Y-123543623D01*
X127181758Y-123543623D01*
X127181761Y-123543624D01*
X127181762Y-123543624D01*
X127451618Y-123543624D01*
X127451619Y-123543624D01*
X127451626Y-123543623D01*
X127718457Y-123503405D01*
X127718458Y-123503404D01*
X127718462Y-123503404D01*
X127976331Y-123423862D01*
X128219465Y-123306775D01*
X128442431Y-123154759D01*
X128640251Y-122971209D01*
X128808505Y-122760226D01*
X128943433Y-122526522D01*
X129042024Y-122275319D01*
X129102073Y-122012227D01*
X129122239Y-121743124D01*
X129102073Y-121474021D01*
X129042024Y-121210929D01*
X128943433Y-120959726D01*
X128808505Y-120726022D01*
X128640251Y-120515039D01*
X128640250Y-120515038D01*
X128640247Y-120515034D01*
X128442431Y-120331489D01*
X128375206Y-120285656D01*
X128219465Y-120179473D01*
X128219459Y-120179470D01*
X128219458Y-120179469D01*
X128219457Y-120179468D01*
X127976333Y-120062387D01*
X127976335Y-120062387D01*
X127718463Y-119982844D01*
X127718457Y-119982842D01*
X127451626Y-119942624D01*
X127451619Y-119942624D01*
X127181761Y-119942624D01*
X127181753Y-119942624D01*
X126914922Y-119982842D01*
X126914916Y-119982844D01*
X126657048Y-120062386D01*
X126413920Y-120179470D01*
X126190948Y-120331489D01*
X125993132Y-120515034D01*
X125824875Y-120726022D01*
X125689948Y-120959723D01*
X125689946Y-120959727D01*
X125591356Y-121210928D01*
X125591354Y-121210935D01*
X125531306Y-121474022D01*
X125511141Y-121743119D01*
X123436500Y-121743119D01*
X123436500Y-117032195D01*
X123430178Y-117000415D01*
X123422331Y-116960965D01*
X123422303Y-116960826D01*
X123412387Y-116910972D01*
X123412386Y-116910965D01*
X123367412Y-116802392D01*
X123365764Y-116797786D01*
X123296414Y-116693996D01*
X123296413Y-116693994D01*
X123290003Y-116687584D01*
X123209008Y-116606589D01*
X122803186Y-116200767D01*
X122193011Y-115590591D01*
X122193006Y-115590587D01*
X122142124Y-115556590D01*
X122142123Y-115556589D01*
X122090230Y-115521915D01*
X122090228Y-115521914D01*
X122056785Y-115508062D01*
X122037310Y-115499995D01*
X125694953Y-115499995D01*
X125694953Y-115500004D01*
X125715113Y-115769026D01*
X125715113Y-115769028D01*
X125775142Y-116032033D01*
X125775148Y-116032052D01*
X125873709Y-116283181D01*
X125873708Y-116283181D01*
X126008602Y-116516822D01*
X126062294Y-116584151D01*
X126062295Y-116584151D01*
X126563709Y-116082737D01*
X126660967Y-116216602D01*
X126783398Y-116339033D01*
X126917261Y-116436289D01*
X126414848Y-116938702D01*
X126597483Y-117063220D01*
X126597485Y-117063221D01*
X126840539Y-117180269D01*
X126840537Y-117180269D01*
X127098337Y-117259790D01*
X127098343Y-117259792D01*
X127365101Y-117299999D01*
X127365110Y-117300000D01*
X127634890Y-117300000D01*
X127634898Y-117299999D01*
X127901656Y-117259792D01*
X127901662Y-117259790D01*
X128159461Y-117180269D01*
X128402521Y-117063218D01*
X128585150Y-116938702D01*
X128082737Y-116436290D01*
X128216602Y-116339033D01*
X128339033Y-116216602D01*
X128436290Y-116082737D01*
X128937703Y-116584151D01*
X128937704Y-116584150D01*
X128991393Y-116516828D01*
X128991400Y-116516817D01*
X129126290Y-116283181D01*
X129224851Y-116032052D01*
X129224857Y-116032033D01*
X129284886Y-115769028D01*
X129284886Y-115769026D01*
X129305047Y-115500004D01*
X129305047Y-115499995D01*
X129284886Y-115230973D01*
X129284886Y-115230971D01*
X129224857Y-114967966D01*
X129224851Y-114967947D01*
X129126290Y-114716818D01*
X129126291Y-114716818D01*
X128991397Y-114483177D01*
X128937704Y-114415847D01*
X128436289Y-114917261D01*
X128339033Y-114783398D01*
X128216602Y-114660967D01*
X128082737Y-114563709D01*
X128585150Y-114061296D01*
X128402517Y-113936779D01*
X128402516Y-113936778D01*
X128159460Y-113819730D01*
X128159462Y-113819730D01*
X127901662Y-113740209D01*
X127901656Y-113740207D01*
X127634898Y-113700000D01*
X127365101Y-113700000D01*
X127098343Y-113740207D01*
X127098337Y-113740209D01*
X126840538Y-113819730D01*
X126597485Y-113936778D01*
X126597476Y-113936783D01*
X126414848Y-114061296D01*
X126917262Y-114563709D01*
X126783398Y-114660967D01*
X126660967Y-114783398D01*
X126563709Y-114917262D01*
X126062295Y-114415848D01*
X126008600Y-114483180D01*
X125873709Y-114716818D01*
X125775148Y-114967947D01*
X125775142Y-114967966D01*
X125715113Y-115230971D01*
X125715113Y-115230973D01*
X125694953Y-115499995D01*
X122037310Y-115499995D01*
X121976035Y-115474614D01*
X121976027Y-115474612D01*
X121854807Y-115450500D01*
X121854803Y-115450500D01*
X117782689Y-115450500D01*
X117715650Y-115430815D01*
X117695008Y-115414181D01*
X117681242Y-115400415D01*
X117525165Y-115302345D01*
X117525164Y-115302344D01*
X117525163Y-115302344D01*
X117483396Y-115287729D01*
X117351171Y-115241461D01*
X117168003Y-115220824D01*
X117167997Y-115220824D01*
X116984828Y-115241461D01*
X116810834Y-115302345D01*
X116654757Y-115400415D01*
X116524415Y-115530757D01*
X116426345Y-115686834D01*
X116365461Y-115860828D01*
X116344824Y-116043997D01*
X116344824Y-116044002D01*
X116365461Y-116227171D01*
X116404604Y-116339033D01*
X116426344Y-116401163D01*
X116524415Y-116557242D01*
X116654758Y-116687585D01*
X116810837Y-116785656D01*
X116943059Y-116831922D01*
X116984828Y-116846538D01*
X117167997Y-116867176D01*
X117168000Y-116867176D01*
X117168002Y-116867176D01*
X117252624Y-116857641D01*
X117325461Y-116849434D01*
X117394283Y-116861488D01*
X117445662Y-116908837D01*
X117463287Y-116976447D01*
X117462565Y-116986537D01*
X117444824Y-117143996D01*
X117444824Y-117144002D01*
X117465461Y-117327171D01*
X117526345Y-117501166D01*
X117570602Y-117571599D01*
X117616094Y-117644000D01*
X117621493Y-117652591D01*
X117640500Y-117718564D01*
X117640500Y-120832719D01*
X117620815Y-120899758D01*
X117604181Y-120920400D01*
X116562681Y-121961900D01*
X116501358Y-121995385D01*
X116431666Y-121990401D01*
X116375733Y-121948529D01*
X116351316Y-121883065D01*
X116351000Y-121874219D01*
X116351000Y-120468288D01*
X116370685Y-120401249D01*
X116423489Y-120355494D01*
X116447411Y-120347396D01*
X116451170Y-120346537D01*
X116451174Y-120346537D01*
X116625163Y-120285656D01*
X116781242Y-120187585D01*
X116911585Y-120057242D01*
X117009656Y-119901163D01*
X117070537Y-119727174D01*
X117070537Y-119727173D01*
X117070538Y-119727171D01*
X117091176Y-119544002D01*
X117091176Y-119543997D01*
X117070538Y-119360828D01*
X117052415Y-119309035D01*
X117009656Y-119186837D01*
X116911585Y-119030758D01*
X116781242Y-118900415D01*
X116780707Y-118900079D01*
X116625165Y-118802345D01*
X116625164Y-118802344D01*
X116625163Y-118802344D01*
X116583396Y-118787729D01*
X116451171Y-118741461D01*
X116268003Y-118720824D01*
X116267997Y-118720824D01*
X116084828Y-118741461D01*
X115910834Y-118802345D01*
X115754757Y-118900415D01*
X115624415Y-119030757D01*
X115526344Y-119186835D01*
X115465463Y-119360826D01*
X115457839Y-119428483D01*
X115430771Y-119492896D01*
X115422301Y-119502277D01*
X115323492Y-119601088D01*
X115323491Y-119601089D01*
X115236091Y-119688488D01*
X115236085Y-119688496D01*
X115167420Y-119791261D01*
X115167416Y-119791268D01*
X115162671Y-119802725D01*
X115162670Y-119802727D01*
X115120114Y-119905464D01*
X115120112Y-119905472D01*
X115096000Y-120026692D01*
X115096000Y-124278208D01*
X115076315Y-124345247D01*
X115023511Y-124391002D01*
X114958118Y-124401428D01*
X114935004Y-124398824D01*
X114934997Y-124398824D01*
X114751828Y-124419461D01*
X114577834Y-124480345D01*
X114421757Y-124578415D01*
X114291415Y-124708757D01*
X114193345Y-124864834D01*
X114132461Y-125038828D01*
X114111824Y-125221997D01*
X97599300Y-125221997D01*
X97599300Y-117643997D01*
X107244824Y-117643997D01*
X107244824Y-117644002D01*
X107265461Y-117827171D01*
X107311729Y-117959396D01*
X107326344Y-118001163D01*
X107424415Y-118157242D01*
X107554758Y-118287585D01*
X107710837Y-118385656D01*
X107884826Y-118446537D01*
X107884829Y-118446538D01*
X107952481Y-118454160D01*
X108016896Y-118481226D01*
X108026280Y-118489699D01*
X108367987Y-118831407D01*
X108367991Y-118831410D01*
X108470760Y-118900079D01*
X108470773Y-118900086D01*
X108584960Y-118947383D01*
X108584965Y-118947385D01*
X108584969Y-118947385D01*
X108584970Y-118947386D01*
X108706193Y-118971500D01*
X108706196Y-118971500D01*
X108706197Y-118971500D01*
X110993435Y-118971500D01*
X111059406Y-118990505D01*
X111210837Y-119085656D01*
X111358142Y-119137200D01*
X111368356Y-119140774D01*
X111425132Y-119181496D01*
X111450879Y-119246449D01*
X111437423Y-119315011D01*
X111415082Y-119345497D01*
X111254152Y-119506427D01*
X111192829Y-119539912D01*
X111188487Y-119540627D01*
X111184825Y-119541463D01*
X111010835Y-119602344D01*
X110854757Y-119700415D01*
X110724415Y-119830757D01*
X110626345Y-119986834D01*
X110565461Y-120160828D01*
X110544824Y-120343997D01*
X110544824Y-120344002D01*
X110565461Y-120527171D01*
X110611729Y-120659396D01*
X110626344Y-120701163D01*
X110724415Y-120857242D01*
X110854758Y-120987585D01*
X111010837Y-121085656D01*
X111143059Y-121131922D01*
X111184828Y-121146538D01*
X111367997Y-121167176D01*
X111368000Y-121167176D01*
X111368003Y-121167176D01*
X111551171Y-121146538D01*
X111551174Y-121146537D01*
X111725163Y-121085656D01*
X111881242Y-120987585D01*
X112011585Y-120857242D01*
X112109656Y-120701163D01*
X112170537Y-120527174D01*
X112171905Y-120515039D01*
X112186287Y-120387390D01*
X112213353Y-120322976D01*
X112221816Y-120313602D01*
X113009411Y-119526009D01*
X113078083Y-119423233D01*
X113125385Y-119309035D01*
X113133276Y-119269360D01*
X113149500Y-119187806D01*
X113149500Y-116436198D01*
X113149500Y-116436197D01*
X113142531Y-116401163D01*
X113125386Y-116314965D01*
X113080412Y-116206392D01*
X113078764Y-116201786D01*
X113009414Y-116097996D01*
X113009413Y-116097994D01*
X112987944Y-116076525D01*
X112922008Y-116010589D01*
X112913699Y-116002280D01*
X112880214Y-115940957D01*
X112878160Y-115928481D01*
X112870538Y-115860829D01*
X112809655Y-115686835D01*
X112769592Y-115623075D01*
X112711585Y-115530758D01*
X112581242Y-115400415D01*
X112425163Y-115302344D01*
X112383396Y-115287729D01*
X112251171Y-115241461D01*
X112068003Y-115220824D01*
X112067997Y-115220824D01*
X111884828Y-115241461D01*
X111710834Y-115302345D01*
X111554757Y-115400415D01*
X111424415Y-115530757D01*
X111326345Y-115686834D01*
X111265461Y-115860828D01*
X111244824Y-116043997D01*
X111244824Y-116044002D01*
X111265461Y-116227171D01*
X111304604Y-116339033D01*
X111326344Y-116401163D01*
X111424415Y-116557242D01*
X111554758Y-116687585D01*
X111614598Y-116725185D01*
X111710833Y-116785654D01*
X111710837Y-116785656D01*
X111811454Y-116820863D01*
X111868230Y-116861585D01*
X111893978Y-116926537D01*
X111894500Y-116937905D01*
X111894500Y-117418855D01*
X111874815Y-117485894D01*
X111822011Y-117531649D01*
X111756617Y-117542075D01*
X111568004Y-117520824D01*
X111567997Y-117520824D01*
X111384828Y-117541461D01*
X111210834Y-117602345D01*
X111130869Y-117652591D01*
X111060488Y-117696815D01*
X111059407Y-117697494D01*
X110993435Y-117716500D01*
X109079281Y-117716500D01*
X109012242Y-117696815D01*
X108991600Y-117680181D01*
X108913699Y-117602280D01*
X108880214Y-117540957D01*
X108878160Y-117528481D01*
X108870538Y-117460829D01*
X108814262Y-117300000D01*
X108809656Y-117286837D01*
X108792662Y-117259792D01*
X108742695Y-117180269D01*
X108711585Y-117130758D01*
X108581242Y-117000415D01*
X108518237Y-116960826D01*
X108425165Y-116902345D01*
X108425164Y-116902344D01*
X108425163Y-116902344D01*
X108383396Y-116887729D01*
X108251171Y-116841461D01*
X108068003Y-116820824D01*
X108067997Y-116820824D01*
X107884828Y-116841461D01*
X107710834Y-116902345D01*
X107554757Y-117000415D01*
X107424415Y-117130757D01*
X107326345Y-117286834D01*
X107265461Y-117460828D01*
X107244824Y-117643997D01*
X97599300Y-117643997D01*
X97599300Y-102043997D01*
X114944824Y-102043997D01*
X114944824Y-102044002D01*
X114965461Y-102227171D01*
X115026345Y-102401165D01*
X115107372Y-102530118D01*
X115126372Y-102597354D01*
X115107372Y-102662061D01*
X115063845Y-102731334D01*
X115002961Y-102905328D01*
X114982324Y-103088497D01*
X114982324Y-103088502D01*
X115002961Y-103271671D01*
X115063845Y-103445665D01*
X115145286Y-103575278D01*
X115164286Y-103642515D01*
X115145286Y-103707222D01*
X115063845Y-103836834D01*
X115002961Y-104010828D01*
X114982324Y-104193997D01*
X114982324Y-104194002D01*
X115002961Y-104377171D01*
X115063845Y-104551165D01*
X115161915Y-104707242D01*
X115185992Y-104731319D01*
X115219477Y-104792642D01*
X115214493Y-104862334D01*
X115185992Y-104906681D01*
X115161915Y-104930757D01*
X115063845Y-105086834D01*
X115002961Y-105260828D01*
X114982324Y-105443997D01*
X114982324Y-105444002D01*
X115002961Y-105627171D01*
X115049229Y-105759396D01*
X115063844Y-105801163D01*
X115161915Y-105957242D01*
X115292258Y-106087585D01*
X115448337Y-106185656D01*
X115580559Y-106231922D01*
X115622328Y-106246538D01*
X115805497Y-106267176D01*
X115805500Y-106267176D01*
X115805503Y-106267176D01*
X115988671Y-106246538D01*
X115988674Y-106246537D01*
X116162663Y-106185656D01*
X116166083Y-106183506D01*
X116168680Y-106182758D01*
X116168935Y-106182636D01*
X116168955Y-106182679D01*
X116232056Y-106164500D01*
X123725719Y-106164500D01*
X123792758Y-106184185D01*
X123813400Y-106200819D01*
X130904300Y-113291719D01*
X130937785Y-113353042D01*
X130939839Y-113365516D01*
X130947461Y-113433168D01*
X131008344Y-113607164D01*
X131008345Y-113607165D01*
X131106415Y-113763242D01*
X131236758Y-113893585D01*
X131392837Y-113991656D01*
X131525059Y-114037922D01*
X131566828Y-114052538D01*
X131749997Y-114073176D01*
X131750000Y-114073176D01*
X131750003Y-114073176D01*
X131933171Y-114052538D01*
X131933174Y-114052537D01*
X132107163Y-113991656D01*
X132263242Y-113893585D01*
X132393585Y-113763242D01*
X132491656Y-113607163D01*
X132552537Y-113433174D01*
X132552537Y-113433173D01*
X132552538Y-113433171D01*
X132573176Y-113250002D01*
X132573176Y-113249997D01*
X132552538Y-113066828D01*
X132537922Y-113025059D01*
X132491656Y-112892837D01*
X132393585Y-112736758D01*
X132393582Y-112736755D01*
X132391119Y-112733667D01*
X132390147Y-112731287D01*
X132389880Y-112730862D01*
X132389954Y-112730815D01*
X132364707Y-112668982D01*
X132377459Y-112600286D01*
X132425327Y-112549389D01*
X132493113Y-112532452D01*
X132529017Y-112539308D01*
X132566824Y-112552537D01*
X132749997Y-112573176D01*
X132750000Y-112573176D01*
X132750003Y-112573176D01*
X132933171Y-112552538D01*
X132933174Y-112552537D01*
X133107163Y-112491656D01*
X133263242Y-112393585D01*
X133393585Y-112263242D01*
X133491656Y-112107163D01*
X133552537Y-111933174D01*
X133552537Y-111933173D01*
X133552538Y-111933171D01*
X133573176Y-111750002D01*
X133573176Y-111749997D01*
X133552538Y-111566828D01*
X133531638Y-111507101D01*
X133491656Y-111392837D01*
X133393585Y-111236758D01*
X133263242Y-111106415D01*
X133107164Y-111008344D01*
X133043273Y-110985988D01*
X132934824Y-110948040D01*
X132888100Y-110918681D01*
X125897100Y-103927681D01*
X125863615Y-103866358D01*
X125868599Y-103796666D01*
X125910471Y-103740733D01*
X125975935Y-103716316D01*
X125984781Y-103716000D01*
X126777219Y-103716000D01*
X126844258Y-103735685D01*
X126864900Y-103752319D01*
X133279300Y-110166719D01*
X133312785Y-110228042D01*
X133314839Y-110240516D01*
X133322461Y-110308168D01*
X133383344Y-110482164D01*
X133481415Y-110638242D01*
X133611758Y-110768585D01*
X133767837Y-110866656D01*
X133900059Y-110912922D01*
X133941828Y-110927538D01*
X134124997Y-110948176D01*
X134125000Y-110948176D01*
X134125003Y-110948176D01*
X134308171Y-110927538D01*
X134308174Y-110927537D01*
X134482163Y-110866656D01*
X134638242Y-110768585D01*
X134768585Y-110638242D01*
X134861735Y-110489995D01*
X161389451Y-110489995D01*
X161389451Y-110490004D01*
X161409616Y-110759101D01*
X161469664Y-111022188D01*
X161469666Y-111022195D01*
X161568257Y-111273398D01*
X161703185Y-111507102D01*
X161839080Y-111677509D01*
X161871442Y-111718089D01*
X162058183Y-111891358D01*
X162069259Y-111901635D01*
X162292226Y-112053651D01*
X162535359Y-112170738D01*
X162793228Y-112250280D01*
X162793229Y-112250280D01*
X162793232Y-112250281D01*
X163060063Y-112290499D01*
X163060068Y-112290499D01*
X163060071Y-112290500D01*
X163060072Y-112290500D01*
X163329928Y-112290500D01*
X163329929Y-112290500D01*
X163329936Y-112290499D01*
X163596767Y-112250281D01*
X163596768Y-112250280D01*
X163596772Y-112250280D01*
X163854641Y-112170738D01*
X164097775Y-112053651D01*
X164320741Y-111901635D01*
X164518561Y-111718085D01*
X164686815Y-111507102D01*
X164821743Y-111273398D01*
X164920334Y-111022195D01*
X164980383Y-110759103D01*
X165000549Y-110490000D01*
X165000549Y-110489995D01*
X166469451Y-110489995D01*
X166469451Y-110490004D01*
X166489616Y-110759101D01*
X166549664Y-111022188D01*
X166549666Y-111022195D01*
X166648257Y-111273398D01*
X166783185Y-111507102D01*
X166919080Y-111677509D01*
X166951442Y-111718089D01*
X167138183Y-111891358D01*
X167149259Y-111901635D01*
X167372226Y-112053651D01*
X167615359Y-112170738D01*
X167873228Y-112250280D01*
X167873229Y-112250280D01*
X167873232Y-112250281D01*
X168140063Y-112290499D01*
X168140068Y-112290499D01*
X168140071Y-112290500D01*
X168140072Y-112290500D01*
X168409928Y-112290500D01*
X168409929Y-112290500D01*
X168409936Y-112290499D01*
X168676767Y-112250281D01*
X168676768Y-112250280D01*
X168676772Y-112250280D01*
X168934641Y-112170738D01*
X169177775Y-112053651D01*
X169400741Y-111901635D01*
X169598561Y-111718085D01*
X169766815Y-111507102D01*
X169901743Y-111273398D01*
X170000334Y-111022195D01*
X170060383Y-110759103D01*
X170080549Y-110490000D01*
X170060383Y-110220897D01*
X170000334Y-109957805D01*
X169901743Y-109706602D01*
X169766815Y-109472898D01*
X169598561Y-109261915D01*
X169598560Y-109261914D01*
X169598557Y-109261910D01*
X169400741Y-109078365D01*
X169356462Y-109048176D01*
X169177775Y-108926349D01*
X169177769Y-108926346D01*
X169177768Y-108926345D01*
X169177767Y-108926344D01*
X168934643Y-108809263D01*
X168934645Y-108809263D01*
X168676773Y-108729720D01*
X168676767Y-108729718D01*
X168409936Y-108689500D01*
X168409929Y-108689500D01*
X168140071Y-108689500D01*
X168140063Y-108689500D01*
X167873232Y-108729718D01*
X167873226Y-108729720D01*
X167615358Y-108809262D01*
X167372230Y-108926346D01*
X167149258Y-109078365D01*
X166951442Y-109261910D01*
X166783185Y-109472898D01*
X166648258Y-109706599D01*
X166648256Y-109706603D01*
X166549666Y-109957804D01*
X166549664Y-109957811D01*
X166489616Y-110220898D01*
X166469451Y-110489995D01*
X165000549Y-110489995D01*
X164980383Y-110220897D01*
X164920334Y-109957805D01*
X164821743Y-109706602D01*
X164686815Y-109472898D01*
X164518561Y-109261915D01*
X164518560Y-109261914D01*
X164518557Y-109261910D01*
X164320741Y-109078365D01*
X164276462Y-109048176D01*
X164097775Y-108926349D01*
X164097769Y-108926346D01*
X164097768Y-108926345D01*
X164097767Y-108926344D01*
X163854643Y-108809263D01*
X163854645Y-108809263D01*
X163596773Y-108729720D01*
X163596767Y-108729718D01*
X163329936Y-108689500D01*
X163329929Y-108689500D01*
X163060071Y-108689500D01*
X163060063Y-108689500D01*
X162793232Y-108729718D01*
X162793226Y-108729720D01*
X162535358Y-108809262D01*
X162292230Y-108926346D01*
X162069258Y-109078365D01*
X161871442Y-109261910D01*
X161703185Y-109472898D01*
X161568258Y-109706599D01*
X161568256Y-109706603D01*
X161469666Y-109957804D01*
X161469664Y-109957811D01*
X161409616Y-110220898D01*
X161389451Y-110489995D01*
X134861735Y-110489995D01*
X134866656Y-110482163D01*
X134927537Y-110308174D01*
X134927537Y-110308173D01*
X134927538Y-110308171D01*
X134948176Y-110125002D01*
X134948176Y-110124997D01*
X134927538Y-109941828D01*
X134912922Y-109900059D01*
X134866656Y-109767837D01*
X134768585Y-109611758D01*
X134638242Y-109481415D01*
X134624687Y-109472898D01*
X134482164Y-109383344D01*
X134308168Y-109322461D01*
X134240516Y-109314839D01*
X134176102Y-109287772D01*
X134166719Y-109279300D01*
X127834600Y-102947181D01*
X127801115Y-102885858D01*
X127806099Y-102816166D01*
X127847971Y-102760233D01*
X127913435Y-102735816D01*
X127922281Y-102735500D01*
X129096719Y-102735500D01*
X129163758Y-102755185D01*
X129184400Y-102771819D01*
X134679300Y-108266719D01*
X134712785Y-108328042D01*
X134714839Y-108340516D01*
X134722461Y-108408168D01*
X134783344Y-108582164D01*
X134783345Y-108582165D01*
X134881415Y-108738242D01*
X135011758Y-108868585D01*
X135167837Y-108966656D01*
X135300059Y-109012922D01*
X135341828Y-109027538D01*
X135524997Y-109048176D01*
X135525000Y-109048176D01*
X135525003Y-109048176D01*
X135708171Y-109027538D01*
X135708174Y-109027537D01*
X135882163Y-108966656D01*
X136038242Y-108868585D01*
X136168585Y-108738242D01*
X136266656Y-108582163D01*
X136327537Y-108408174D01*
X136327537Y-108408173D01*
X136327538Y-108408171D01*
X136348176Y-108225002D01*
X136348176Y-108224997D01*
X136327538Y-108041828D01*
X136312922Y-108000059D01*
X136266656Y-107867837D01*
X136168585Y-107711758D01*
X136038242Y-107581415D01*
X135882164Y-107483344D01*
X135708168Y-107422461D01*
X135640516Y-107414839D01*
X135576102Y-107387772D01*
X135566719Y-107379300D01*
X129808011Y-101620591D01*
X129808007Y-101620588D01*
X129705239Y-101551920D01*
X129705226Y-101551913D01*
X129671785Y-101538062D01*
X129591035Y-101504614D01*
X129591027Y-101504612D01*
X129469807Y-101480500D01*
X129469803Y-101480500D01*
X116412689Y-101480500D01*
X116345650Y-101460815D01*
X116325008Y-101444181D01*
X116281242Y-101400415D01*
X116125165Y-101302345D01*
X116125164Y-101302344D01*
X116125163Y-101302344D01*
X116083396Y-101287729D01*
X115951171Y-101241461D01*
X115768003Y-101220824D01*
X115767997Y-101220824D01*
X115584828Y-101241461D01*
X115410834Y-101302345D01*
X115254757Y-101400415D01*
X115124415Y-101530757D01*
X115026345Y-101686834D01*
X114965461Y-101860828D01*
X114944824Y-102043997D01*
X97599300Y-102043997D01*
X97599300Y-95806594D01*
X174948970Y-95806594D01*
X174948970Y-95806605D01*
X174968854Y-96046572D01*
X174968854Y-96046575D01*
X174968855Y-96046576D01*
X175027967Y-96280005D01*
X175124695Y-96500522D01*
X175256399Y-96702110D01*
X175419487Y-96879271D01*
X175609511Y-97027172D01*
X175821286Y-97141779D01*
X175900450Y-97168956D01*
X176049033Y-97219965D01*
X176049035Y-97219965D01*
X176049037Y-97219966D01*
X176286551Y-97259600D01*
X176286552Y-97259600D01*
X176396318Y-97259600D01*
X176463357Y-97279285D01*
X176509112Y-97332089D01*
X176519056Y-97401247D01*
X176490031Y-97464803D01*
X176467445Y-97485172D01*
X176338721Y-97575306D01*
X176338719Y-97575307D01*
X176338716Y-97575310D01*
X176185661Y-97728365D01*
X176061496Y-97905689D01*
X175970017Y-98101868D01*
X175970013Y-98101877D01*
X175913992Y-98310953D01*
X175913990Y-98310964D01*
X175895125Y-98526598D01*
X175895125Y-98526601D01*
X175913990Y-98742235D01*
X175913992Y-98742246D01*
X175970013Y-98951322D01*
X175970015Y-98951326D01*
X175970016Y-98951330D01*
X176013040Y-99043596D01*
X176061496Y-99147510D01*
X176061497Y-99147512D01*
X176061498Y-99147513D01*
X176185657Y-99324830D01*
X176338721Y-99477894D01*
X176467443Y-99568026D01*
X176511067Y-99622603D01*
X176518259Y-99692101D01*
X176486737Y-99754456D01*
X176426507Y-99789869D01*
X176396318Y-99793600D01*
X176286551Y-99793600D01*
X176239048Y-99801526D01*
X176049033Y-99833234D01*
X175821293Y-99911418D01*
X175821284Y-99911421D01*
X175609508Y-100026029D01*
X175475406Y-100130405D01*
X175419487Y-100173929D01*
X175419484Y-100173931D01*
X175419484Y-100173932D01*
X175256399Y-100351090D01*
X175124693Y-100552681D01*
X175027967Y-100773194D01*
X174968854Y-101006627D01*
X174948970Y-101246594D01*
X174948970Y-101246605D01*
X174968854Y-101486572D01*
X174968854Y-101486575D01*
X174968855Y-101486576D01*
X175027967Y-101720005D01*
X175124695Y-101940522D01*
X175256399Y-102142110D01*
X175419487Y-102319271D01*
X175609511Y-102467172D01*
X175821286Y-102581779D01*
X175939548Y-102622378D01*
X176049033Y-102659965D01*
X176049035Y-102659965D01*
X176049037Y-102659966D01*
X176286551Y-102699600D01*
X176286552Y-102699600D01*
X176527348Y-102699600D01*
X176527349Y-102699600D01*
X176764863Y-102659966D01*
X176992614Y-102581779D01*
X177204389Y-102467172D01*
X177394413Y-102319271D01*
X177557501Y-102142110D01*
X177689205Y-101940522D01*
X177785933Y-101720005D01*
X177845045Y-101486576D01*
X177864930Y-101246600D01*
X177864504Y-101241463D01*
X177845045Y-101006627D01*
X177845045Y-101006624D01*
X177785933Y-100773195D01*
X177689205Y-100552678D01*
X177557501Y-100351090D01*
X177394413Y-100173929D01*
X177260308Y-100069551D01*
X177204391Y-100026029D01*
X177148497Y-99995781D01*
X177098907Y-99946561D01*
X177083799Y-99878345D01*
X177107969Y-99812789D01*
X177163745Y-99770708D01*
X177196708Y-99763198D01*
X177202558Y-99762686D01*
X177352592Y-99749560D01*
X177561681Y-99693535D01*
X177757864Y-99602053D01*
X177935181Y-99477894D01*
X178049272Y-99363802D01*
X178110591Y-99330320D01*
X178180283Y-99335304D01*
X178224631Y-99363805D01*
X178338720Y-99477894D01*
X178516037Y-99602053D01*
X178712220Y-99693535D01*
X178921309Y-99749560D01*
X179075338Y-99763035D01*
X179136948Y-99768426D01*
X179136950Y-99768426D01*
X179136952Y-99768426D01*
X179196707Y-99763198D01*
X179352591Y-99749560D01*
X179561680Y-99693535D01*
X179757863Y-99602053D01*
X179935180Y-99477894D01*
X180049272Y-99363801D01*
X180110591Y-99330319D01*
X180180283Y-99335303D01*
X180224631Y-99363804D01*
X180338721Y-99477894D01*
X180516038Y-99602053D01*
X180712221Y-99693535D01*
X180921310Y-99749560D01*
X181075339Y-99763035D01*
X181136949Y-99768426D01*
X181136951Y-99768426D01*
X181136953Y-99768426D01*
X181196708Y-99763198D01*
X181352592Y-99749560D01*
X181561681Y-99693535D01*
X181757864Y-99602053D01*
X181935181Y-99477894D01*
X182049269Y-99363806D01*
X182110592Y-99330321D01*
X182180284Y-99335305D01*
X182224631Y-99363806D01*
X182338719Y-99477894D01*
X182516036Y-99602053D01*
X182712219Y-99693535D01*
X182712225Y-99693536D01*
X182712226Y-99693537D01*
X182753633Y-99704632D01*
X182813294Y-99740997D01*
X182843823Y-99803844D01*
X182835528Y-99873219D01*
X182791043Y-99927097D01*
X182780558Y-99933462D01*
X182609509Y-100026029D01*
X182475407Y-100130405D01*
X182419488Y-100173929D01*
X182419485Y-100173931D01*
X182419485Y-100173932D01*
X182256400Y-100351090D01*
X182124694Y-100552681D01*
X182027968Y-100773194D01*
X181968855Y-101006627D01*
X181948971Y-101246594D01*
X181948971Y-101246605D01*
X181968855Y-101486572D01*
X181968855Y-101486575D01*
X181968856Y-101486576D01*
X182027968Y-101720005D01*
X182124696Y-101940522D01*
X182256400Y-102142110D01*
X182419488Y-102319271D01*
X182609512Y-102467172D01*
X182821287Y-102581779D01*
X182939549Y-102622378D01*
X183049034Y-102659965D01*
X183049036Y-102659965D01*
X183049038Y-102659966D01*
X183286552Y-102699600D01*
X183286553Y-102699600D01*
X183527349Y-102699600D01*
X183527350Y-102699600D01*
X183764864Y-102659966D01*
X183992615Y-102581779D01*
X184204390Y-102467172D01*
X184394414Y-102319271D01*
X184557502Y-102142110D01*
X184689206Y-101940522D01*
X184785934Y-101720005D01*
X184845046Y-101486576D01*
X184864931Y-101246600D01*
X184864505Y-101241463D01*
X184845046Y-101006627D01*
X184845046Y-101006624D01*
X184785934Y-100773195D01*
X184689206Y-100552678D01*
X184557502Y-100351090D01*
X184394414Y-100173929D01*
X184260309Y-100069551D01*
X184204392Y-100026029D01*
X183992616Y-99911421D01*
X183992607Y-99911418D01*
X183765950Y-99833606D01*
X183708935Y-99793220D01*
X183682804Y-99728421D01*
X183695856Y-99659781D01*
X183743944Y-99609093D01*
X183753802Y-99603945D01*
X183757862Y-99602053D01*
X183935179Y-99477894D01*
X184088243Y-99324830D01*
X184212402Y-99147513D01*
X184303884Y-98951330D01*
X184359909Y-98742241D01*
X184378775Y-98526600D01*
X184359909Y-98310959D01*
X184303884Y-98101870D01*
X184212402Y-97905687D01*
X184088243Y-97728370D01*
X183935179Y-97575306D01*
X183757862Y-97451147D01*
X183757858Y-97451145D01*
X183757857Y-97451144D01*
X183757858Y-97451144D01*
X183753804Y-97449254D01*
X183701366Y-97403080D01*
X183682217Y-97335886D01*
X183702435Y-97269005D01*
X183755602Y-97223673D01*
X183765951Y-97219593D01*
X183992604Y-97141783D01*
X183992607Y-97141781D01*
X183992615Y-97141779D01*
X184204390Y-97027172D01*
X184394414Y-96879271D01*
X184557502Y-96702110D01*
X184689206Y-96500522D01*
X184785934Y-96280005D01*
X184845046Y-96046576D01*
X184864931Y-95806600D01*
X184845046Y-95566624D01*
X184785934Y-95333195D01*
X184689206Y-95112678D01*
X184557502Y-94911090D01*
X184394414Y-94733929D01*
X184260309Y-94629551D01*
X184204392Y-94586029D01*
X183992616Y-94471421D01*
X183992607Y-94471418D01*
X183764867Y-94393234D01*
X183586728Y-94363508D01*
X183527350Y-94353600D01*
X183286552Y-94353600D01*
X183239049Y-94361526D01*
X183049034Y-94393234D01*
X182821294Y-94471418D01*
X182821285Y-94471421D01*
X182609509Y-94586029D01*
X182475407Y-94690405D01*
X182419488Y-94733929D01*
X182419485Y-94733931D01*
X182419485Y-94733932D01*
X182256400Y-94911090D01*
X182124694Y-95112681D01*
X182027968Y-95333194D01*
X181968855Y-95566627D01*
X181948971Y-95806594D01*
X181948971Y-95806605D01*
X181968855Y-96046572D01*
X181968855Y-96046575D01*
X181968856Y-96046576D01*
X182027968Y-96280005D01*
X182124696Y-96500522D01*
X182256400Y-96702110D01*
X182419488Y-96879271D01*
X182609512Y-97027172D01*
X182780557Y-97119737D01*
X182830148Y-97168956D01*
X182845256Y-97237173D01*
X182821086Y-97302729D01*
X182765310Y-97344810D01*
X182753635Y-97348566D01*
X182712232Y-97359660D01*
X182712217Y-97359666D01*
X182516038Y-97451145D01*
X182496533Y-97464803D01*
X182338719Y-97575306D01*
X182338717Y-97575307D01*
X182338714Y-97575310D01*
X182224631Y-97689394D01*
X182163308Y-97722879D01*
X182093616Y-97717895D01*
X182049269Y-97689394D01*
X181935185Y-97575310D01*
X181935181Y-97575306D01*
X181757864Y-97451147D01*
X181757863Y-97451146D01*
X181757861Y-97451145D01*
X181653947Y-97402689D01*
X181561681Y-97359665D01*
X181561677Y-97359664D01*
X181561673Y-97359662D01*
X181352597Y-97303641D01*
X181352593Y-97303640D01*
X181352592Y-97303640D01*
X181352591Y-97303639D01*
X181352586Y-97303639D01*
X181136953Y-97284774D01*
X181136949Y-97284774D01*
X180921315Y-97303639D01*
X180921304Y-97303641D01*
X180712228Y-97359662D01*
X180712219Y-97359666D01*
X180516040Y-97451145D01*
X180338720Y-97575307D01*
X180224631Y-97689396D01*
X180163308Y-97722880D01*
X180093616Y-97717896D01*
X180049269Y-97689395D01*
X179935184Y-97575310D01*
X179935180Y-97575306D01*
X179757863Y-97451147D01*
X179757862Y-97451146D01*
X179757860Y-97451145D01*
X179653946Y-97402689D01*
X179561680Y-97359665D01*
X179561676Y-97359664D01*
X179561672Y-97359662D01*
X179352596Y-97303641D01*
X179352592Y-97303640D01*
X179352591Y-97303640D01*
X179352590Y-97303639D01*
X179352585Y-97303639D01*
X179136952Y-97284774D01*
X179136948Y-97284774D01*
X178921314Y-97303639D01*
X178921303Y-97303641D01*
X178712227Y-97359662D01*
X178712218Y-97359666D01*
X178516039Y-97451145D01*
X178338719Y-97575307D01*
X178224631Y-97689395D01*
X178163308Y-97722879D01*
X178093616Y-97717895D01*
X178049269Y-97689394D01*
X177935185Y-97575310D01*
X177935181Y-97575306D01*
X177757864Y-97451147D01*
X177757863Y-97451146D01*
X177757861Y-97451145D01*
X177653947Y-97402689D01*
X177561681Y-97359665D01*
X177561677Y-97359664D01*
X177561673Y-97359662D01*
X177352597Y-97303641D01*
X177352587Y-97303639D01*
X177196707Y-97290001D01*
X177131638Y-97264548D01*
X177090660Y-97207957D01*
X177086782Y-97138195D01*
X177121236Y-97077411D01*
X177148499Y-97057418D01*
X177204382Y-97027176D01*
X177204383Y-97027174D01*
X177204389Y-97027172D01*
X177394413Y-96879271D01*
X177557501Y-96702110D01*
X177689205Y-96500522D01*
X177785933Y-96280005D01*
X177845045Y-96046576D01*
X177864930Y-95806600D01*
X177845045Y-95566624D01*
X177785933Y-95333195D01*
X177689205Y-95112678D01*
X177557501Y-94911090D01*
X177394413Y-94733929D01*
X177260308Y-94629551D01*
X177204391Y-94586029D01*
X176992615Y-94471421D01*
X176992606Y-94471418D01*
X176764866Y-94393234D01*
X176586727Y-94363508D01*
X176527349Y-94353600D01*
X176286551Y-94353600D01*
X176239048Y-94361526D01*
X176049033Y-94393234D01*
X175821293Y-94471418D01*
X175821284Y-94471421D01*
X175609508Y-94586029D01*
X175475406Y-94690405D01*
X175419487Y-94733929D01*
X175419484Y-94733931D01*
X175419484Y-94733932D01*
X175256399Y-94911090D01*
X175124693Y-95112681D01*
X175027967Y-95333194D01*
X174968854Y-95566627D01*
X174948970Y-95806594D01*
X97599300Y-95806594D01*
X97599300Y-91923995D01*
X98134592Y-91923995D01*
X98134592Y-91924004D01*
X98154196Y-92185620D01*
X98154197Y-92185625D01*
X98212576Y-92441402D01*
X98212578Y-92441411D01*
X98212580Y-92441416D01*
X98308432Y-92685643D01*
X98439614Y-92912857D01*
X98571736Y-93078533D01*
X98603198Y-93117985D01*
X98784753Y-93286441D01*
X98795521Y-93296433D01*
X99012296Y-93444228D01*
X99012301Y-93444230D01*
X99012302Y-93444231D01*
X99012303Y-93444232D01*
X99137843Y-93504688D01*
X99248673Y-93558061D01*
X99248674Y-93558061D01*
X99248677Y-93558063D01*
X99499385Y-93635396D01*
X99758818Y-93674500D01*
X100021182Y-93674500D01*
X100280615Y-93635396D01*
X100531323Y-93558063D01*
X100767704Y-93444228D01*
X100984479Y-93296433D01*
X101176805Y-93117981D01*
X101340386Y-92912857D01*
X101471568Y-92685643D01*
X101567420Y-92441416D01*
X101625802Y-92185630D01*
X101625803Y-92185620D01*
X101645408Y-91924004D01*
X101645408Y-91923995D01*
X101625803Y-91662379D01*
X101625802Y-91662374D01*
X101625802Y-91662370D01*
X101567420Y-91406584D01*
X101471568Y-91162357D01*
X101340386Y-90935143D01*
X101176805Y-90730019D01*
X101176804Y-90730018D01*
X101176801Y-90730014D01*
X101170314Y-90723995D01*
X106634592Y-90723995D01*
X106634592Y-90724004D01*
X106654196Y-90985620D01*
X106654197Y-90985625D01*
X106712576Y-91241402D01*
X106712578Y-91241411D01*
X106712580Y-91241416D01*
X106808432Y-91485643D01*
X106939614Y-91712857D01*
X107071736Y-91878533D01*
X107103198Y-91917985D01*
X107284753Y-92086441D01*
X107295521Y-92096433D01*
X107512296Y-92244228D01*
X107512301Y-92244230D01*
X107512302Y-92244231D01*
X107512303Y-92244232D01*
X107637843Y-92304688D01*
X107748673Y-92358061D01*
X107748674Y-92358061D01*
X107748677Y-92358063D01*
X107999385Y-92435396D01*
X108258818Y-92474500D01*
X108521182Y-92474500D01*
X108780615Y-92435396D01*
X109031323Y-92358063D01*
X109267704Y-92244228D01*
X109484479Y-92096433D01*
X109670318Y-91924000D01*
X109670323Y-91923995D01*
X112358592Y-91923995D01*
X112358592Y-91924004D01*
X112378196Y-92185620D01*
X112378197Y-92185625D01*
X112436576Y-92441402D01*
X112436578Y-92441411D01*
X112436580Y-92441416D01*
X112532432Y-92685643D01*
X112663614Y-92912857D01*
X112795736Y-93078533D01*
X112827198Y-93117985D01*
X113008753Y-93286441D01*
X113019521Y-93296433D01*
X113236296Y-93444228D01*
X113236301Y-93444230D01*
X113236302Y-93444231D01*
X113236303Y-93444232D01*
X113361843Y-93504688D01*
X113472673Y-93558061D01*
X113472674Y-93558061D01*
X113472677Y-93558063D01*
X113723385Y-93635396D01*
X113982818Y-93674500D01*
X114245182Y-93674500D01*
X114504615Y-93635396D01*
X114755323Y-93558063D01*
X114991704Y-93444228D01*
X115208479Y-93296433D01*
X115400805Y-93117981D01*
X115564386Y-92912857D01*
X115695568Y-92685643D01*
X115791420Y-92441416D01*
X115849802Y-92185630D01*
X115849803Y-92185620D01*
X115869408Y-91924004D01*
X115869408Y-91923995D01*
X115849803Y-91662379D01*
X115849802Y-91662374D01*
X115849802Y-91662370D01*
X115791420Y-91406584D01*
X115695568Y-91162357D01*
X115564386Y-90935143D01*
X115400805Y-90730019D01*
X115400804Y-90730018D01*
X115400801Y-90730014D01*
X115394314Y-90723995D01*
X120858592Y-90723995D01*
X120858592Y-90724004D01*
X120878196Y-90985620D01*
X120878197Y-90985625D01*
X120936576Y-91241402D01*
X120936578Y-91241411D01*
X120936580Y-91241416D01*
X121032432Y-91485643D01*
X121163614Y-91712857D01*
X121295736Y-91878533D01*
X121327198Y-91917985D01*
X121508753Y-92086441D01*
X121519521Y-92096433D01*
X121736296Y-92244228D01*
X121736301Y-92244230D01*
X121736302Y-92244231D01*
X121736303Y-92244232D01*
X121861843Y-92304688D01*
X121972673Y-92358061D01*
X121972674Y-92358061D01*
X121972677Y-92358063D01*
X122223385Y-92435396D01*
X122482818Y-92474500D01*
X122745182Y-92474500D01*
X123004615Y-92435396D01*
X123255323Y-92358063D01*
X123491704Y-92244228D01*
X123708479Y-92096433D01*
X123894318Y-91924000D01*
X123894323Y-91923995D01*
X130392592Y-91923995D01*
X130392592Y-91924004D01*
X130412196Y-92185620D01*
X130412197Y-92185625D01*
X130470576Y-92441402D01*
X130470578Y-92441411D01*
X130470580Y-92441416D01*
X130566432Y-92685643D01*
X130697614Y-92912857D01*
X130829736Y-93078533D01*
X130861198Y-93117985D01*
X131042753Y-93286441D01*
X131053521Y-93296433D01*
X131270296Y-93444228D01*
X131270301Y-93444230D01*
X131270302Y-93444231D01*
X131270303Y-93444232D01*
X131395843Y-93504688D01*
X131506673Y-93558061D01*
X131506674Y-93558061D01*
X131506677Y-93558063D01*
X131757385Y-93635396D01*
X132016818Y-93674500D01*
X132279182Y-93674500D01*
X132538615Y-93635396D01*
X132789323Y-93558063D01*
X133025704Y-93444228D01*
X133242479Y-93296433D01*
X133434805Y-93117981D01*
X133598386Y-92912857D01*
X133729568Y-92685643D01*
X133825420Y-92441416D01*
X133883802Y-92185630D01*
X133883803Y-92185620D01*
X133903408Y-91924004D01*
X133903408Y-91923995D01*
X133883803Y-91662379D01*
X133883802Y-91662374D01*
X133883802Y-91662370D01*
X133825420Y-91406584D01*
X133729568Y-91162357D01*
X133598386Y-90935143D01*
X133434805Y-90730019D01*
X133434804Y-90730018D01*
X133434801Y-90730014D01*
X133428314Y-90723995D01*
X138892592Y-90723995D01*
X138892592Y-90724004D01*
X138912196Y-90985620D01*
X138912197Y-90985625D01*
X138970576Y-91241402D01*
X138970578Y-91241411D01*
X138970580Y-91241416D01*
X139066432Y-91485643D01*
X139197614Y-91712857D01*
X139329736Y-91878533D01*
X139361198Y-91917985D01*
X139542753Y-92086441D01*
X139553521Y-92096433D01*
X139770296Y-92244228D01*
X139770301Y-92244230D01*
X139770302Y-92244231D01*
X139770303Y-92244232D01*
X139895843Y-92304688D01*
X140006673Y-92358061D01*
X140006674Y-92358061D01*
X140006677Y-92358063D01*
X140257385Y-92435396D01*
X140516818Y-92474500D01*
X140779182Y-92474500D01*
X141038615Y-92435396D01*
X141289323Y-92358063D01*
X141525704Y-92244228D01*
X141742479Y-92096433D01*
X141928318Y-91924000D01*
X141928323Y-91923995D01*
X144616592Y-91923995D01*
X144616592Y-91924004D01*
X144636196Y-92185620D01*
X144636197Y-92185625D01*
X144694576Y-92441402D01*
X144694578Y-92441411D01*
X144694580Y-92441416D01*
X144790432Y-92685643D01*
X144921614Y-92912857D01*
X145053736Y-93078533D01*
X145085198Y-93117985D01*
X145266753Y-93286441D01*
X145277521Y-93296433D01*
X145494296Y-93444228D01*
X145494301Y-93444230D01*
X145494302Y-93444231D01*
X145494303Y-93444232D01*
X145619843Y-93504688D01*
X145730673Y-93558061D01*
X145730674Y-93558061D01*
X145730677Y-93558063D01*
X145981385Y-93635396D01*
X146240818Y-93674500D01*
X146503182Y-93674500D01*
X146762615Y-93635396D01*
X147013323Y-93558063D01*
X147249704Y-93444228D01*
X147466479Y-93296433D01*
X147658805Y-93117981D01*
X147822386Y-92912857D01*
X147953568Y-92685643D01*
X148049420Y-92441416D01*
X148107802Y-92185630D01*
X148107803Y-92185620D01*
X148127408Y-91924004D01*
X148127408Y-91923995D01*
X148107803Y-91662379D01*
X148107802Y-91662374D01*
X148107802Y-91662370D01*
X148049420Y-91406584D01*
X147953568Y-91162357D01*
X147822386Y-90935143D01*
X147658805Y-90730019D01*
X147658804Y-90730018D01*
X147658801Y-90730014D01*
X147652314Y-90723995D01*
X153116592Y-90723995D01*
X153116592Y-90724004D01*
X153136196Y-90985620D01*
X153136197Y-90985625D01*
X153194576Y-91241402D01*
X153194578Y-91241411D01*
X153194580Y-91241416D01*
X153290432Y-91485643D01*
X153421614Y-91712857D01*
X153553736Y-91878533D01*
X153585198Y-91917985D01*
X153766753Y-92086441D01*
X153777521Y-92096433D01*
X153994296Y-92244228D01*
X153994301Y-92244230D01*
X153994302Y-92244231D01*
X153994303Y-92244232D01*
X154119843Y-92304688D01*
X154230673Y-92358061D01*
X154230674Y-92358061D01*
X154230677Y-92358063D01*
X154481385Y-92435396D01*
X154740818Y-92474500D01*
X155003182Y-92474500D01*
X155262615Y-92435396D01*
X155513323Y-92358063D01*
X155749704Y-92244228D01*
X155966479Y-92096433D01*
X156152318Y-91924000D01*
X156152323Y-91923995D01*
X162650592Y-91923995D01*
X162650592Y-91924004D01*
X162670196Y-92185620D01*
X162670197Y-92185625D01*
X162728576Y-92441402D01*
X162728578Y-92441411D01*
X162728580Y-92441416D01*
X162824432Y-92685643D01*
X162955614Y-92912857D01*
X163087736Y-93078533D01*
X163119198Y-93117985D01*
X163300753Y-93286441D01*
X163311521Y-93296433D01*
X163528296Y-93444228D01*
X163528301Y-93444230D01*
X163528302Y-93444231D01*
X163528303Y-93444232D01*
X163653843Y-93504688D01*
X163764673Y-93558061D01*
X163764674Y-93558061D01*
X163764677Y-93558063D01*
X164015385Y-93635396D01*
X164274818Y-93674500D01*
X164537182Y-93674500D01*
X164796615Y-93635396D01*
X165047323Y-93558063D01*
X165283704Y-93444228D01*
X165500479Y-93296433D01*
X165692805Y-93117981D01*
X165856386Y-92912857D01*
X165987568Y-92685643D01*
X166083420Y-92441416D01*
X166141802Y-92185630D01*
X166141803Y-92185620D01*
X166161408Y-91924004D01*
X166161408Y-91923995D01*
X166141803Y-91662379D01*
X166141802Y-91662374D01*
X166141802Y-91662370D01*
X166083420Y-91406584D01*
X165987568Y-91162357D01*
X165856386Y-90935143D01*
X165692805Y-90730019D01*
X165692804Y-90730018D01*
X165692801Y-90730014D01*
X165686314Y-90723995D01*
X171150592Y-90723995D01*
X171150592Y-90724004D01*
X171170196Y-90985620D01*
X171170197Y-90985625D01*
X171228576Y-91241402D01*
X171228578Y-91241411D01*
X171228580Y-91241416D01*
X171324432Y-91485643D01*
X171455614Y-91712857D01*
X171587736Y-91878533D01*
X171619198Y-91917985D01*
X171800753Y-92086441D01*
X171811521Y-92096433D01*
X172028296Y-92244228D01*
X172028301Y-92244230D01*
X172028302Y-92244231D01*
X172028303Y-92244232D01*
X172153843Y-92304688D01*
X172264673Y-92358061D01*
X172264674Y-92358061D01*
X172264677Y-92358063D01*
X172515385Y-92435396D01*
X172774818Y-92474500D01*
X173037182Y-92474500D01*
X173296615Y-92435396D01*
X173547323Y-92358063D01*
X173783704Y-92244228D01*
X174000479Y-92096433D01*
X174186318Y-91924000D01*
X174186323Y-91923995D01*
X176874592Y-91923995D01*
X176874592Y-91924004D01*
X176894196Y-92185620D01*
X176894197Y-92185625D01*
X176952576Y-92441402D01*
X176952578Y-92441411D01*
X176952580Y-92441416D01*
X177048432Y-92685643D01*
X177179614Y-92912857D01*
X177311736Y-93078533D01*
X177343198Y-93117985D01*
X177524753Y-93286441D01*
X177535521Y-93296433D01*
X177752296Y-93444228D01*
X177752301Y-93444230D01*
X177752302Y-93444231D01*
X177752303Y-93444232D01*
X177877843Y-93504688D01*
X177988673Y-93558061D01*
X177988674Y-93558061D01*
X177988677Y-93558063D01*
X178239385Y-93635396D01*
X178498818Y-93674500D01*
X178761182Y-93674500D01*
X179020615Y-93635396D01*
X179271323Y-93558063D01*
X179507704Y-93444228D01*
X179724479Y-93296433D01*
X179916805Y-93117981D01*
X180080386Y-92912857D01*
X180211568Y-92685643D01*
X180307420Y-92441416D01*
X180365802Y-92185630D01*
X180365803Y-92185620D01*
X180385408Y-91924004D01*
X180385408Y-91923995D01*
X180365803Y-91662379D01*
X180365802Y-91662374D01*
X180365802Y-91662370D01*
X180307420Y-91406584D01*
X180211568Y-91162357D01*
X180080386Y-90935143D01*
X179916805Y-90730019D01*
X179916804Y-90730018D01*
X179916801Y-90730014D01*
X179910314Y-90723995D01*
X185374592Y-90723995D01*
X185374592Y-90724004D01*
X185394196Y-90985620D01*
X185394197Y-90985625D01*
X185452576Y-91241402D01*
X185452578Y-91241411D01*
X185452580Y-91241416D01*
X185548432Y-91485643D01*
X185679614Y-91712857D01*
X185811736Y-91878533D01*
X185843198Y-91917985D01*
X186024753Y-92086441D01*
X186035521Y-92096433D01*
X186252296Y-92244228D01*
X186252301Y-92244230D01*
X186252302Y-92244231D01*
X186252303Y-92244232D01*
X186377843Y-92304688D01*
X186488673Y-92358061D01*
X186488674Y-92358061D01*
X186488677Y-92358063D01*
X186739385Y-92435396D01*
X186998818Y-92474500D01*
X187261182Y-92474500D01*
X187520615Y-92435396D01*
X187771323Y-92358063D01*
X188007704Y-92244228D01*
X188224479Y-92096433D01*
X188410318Y-91924000D01*
X188416801Y-91917985D01*
X188416801Y-91917983D01*
X188416805Y-91917981D01*
X188580386Y-91712857D01*
X188711568Y-91485643D01*
X188807420Y-91241416D01*
X188865802Y-90985630D01*
X188865803Y-90985620D01*
X188885408Y-90724004D01*
X188885408Y-90723995D01*
X188865803Y-90462379D01*
X188865802Y-90462374D01*
X188865802Y-90462370D01*
X188809448Y-90215469D01*
X188807423Y-90206597D01*
X188807422Y-90206596D01*
X188807420Y-90206584D01*
X188711568Y-89962357D01*
X188580386Y-89735143D01*
X188416805Y-89530019D01*
X188416804Y-89530018D01*
X188416801Y-89530014D01*
X188224479Y-89351567D01*
X188007704Y-89203772D01*
X188007700Y-89203770D01*
X188007697Y-89203768D01*
X188007696Y-89203767D01*
X187771325Y-89089938D01*
X187771327Y-89089938D01*
X187520623Y-89012606D01*
X187520619Y-89012605D01*
X187520615Y-89012604D01*
X187395823Y-88993794D01*
X187261187Y-88973500D01*
X187261182Y-88973500D01*
X186998818Y-88973500D01*
X186998812Y-88973500D01*
X186837247Y-88997853D01*
X186739385Y-89012604D01*
X186739382Y-89012605D01*
X186739376Y-89012606D01*
X186488673Y-89089938D01*
X186252303Y-89203767D01*
X186252302Y-89203768D01*
X186035520Y-89351567D01*
X185843198Y-89530014D01*
X185679614Y-89735143D01*
X185548432Y-89962356D01*
X185452582Y-90206578D01*
X185452576Y-90206597D01*
X185394197Y-90462374D01*
X185394196Y-90462379D01*
X185374592Y-90723995D01*
X179910314Y-90723995D01*
X179724479Y-90551567D01*
X179507704Y-90403772D01*
X179507700Y-90403770D01*
X179507697Y-90403768D01*
X179507696Y-90403767D01*
X179271325Y-90289938D01*
X179271327Y-90289938D01*
X179020623Y-90212606D01*
X179020619Y-90212605D01*
X179020615Y-90212604D01*
X178895823Y-90193794D01*
X178761187Y-90173500D01*
X178761182Y-90173500D01*
X178498818Y-90173500D01*
X178498812Y-90173500D01*
X178337247Y-90197853D01*
X178239385Y-90212604D01*
X178239382Y-90212605D01*
X178239376Y-90212606D01*
X177988673Y-90289938D01*
X177752303Y-90403767D01*
X177752302Y-90403768D01*
X177535520Y-90551567D01*
X177343198Y-90730014D01*
X177179614Y-90935143D01*
X177048432Y-91162356D01*
X176952582Y-91406578D01*
X176952576Y-91406597D01*
X176894197Y-91662374D01*
X176894196Y-91662379D01*
X176874592Y-91923995D01*
X174186323Y-91923995D01*
X174192801Y-91917985D01*
X174192801Y-91917983D01*
X174192805Y-91917981D01*
X174356386Y-91712857D01*
X174487568Y-91485643D01*
X174583420Y-91241416D01*
X174641802Y-90985630D01*
X174641803Y-90985620D01*
X174661408Y-90724004D01*
X174661408Y-90723995D01*
X174641803Y-90462379D01*
X174641802Y-90462374D01*
X174641802Y-90462370D01*
X174585448Y-90215469D01*
X174583423Y-90206597D01*
X174583422Y-90206596D01*
X174583420Y-90206584D01*
X174487568Y-89962357D01*
X174356386Y-89735143D01*
X174192805Y-89530019D01*
X174192804Y-89530018D01*
X174192801Y-89530014D01*
X174000479Y-89351567D01*
X173783704Y-89203772D01*
X173783700Y-89203770D01*
X173783697Y-89203768D01*
X173783696Y-89203767D01*
X173547325Y-89089938D01*
X173547327Y-89089938D01*
X173296623Y-89012606D01*
X173296619Y-89012605D01*
X173296615Y-89012604D01*
X173171823Y-88993794D01*
X173037187Y-88973500D01*
X173037182Y-88973500D01*
X172774818Y-88973500D01*
X172774812Y-88973500D01*
X172613247Y-88997853D01*
X172515385Y-89012604D01*
X172515382Y-89012605D01*
X172515376Y-89012606D01*
X172264673Y-89089938D01*
X172028303Y-89203767D01*
X172028302Y-89203768D01*
X171811520Y-89351567D01*
X171619198Y-89530014D01*
X171455614Y-89735143D01*
X171324432Y-89962356D01*
X171228582Y-90206578D01*
X171228576Y-90206597D01*
X171170197Y-90462374D01*
X171170196Y-90462379D01*
X171150592Y-90723995D01*
X165686314Y-90723995D01*
X165500479Y-90551567D01*
X165283704Y-90403772D01*
X165283700Y-90403770D01*
X165283697Y-90403768D01*
X165283696Y-90403767D01*
X165047325Y-90289938D01*
X165047327Y-90289938D01*
X164796623Y-90212606D01*
X164796619Y-90212605D01*
X164796615Y-90212604D01*
X164671823Y-90193794D01*
X164537187Y-90173500D01*
X164537182Y-90173500D01*
X164274818Y-90173500D01*
X164274812Y-90173500D01*
X164113247Y-90197853D01*
X164015385Y-90212604D01*
X164015382Y-90212605D01*
X164015376Y-90212606D01*
X163764673Y-90289938D01*
X163528303Y-90403767D01*
X163528302Y-90403768D01*
X163311520Y-90551567D01*
X163119198Y-90730014D01*
X162955614Y-90935143D01*
X162824432Y-91162356D01*
X162728582Y-91406578D01*
X162728576Y-91406597D01*
X162670197Y-91662374D01*
X162670196Y-91662379D01*
X162650592Y-91923995D01*
X156152323Y-91923995D01*
X156158801Y-91917985D01*
X156158801Y-91917983D01*
X156158805Y-91917981D01*
X156322386Y-91712857D01*
X156453568Y-91485643D01*
X156549420Y-91241416D01*
X156607802Y-90985630D01*
X156607803Y-90985620D01*
X156627408Y-90724004D01*
X156627408Y-90723995D01*
X156607803Y-90462379D01*
X156607802Y-90462374D01*
X156607802Y-90462370D01*
X156551448Y-90215469D01*
X156549423Y-90206597D01*
X156549422Y-90206596D01*
X156549420Y-90206584D01*
X156453568Y-89962357D01*
X156322386Y-89735143D01*
X156158805Y-89530019D01*
X156158804Y-89530018D01*
X156158801Y-89530014D01*
X155966479Y-89351567D01*
X155749704Y-89203772D01*
X155749700Y-89203770D01*
X155749697Y-89203768D01*
X155749696Y-89203767D01*
X155513325Y-89089938D01*
X155513327Y-89089938D01*
X155262623Y-89012606D01*
X155262619Y-89012605D01*
X155262615Y-89012604D01*
X155137823Y-88993794D01*
X155003187Y-88973500D01*
X155003182Y-88973500D01*
X154740818Y-88973500D01*
X154740812Y-88973500D01*
X154579247Y-88997853D01*
X154481385Y-89012604D01*
X154481382Y-89012605D01*
X154481376Y-89012606D01*
X154230673Y-89089938D01*
X153994303Y-89203767D01*
X153994302Y-89203768D01*
X153777520Y-89351567D01*
X153585198Y-89530014D01*
X153421614Y-89735143D01*
X153290432Y-89962356D01*
X153194582Y-90206578D01*
X153194576Y-90206597D01*
X153136197Y-90462374D01*
X153136196Y-90462379D01*
X153116592Y-90723995D01*
X147652314Y-90723995D01*
X147466479Y-90551567D01*
X147249704Y-90403772D01*
X147249700Y-90403770D01*
X147249697Y-90403768D01*
X147249696Y-90403767D01*
X147013325Y-90289938D01*
X147013327Y-90289938D01*
X146762623Y-90212606D01*
X146762619Y-90212605D01*
X146762615Y-90212604D01*
X146637823Y-90193794D01*
X146503187Y-90173500D01*
X146503182Y-90173500D01*
X146240818Y-90173500D01*
X146240812Y-90173500D01*
X146079247Y-90197853D01*
X145981385Y-90212604D01*
X145981382Y-90212605D01*
X145981376Y-90212606D01*
X145730673Y-90289938D01*
X145494303Y-90403767D01*
X145494302Y-90403768D01*
X145277520Y-90551567D01*
X145085198Y-90730014D01*
X144921614Y-90935143D01*
X144790432Y-91162356D01*
X144694582Y-91406578D01*
X144694576Y-91406597D01*
X144636197Y-91662374D01*
X144636196Y-91662379D01*
X144616592Y-91923995D01*
X141928323Y-91923995D01*
X141934801Y-91917985D01*
X141934801Y-91917983D01*
X141934805Y-91917981D01*
X142098386Y-91712857D01*
X142229568Y-91485643D01*
X142325420Y-91241416D01*
X142383802Y-90985630D01*
X142383803Y-90985620D01*
X142403408Y-90724004D01*
X142403408Y-90723995D01*
X142383803Y-90462379D01*
X142383802Y-90462374D01*
X142383802Y-90462370D01*
X142327448Y-90215469D01*
X142325423Y-90206597D01*
X142325422Y-90206596D01*
X142325420Y-90206584D01*
X142229568Y-89962357D01*
X142098386Y-89735143D01*
X141934805Y-89530019D01*
X141934804Y-89530018D01*
X141934801Y-89530014D01*
X141742479Y-89351567D01*
X141525704Y-89203772D01*
X141525700Y-89203770D01*
X141525697Y-89203768D01*
X141525696Y-89203767D01*
X141289325Y-89089938D01*
X141289327Y-89089938D01*
X141038623Y-89012606D01*
X141038619Y-89012605D01*
X141038615Y-89012604D01*
X140913823Y-88993794D01*
X140779187Y-88973500D01*
X140779182Y-88973500D01*
X140516818Y-88973500D01*
X140516812Y-88973500D01*
X140355247Y-88997853D01*
X140257385Y-89012604D01*
X140257382Y-89012605D01*
X140257376Y-89012606D01*
X140006673Y-89089938D01*
X139770303Y-89203767D01*
X139770302Y-89203768D01*
X139553520Y-89351567D01*
X139361198Y-89530014D01*
X139197614Y-89735143D01*
X139066432Y-89962356D01*
X138970582Y-90206578D01*
X138970576Y-90206597D01*
X138912197Y-90462374D01*
X138912196Y-90462379D01*
X138892592Y-90723995D01*
X133428314Y-90723995D01*
X133242479Y-90551567D01*
X133025704Y-90403772D01*
X133025700Y-90403770D01*
X133025697Y-90403768D01*
X133025696Y-90403767D01*
X132789325Y-90289938D01*
X132789327Y-90289938D01*
X132538623Y-90212606D01*
X132538619Y-90212605D01*
X132538615Y-90212604D01*
X132413823Y-90193794D01*
X132279187Y-90173500D01*
X132279182Y-90173500D01*
X132016818Y-90173500D01*
X132016812Y-90173500D01*
X131855247Y-90197853D01*
X131757385Y-90212604D01*
X131757382Y-90212605D01*
X131757376Y-90212606D01*
X131506673Y-90289938D01*
X131270303Y-90403767D01*
X131270302Y-90403768D01*
X131053520Y-90551567D01*
X130861198Y-90730014D01*
X130697614Y-90935143D01*
X130566432Y-91162356D01*
X130470582Y-91406578D01*
X130470576Y-91406597D01*
X130412197Y-91662374D01*
X130412196Y-91662379D01*
X130392592Y-91923995D01*
X123894323Y-91923995D01*
X123900801Y-91917985D01*
X123900801Y-91917983D01*
X123900805Y-91917981D01*
X124064386Y-91712857D01*
X124195568Y-91485643D01*
X124291420Y-91241416D01*
X124349802Y-90985630D01*
X124349803Y-90985620D01*
X124369408Y-90724004D01*
X124369408Y-90723995D01*
X124349803Y-90462379D01*
X124349802Y-90462374D01*
X124349802Y-90462370D01*
X124293448Y-90215469D01*
X124291423Y-90206597D01*
X124291422Y-90206596D01*
X124291420Y-90206584D01*
X124195568Y-89962357D01*
X124064386Y-89735143D01*
X123900805Y-89530019D01*
X123900804Y-89530018D01*
X123900801Y-89530014D01*
X123708479Y-89351567D01*
X123491704Y-89203772D01*
X123491700Y-89203770D01*
X123491697Y-89203768D01*
X123491696Y-89203767D01*
X123255325Y-89089938D01*
X123255327Y-89089938D01*
X123004623Y-89012606D01*
X123004619Y-89012605D01*
X123004615Y-89012604D01*
X122879823Y-88993794D01*
X122745187Y-88973500D01*
X122745182Y-88973500D01*
X122482818Y-88973500D01*
X122482812Y-88973500D01*
X122321247Y-88997853D01*
X122223385Y-89012604D01*
X122223382Y-89012605D01*
X122223376Y-89012606D01*
X121972673Y-89089938D01*
X121736303Y-89203767D01*
X121736302Y-89203768D01*
X121519520Y-89351567D01*
X121327198Y-89530014D01*
X121163614Y-89735143D01*
X121032432Y-89962356D01*
X120936582Y-90206578D01*
X120936576Y-90206597D01*
X120878197Y-90462374D01*
X120878196Y-90462379D01*
X120858592Y-90723995D01*
X115394314Y-90723995D01*
X115208479Y-90551567D01*
X114991704Y-90403772D01*
X114991700Y-90403770D01*
X114991697Y-90403768D01*
X114991696Y-90403767D01*
X114755325Y-90289938D01*
X114755327Y-90289938D01*
X114504623Y-90212606D01*
X114504619Y-90212605D01*
X114504615Y-90212604D01*
X114379823Y-90193794D01*
X114245187Y-90173500D01*
X114245182Y-90173500D01*
X113982818Y-90173500D01*
X113982812Y-90173500D01*
X113821247Y-90197853D01*
X113723385Y-90212604D01*
X113723382Y-90212605D01*
X113723376Y-90212606D01*
X113472673Y-90289938D01*
X113236303Y-90403767D01*
X113236302Y-90403768D01*
X113019520Y-90551567D01*
X112827198Y-90730014D01*
X112663614Y-90935143D01*
X112532432Y-91162356D01*
X112436582Y-91406578D01*
X112436576Y-91406597D01*
X112378197Y-91662374D01*
X112378196Y-91662379D01*
X112358592Y-91923995D01*
X109670323Y-91923995D01*
X109676801Y-91917985D01*
X109676801Y-91917983D01*
X109676805Y-91917981D01*
X109840386Y-91712857D01*
X109971568Y-91485643D01*
X110067420Y-91241416D01*
X110125802Y-90985630D01*
X110125803Y-90985620D01*
X110145408Y-90724004D01*
X110145408Y-90723995D01*
X110125803Y-90462379D01*
X110125802Y-90462374D01*
X110125802Y-90462370D01*
X110069448Y-90215469D01*
X110067423Y-90206597D01*
X110067422Y-90206596D01*
X110067420Y-90206584D01*
X109971568Y-89962357D01*
X109840386Y-89735143D01*
X109676805Y-89530019D01*
X109676804Y-89530018D01*
X109676801Y-89530014D01*
X109484479Y-89351567D01*
X109267704Y-89203772D01*
X109267700Y-89203770D01*
X109267697Y-89203768D01*
X109267696Y-89203767D01*
X109031325Y-89089938D01*
X109031327Y-89089938D01*
X108780623Y-89012606D01*
X108780619Y-89012605D01*
X108780615Y-89012604D01*
X108655823Y-88993794D01*
X108521187Y-88973500D01*
X108521182Y-88973500D01*
X108258818Y-88973500D01*
X108258812Y-88973500D01*
X108097247Y-88997853D01*
X107999385Y-89012604D01*
X107999382Y-89012605D01*
X107999376Y-89012606D01*
X107748673Y-89089938D01*
X107512303Y-89203767D01*
X107512302Y-89203768D01*
X107295520Y-89351567D01*
X107103198Y-89530014D01*
X106939614Y-89735143D01*
X106808432Y-89962356D01*
X106712582Y-90206578D01*
X106712576Y-90206597D01*
X106654197Y-90462374D01*
X106654196Y-90462379D01*
X106634592Y-90723995D01*
X101170314Y-90723995D01*
X100984479Y-90551567D01*
X100767704Y-90403772D01*
X100767700Y-90403770D01*
X100767697Y-90403768D01*
X100767696Y-90403767D01*
X100531325Y-90289938D01*
X100531327Y-90289938D01*
X100280623Y-90212606D01*
X100280619Y-90212605D01*
X100280615Y-90212604D01*
X100155823Y-90193794D01*
X100021187Y-90173500D01*
X100021182Y-90173500D01*
X99758818Y-90173500D01*
X99758812Y-90173500D01*
X99597247Y-90197853D01*
X99499385Y-90212604D01*
X99499382Y-90212605D01*
X99499376Y-90212606D01*
X99248673Y-90289938D01*
X99012303Y-90403767D01*
X99012302Y-90403768D01*
X98795520Y-90551567D01*
X98603198Y-90730014D01*
X98439614Y-90935143D01*
X98308432Y-91162356D01*
X98212582Y-91406578D01*
X98212576Y-91406597D01*
X98154197Y-91662374D01*
X98154196Y-91662379D01*
X98134592Y-91923995D01*
X97599300Y-91923995D01*
X97599300Y-86319472D01*
X97599682Y-86309743D01*
X97608911Y-86192479D01*
X97615580Y-86107738D01*
X97618624Y-86088525D01*
X97619403Y-86085282D01*
X97664787Y-85896243D01*
X97670793Y-85877758D01*
X97746469Y-85695059D01*
X97755302Y-85677726D01*
X97783894Y-85631069D01*
X97858617Y-85509130D01*
X97870052Y-85493392D01*
X97998477Y-85343025D01*
X98012231Y-85329273D01*
X98069572Y-85280299D01*
X98162595Y-85200849D01*
X98178314Y-85189428D01*
X98346941Y-85086093D01*
X98364262Y-85077268D01*
X98546959Y-85001592D01*
X98565444Y-84995586D01*
X98757733Y-84949421D01*
X98776939Y-84946379D01*
X98949228Y-84932820D01*
X98978947Y-84930482D01*
X98988675Y-84930100D01*
X99049692Y-84930100D01*
X101815769Y-84930100D01*
X101882808Y-84949785D01*
G37*
%TD.AperFunction*%
%TD*%
M02*
