M48
; DRILL file {KiCad 8.0.2} date 2024-06-02T13:55:50-0700
; FORMAT={-:-/ absolute / inch / decimal}
; #@! TF.CreationDate,2024-06-02T13:55:50-07:00
; #@! TF.GenerationSoftware,Kicad,Pcbnew,8.0.2
; #@! TF.FileFunction,Plated,1,2,PTH
FMAT,2
INCH
; #@! TA.AperFunction,Plated,PTH,ViaDrill
T1C0.0120
; #@! TA.AperFunction,Plated,PTH,ComponentDrill
T2C0.0380
; #@! TA.AperFunction,Plated,PTH,ComponentDrill
T3C0.0550
; #@! TA.AperFunction,Plated,PTH,ComponentDrill
T4C0.0551
; #@! TA.AperFunction,Plated,PTH,ComponentDrill
T5C0.0748
; #@! TA.AperFunction,Plated,PTH,ComponentDrill
T6C0.0866
%
G90
G05
T1
X4.0854Y-4.8443
X4.0972Y-4.7655
X4.1774Y-4.6372
X4.2546Y-4.6317
X4.2618Y-5.374
X4.3221Y-4.5187
X4.323Y-5.2009
X4.3846Y-4.738
X4.385Y-5.2001
X4.3924Y-4.6592
X4.4063Y-4.3583
X4.4072Y-4.2793
X4.4121Y-4.5687
X4.417Y-4.4663
X4.4455Y-5.2001
X4.525Y-4.93
X4.5578Y-4.0175
X4.5593Y-4.0586
X4.5593Y-4.1021
X4.5593Y-4.1513
X4.5775Y-4.7065
X4.5814Y-4.8443
X4.61Y-5.205
X4.6129Y-4.5687
X4.6562Y-4.612
X4.79Y-5.28
X4.97Y-5.195
X4.985Y-5.375
X5.0Y-5.595
X5.187Y-4.4587
X5.2264Y-4.3996
X5.2805Y-4.3356
X5.3356Y-4.2608
X5.35Y-5.37
X5.54Y-4.98
X5.65Y-5.54
X5.66Y-5.72
X6.34Y-5.395
X7.07Y-4.325
X7.11Y-5.4
T2
X6.9739Y-3.879
X7.0526Y-3.879
X7.1314Y-3.879
X7.2101Y-3.879
T3
X6.9452Y-3.7719
X6.9452Y-3.9861
X7.2207Y-3.7719
X7.2207Y-3.9861
T4
X4.0311Y-3.4084
X4.0311Y-5.7116
X4.1689Y-5.7116
X4.5911Y-3.4084
X4.5911Y-5.7116
X4.7289Y-5.7116
X5.3011Y-3.4084
X5.3011Y-5.7116
X5.4389Y-5.7116
X5.8611Y-3.4084
X5.8611Y-5.7116
X5.9989Y-5.7116
X6.5711Y-3.4084
X6.5711Y-5.7116
X6.7089Y-5.7116
X7.1311Y-3.4084
X7.1311Y-5.7116
X7.2689Y-5.7116
T5
X3.9327Y-3.6191
X3.9327Y-5.5009
X4.2673Y-3.5718
X4.2673Y-5.5482
X4.4927Y-3.6191
X4.4927Y-5.5009
X4.8273Y-3.5718
X4.8273Y-5.5482
X5.2027Y-3.6191
X5.2027Y-5.5009
X5.5373Y-3.5718
X5.5373Y-5.5482
X5.7627Y-3.6191
X5.7627Y-5.5009
X6.0973Y-3.5718
X6.0973Y-5.5482
X6.4727Y-3.6191
X6.4727Y-5.5009
X6.8073Y-3.5718
X6.8073Y-5.5482
X7.0327Y-3.6191
X7.0327Y-5.5009
X7.3673Y-3.5718
X7.3673Y-5.5482
T6
X5.0125Y-4.793
X5.0197Y-4.5472
X6.425Y-4.35
X6.625Y-4.35
M30
