%TF.GenerationSoftware,KiCad,Pcbnew,8.0.2*%
%TF.CreationDate,2024-06-02T13:55:41-07:00*%
%TF.ProjectId,RLS_PCBA,524c535f-5043-4424-912e-6b696361645f,rev?*%
%TF.SameCoordinates,Original*%
%TF.FileFunction,Legend,Bot*%
%TF.FilePolarity,Positive*%
%FSLAX46Y46*%
G04 Gerber Fmt 4.6, Leading zero omitted, Abs format (unit mm)*
G04 Created by KiCad (PCBNEW 8.0.2) date 2024-06-02 13:55:41*
%MOMM*%
%LPD*%
G01*
G04 APERTURE LIST*
%ADD10C,0.100000*%
%ADD11C,0.150000*%
%ADD12C,0.120000*%
%ADD13C,0.152400*%
%ADD14C,0.508000*%
G04 APERTURE END LIST*
D10*
X163875000Y-103109000D02*
X160475000Y-103109000D01*
X163875000Y-94234000D02*
X160350000Y-94234000D01*
X160475000Y-103109000D02*
X120475000Y-103109000D01*
X120350000Y-94234000D02*
X105350000Y-94234000D01*
X160350000Y-94234000D02*
X120350000Y-94234000D01*
X163875000Y-94234000D02*
X163875000Y-103109000D01*
X120475000Y-103109000D02*
X105350000Y-103109000D01*
X105350000Y-94234000D02*
X105350000Y-103109000D01*
X172696115Y-110870419D02*
X172696115Y-109870419D01*
X172696115Y-109870419D02*
X172458020Y-109870419D01*
X172458020Y-109870419D02*
X172315163Y-109918038D01*
X172315163Y-109918038D02*
X172219925Y-110013276D01*
X172219925Y-110013276D02*
X172172306Y-110108514D01*
X172172306Y-110108514D02*
X172124687Y-110298990D01*
X172124687Y-110298990D02*
X172124687Y-110441847D01*
X172124687Y-110441847D02*
X172172306Y-110632323D01*
X172172306Y-110632323D02*
X172219925Y-110727561D01*
X172219925Y-110727561D02*
X172315163Y-110822800D01*
X172315163Y-110822800D02*
X172458020Y-110870419D01*
X172458020Y-110870419D02*
X172696115Y-110870419D01*
X171696115Y-110489466D02*
X170934211Y-110489466D01*
X159996115Y-110870419D02*
X159996115Y-109870419D01*
X159996115Y-109870419D02*
X159758020Y-109870419D01*
X159758020Y-109870419D02*
X159615163Y-109918038D01*
X159615163Y-109918038D02*
X159519925Y-110013276D01*
X159519925Y-110013276D02*
X159472306Y-110108514D01*
X159472306Y-110108514D02*
X159424687Y-110298990D01*
X159424687Y-110298990D02*
X159424687Y-110441847D01*
X159424687Y-110441847D02*
X159472306Y-110632323D01*
X159472306Y-110632323D02*
X159519925Y-110727561D01*
X159519925Y-110727561D02*
X159615163Y-110822800D01*
X159615163Y-110822800D02*
X159758020Y-110870419D01*
X159758020Y-110870419D02*
X159996115Y-110870419D01*
X158996115Y-110489466D02*
X158234211Y-110489466D01*
X158615163Y-110870419D02*
X158615163Y-110108514D01*
X133172306Y-115170038D02*
X133267544Y-115122419D01*
X133267544Y-115122419D02*
X133410401Y-115122419D01*
X133410401Y-115122419D02*
X133553258Y-115170038D01*
X133553258Y-115170038D02*
X133648496Y-115265276D01*
X133648496Y-115265276D02*
X133696115Y-115360514D01*
X133696115Y-115360514D02*
X133743734Y-115550990D01*
X133743734Y-115550990D02*
X133743734Y-115693847D01*
X133743734Y-115693847D02*
X133696115Y-115884323D01*
X133696115Y-115884323D02*
X133648496Y-115979561D01*
X133648496Y-115979561D02*
X133553258Y-116074800D01*
X133553258Y-116074800D02*
X133410401Y-116122419D01*
X133410401Y-116122419D02*
X133315163Y-116122419D01*
X133315163Y-116122419D02*
X133172306Y-116074800D01*
X133172306Y-116074800D02*
X133124687Y-116027180D01*
X133124687Y-116027180D02*
X133124687Y-115693847D01*
X133124687Y-115693847D02*
X133315163Y-115693847D01*
X132696115Y-116122419D02*
X132696115Y-115122419D01*
X132696115Y-115122419D02*
X132124687Y-116122419D01*
X132124687Y-116122419D02*
X132124687Y-115122419D01*
X131648496Y-116122419D02*
X131648496Y-115122419D01*
X131648496Y-115122419D02*
X131410401Y-115122419D01*
X131410401Y-115122419D02*
X131267544Y-115170038D01*
X131267544Y-115170038D02*
X131172306Y-115265276D01*
X131172306Y-115265276D02*
X131124687Y-115360514D01*
X131124687Y-115360514D02*
X131077068Y-115550990D01*
X131077068Y-115550990D02*
X131077068Y-115693847D01*
X131077068Y-115693847D02*
X131124687Y-115884323D01*
X131124687Y-115884323D02*
X131172306Y-115979561D01*
X131172306Y-115979561D02*
X131267544Y-116074800D01*
X131267544Y-116074800D02*
X131410401Y-116122419D01*
X131410401Y-116122419D02*
X131648496Y-116122419D01*
X133446115Y-122241466D02*
X132684211Y-122241466D01*
X133065163Y-122622419D02*
X133065163Y-121860514D01*
X131731830Y-121622419D02*
X132208020Y-121622419D01*
X132208020Y-121622419D02*
X132255639Y-122098609D01*
X132255639Y-122098609D02*
X132208020Y-122050990D01*
X132208020Y-122050990D02*
X132112782Y-122003371D01*
X132112782Y-122003371D02*
X131874687Y-122003371D01*
X131874687Y-122003371D02*
X131779449Y-122050990D01*
X131779449Y-122050990D02*
X131731830Y-122098609D01*
X131731830Y-122098609D02*
X131684211Y-122193847D01*
X131684211Y-122193847D02*
X131684211Y-122431942D01*
X131684211Y-122431942D02*
X131731830Y-122527180D01*
X131731830Y-122527180D02*
X131779449Y-122574800D01*
X131779449Y-122574800D02*
X131874687Y-122622419D01*
X131874687Y-122622419D02*
X132112782Y-122622419D01*
X132112782Y-122622419D02*
X132208020Y-122574800D01*
X132208020Y-122574800D02*
X132255639Y-122527180D01*
X131398496Y-121622419D02*
X131065163Y-122622419D01*
X131065163Y-122622419D02*
X130731830Y-121622419D01*
D11*
X117334666Y-110903580D02*
X117382285Y-110951200D01*
X117382285Y-110951200D02*
X117525142Y-110998819D01*
X117525142Y-110998819D02*
X117620380Y-110998819D01*
X117620380Y-110998819D02*
X117763237Y-110951200D01*
X117763237Y-110951200D02*
X117858475Y-110855961D01*
X117858475Y-110855961D02*
X117906094Y-110760723D01*
X117906094Y-110760723D02*
X117953713Y-110570247D01*
X117953713Y-110570247D02*
X117953713Y-110427390D01*
X117953713Y-110427390D02*
X117906094Y-110236914D01*
X117906094Y-110236914D02*
X117858475Y-110141676D01*
X117858475Y-110141676D02*
X117763237Y-110046438D01*
X117763237Y-110046438D02*
X117620380Y-109998819D01*
X117620380Y-109998819D02*
X117525142Y-109998819D01*
X117525142Y-109998819D02*
X117382285Y-110046438D01*
X117382285Y-110046438D02*
X117334666Y-110094057D01*
X116953713Y-110094057D02*
X116906094Y-110046438D01*
X116906094Y-110046438D02*
X116810856Y-109998819D01*
X116810856Y-109998819D02*
X116572761Y-109998819D01*
X116572761Y-109998819D02*
X116477523Y-110046438D01*
X116477523Y-110046438D02*
X116429904Y-110094057D01*
X116429904Y-110094057D02*
X116382285Y-110189295D01*
X116382285Y-110189295D02*
X116382285Y-110284533D01*
X116382285Y-110284533D02*
X116429904Y-110427390D01*
X116429904Y-110427390D02*
X117001332Y-110998819D01*
X117001332Y-110998819D02*
X116382285Y-110998819D01*
X117359666Y-109053580D02*
X117407285Y-109101200D01*
X117407285Y-109101200D02*
X117550142Y-109148819D01*
X117550142Y-109148819D02*
X117645380Y-109148819D01*
X117645380Y-109148819D02*
X117788237Y-109101200D01*
X117788237Y-109101200D02*
X117883475Y-109005961D01*
X117883475Y-109005961D02*
X117931094Y-108910723D01*
X117931094Y-108910723D02*
X117978713Y-108720247D01*
X117978713Y-108720247D02*
X117978713Y-108577390D01*
X117978713Y-108577390D02*
X117931094Y-108386914D01*
X117931094Y-108386914D02*
X117883475Y-108291676D01*
X117883475Y-108291676D02*
X117788237Y-108196438D01*
X117788237Y-108196438D02*
X117645380Y-108148819D01*
X117645380Y-108148819D02*
X117550142Y-108148819D01*
X117550142Y-108148819D02*
X117407285Y-108196438D01*
X117407285Y-108196438D02*
X117359666Y-108244057D01*
X116407285Y-109148819D02*
X116978713Y-109148819D01*
X116692999Y-109148819D02*
X116692999Y-108148819D01*
X116692999Y-108148819D02*
X116788237Y-108291676D01*
X116788237Y-108291676D02*
X116883475Y-108386914D01*
X116883475Y-108386914D02*
X116978713Y-108434533D01*
X117029904Y-130098819D02*
X117029904Y-130908342D01*
X117029904Y-130908342D02*
X116982285Y-131003580D01*
X116982285Y-131003580D02*
X116934666Y-131051200D01*
X116934666Y-131051200D02*
X116839428Y-131098819D01*
X116839428Y-131098819D02*
X116648952Y-131098819D01*
X116648952Y-131098819D02*
X116553714Y-131051200D01*
X116553714Y-131051200D02*
X116506095Y-131003580D01*
X116506095Y-131003580D02*
X116458476Y-130908342D01*
X116458476Y-130908342D02*
X116458476Y-130098819D01*
X116029904Y-130194057D02*
X115982285Y-130146438D01*
X115982285Y-130146438D02*
X115887047Y-130098819D01*
X115887047Y-130098819D02*
X115648952Y-130098819D01*
X115648952Y-130098819D02*
X115553714Y-130146438D01*
X115553714Y-130146438D02*
X115506095Y-130194057D01*
X115506095Y-130194057D02*
X115458476Y-130289295D01*
X115458476Y-130289295D02*
X115458476Y-130384533D01*
X115458476Y-130384533D02*
X115506095Y-130527390D01*
X115506095Y-130527390D02*
X116077523Y-131098819D01*
X116077523Y-131098819D02*
X115458476Y-131098819D01*
X106234666Y-127003580D02*
X106282285Y-127051200D01*
X106282285Y-127051200D02*
X106425142Y-127098819D01*
X106425142Y-127098819D02*
X106520380Y-127098819D01*
X106520380Y-127098819D02*
X106663237Y-127051200D01*
X106663237Y-127051200D02*
X106758475Y-126955961D01*
X106758475Y-126955961D02*
X106806094Y-126860723D01*
X106806094Y-126860723D02*
X106853713Y-126670247D01*
X106853713Y-126670247D02*
X106853713Y-126527390D01*
X106853713Y-126527390D02*
X106806094Y-126336914D01*
X106806094Y-126336914D02*
X106758475Y-126241676D01*
X106758475Y-126241676D02*
X106663237Y-126146438D01*
X106663237Y-126146438D02*
X106520380Y-126098819D01*
X106520380Y-126098819D02*
X106425142Y-126098819D01*
X106425142Y-126098819D02*
X106282285Y-126146438D01*
X106282285Y-126146438D02*
X106234666Y-126194057D01*
X105329904Y-126098819D02*
X105806094Y-126098819D01*
X105806094Y-126098819D02*
X105853713Y-126575009D01*
X105853713Y-126575009D02*
X105806094Y-126527390D01*
X105806094Y-126527390D02*
X105710856Y-126479771D01*
X105710856Y-126479771D02*
X105472761Y-126479771D01*
X105472761Y-126479771D02*
X105377523Y-126527390D01*
X105377523Y-126527390D02*
X105329904Y-126575009D01*
X105329904Y-126575009D02*
X105282285Y-126670247D01*
X105282285Y-126670247D02*
X105282285Y-126908342D01*
X105282285Y-126908342D02*
X105329904Y-127003580D01*
X105329904Y-127003580D02*
X105377523Y-127051200D01*
X105377523Y-127051200D02*
X105472761Y-127098819D01*
X105472761Y-127098819D02*
X105710856Y-127098819D01*
X105710856Y-127098819D02*
X105806094Y-127051200D01*
X105806094Y-127051200D02*
X105853713Y-127003580D01*
X176281819Y-110858333D02*
X175805628Y-110525000D01*
X176281819Y-110286905D02*
X175281819Y-110286905D01*
X175281819Y-110286905D02*
X175281819Y-110667857D01*
X175281819Y-110667857D02*
X175329438Y-110763095D01*
X175329438Y-110763095D02*
X175377057Y-110810714D01*
X175377057Y-110810714D02*
X175472295Y-110858333D01*
X175472295Y-110858333D02*
X175615152Y-110858333D01*
X175615152Y-110858333D02*
X175710390Y-110810714D01*
X175710390Y-110810714D02*
X175758009Y-110763095D01*
X175758009Y-110763095D02*
X175805628Y-110667857D01*
X175805628Y-110667857D02*
X175805628Y-110286905D01*
X176281819Y-111334524D02*
X176281819Y-111525000D01*
X176281819Y-111525000D02*
X176234200Y-111620238D01*
X176234200Y-111620238D02*
X176186580Y-111667857D01*
X176186580Y-111667857D02*
X176043723Y-111763095D01*
X176043723Y-111763095D02*
X175853247Y-111810714D01*
X175853247Y-111810714D02*
X175472295Y-111810714D01*
X175472295Y-111810714D02*
X175377057Y-111763095D01*
X175377057Y-111763095D02*
X175329438Y-111715476D01*
X175329438Y-111715476D02*
X175281819Y-111620238D01*
X175281819Y-111620238D02*
X175281819Y-111429762D01*
X175281819Y-111429762D02*
X175329438Y-111334524D01*
X175329438Y-111334524D02*
X175377057Y-111286905D01*
X175377057Y-111286905D02*
X175472295Y-111239286D01*
X175472295Y-111239286D02*
X175710390Y-111239286D01*
X175710390Y-111239286D02*
X175805628Y-111286905D01*
X175805628Y-111286905D02*
X175853247Y-111334524D01*
X175853247Y-111334524D02*
X175900866Y-111429762D01*
X175900866Y-111429762D02*
X175900866Y-111620238D01*
X175900866Y-111620238D02*
X175853247Y-111715476D01*
X175853247Y-111715476D02*
X175805628Y-111763095D01*
X175805628Y-111763095D02*
X175710390Y-111810714D01*
X111634666Y-105298819D02*
X111967999Y-104822628D01*
X112206094Y-105298819D02*
X112206094Y-104298819D01*
X112206094Y-104298819D02*
X111825142Y-104298819D01*
X111825142Y-104298819D02*
X111729904Y-104346438D01*
X111729904Y-104346438D02*
X111682285Y-104394057D01*
X111682285Y-104394057D02*
X111634666Y-104489295D01*
X111634666Y-104489295D02*
X111634666Y-104632152D01*
X111634666Y-104632152D02*
X111682285Y-104727390D01*
X111682285Y-104727390D02*
X111729904Y-104775009D01*
X111729904Y-104775009D02*
X111825142Y-104822628D01*
X111825142Y-104822628D02*
X112206094Y-104822628D01*
X110682285Y-105298819D02*
X111253713Y-105298819D01*
X110967999Y-105298819D02*
X110967999Y-104298819D01*
X110967999Y-104298819D02*
X111063237Y-104441676D01*
X111063237Y-104441676D02*
X111158475Y-104536914D01*
X111158475Y-104536914D02*
X111253713Y-104584533D01*
X178064819Y-110958333D02*
X177588628Y-110625000D01*
X178064819Y-110386905D02*
X177064819Y-110386905D01*
X177064819Y-110386905D02*
X177064819Y-110767857D01*
X177064819Y-110767857D02*
X177112438Y-110863095D01*
X177112438Y-110863095D02*
X177160057Y-110910714D01*
X177160057Y-110910714D02*
X177255295Y-110958333D01*
X177255295Y-110958333D02*
X177398152Y-110958333D01*
X177398152Y-110958333D02*
X177493390Y-110910714D01*
X177493390Y-110910714D02*
X177541009Y-110863095D01*
X177541009Y-110863095D02*
X177588628Y-110767857D01*
X177588628Y-110767857D02*
X177588628Y-110386905D01*
X177493390Y-111529762D02*
X177445771Y-111434524D01*
X177445771Y-111434524D02*
X177398152Y-111386905D01*
X177398152Y-111386905D02*
X177302914Y-111339286D01*
X177302914Y-111339286D02*
X177255295Y-111339286D01*
X177255295Y-111339286D02*
X177160057Y-111386905D01*
X177160057Y-111386905D02*
X177112438Y-111434524D01*
X177112438Y-111434524D02*
X177064819Y-111529762D01*
X177064819Y-111529762D02*
X177064819Y-111720238D01*
X177064819Y-111720238D02*
X177112438Y-111815476D01*
X177112438Y-111815476D02*
X177160057Y-111863095D01*
X177160057Y-111863095D02*
X177255295Y-111910714D01*
X177255295Y-111910714D02*
X177302914Y-111910714D01*
X177302914Y-111910714D02*
X177398152Y-111863095D01*
X177398152Y-111863095D02*
X177445771Y-111815476D01*
X177445771Y-111815476D02*
X177493390Y-111720238D01*
X177493390Y-111720238D02*
X177493390Y-111529762D01*
X177493390Y-111529762D02*
X177541009Y-111434524D01*
X177541009Y-111434524D02*
X177588628Y-111386905D01*
X177588628Y-111386905D02*
X177683866Y-111339286D01*
X177683866Y-111339286D02*
X177874342Y-111339286D01*
X177874342Y-111339286D02*
X177969580Y-111386905D01*
X177969580Y-111386905D02*
X178017200Y-111434524D01*
X178017200Y-111434524D02*
X178064819Y-111529762D01*
X178064819Y-111529762D02*
X178064819Y-111720238D01*
X178064819Y-111720238D02*
X178017200Y-111815476D01*
X178017200Y-111815476D02*
X177969580Y-111863095D01*
X177969580Y-111863095D02*
X177874342Y-111910714D01*
X177874342Y-111910714D02*
X177683866Y-111910714D01*
X177683866Y-111910714D02*
X177588628Y-111863095D01*
X177588628Y-111863095D02*
X177541009Y-111815476D01*
X177541009Y-111815476D02*
X177493390Y-111720238D01*
X104359666Y-111898819D02*
X104692999Y-111422628D01*
X104931094Y-111898819D02*
X104931094Y-110898819D01*
X104931094Y-110898819D02*
X104550142Y-110898819D01*
X104550142Y-110898819D02*
X104454904Y-110946438D01*
X104454904Y-110946438D02*
X104407285Y-110994057D01*
X104407285Y-110994057D02*
X104359666Y-111089295D01*
X104359666Y-111089295D02*
X104359666Y-111232152D01*
X104359666Y-111232152D02*
X104407285Y-111327390D01*
X104407285Y-111327390D02*
X104454904Y-111375009D01*
X104454904Y-111375009D02*
X104550142Y-111422628D01*
X104550142Y-111422628D02*
X104931094Y-111422628D01*
X103978713Y-110994057D02*
X103931094Y-110946438D01*
X103931094Y-110946438D02*
X103835856Y-110898819D01*
X103835856Y-110898819D02*
X103597761Y-110898819D01*
X103597761Y-110898819D02*
X103502523Y-110946438D01*
X103502523Y-110946438D02*
X103454904Y-110994057D01*
X103454904Y-110994057D02*
X103407285Y-111089295D01*
X103407285Y-111089295D02*
X103407285Y-111184533D01*
X103407285Y-111184533D02*
X103454904Y-111327390D01*
X103454904Y-111327390D02*
X104026332Y-111898819D01*
X104026332Y-111898819D02*
X103407285Y-111898819D01*
X104234666Y-105298819D02*
X104567999Y-104822628D01*
X104806094Y-105298819D02*
X104806094Y-104298819D01*
X104806094Y-104298819D02*
X104425142Y-104298819D01*
X104425142Y-104298819D02*
X104329904Y-104346438D01*
X104329904Y-104346438D02*
X104282285Y-104394057D01*
X104282285Y-104394057D02*
X104234666Y-104489295D01*
X104234666Y-104489295D02*
X104234666Y-104632152D01*
X104234666Y-104632152D02*
X104282285Y-104727390D01*
X104282285Y-104727390D02*
X104329904Y-104775009D01*
X104329904Y-104775009D02*
X104425142Y-104822628D01*
X104425142Y-104822628D02*
X104806094Y-104822628D01*
X103377523Y-104632152D02*
X103377523Y-105298819D01*
X103615618Y-104251200D02*
X103853713Y-104965485D01*
X103853713Y-104965485D02*
X103234666Y-104965485D01*
X109234666Y-105298819D02*
X109567999Y-104822628D01*
X109806094Y-105298819D02*
X109806094Y-104298819D01*
X109806094Y-104298819D02*
X109425142Y-104298819D01*
X109425142Y-104298819D02*
X109329904Y-104346438D01*
X109329904Y-104346438D02*
X109282285Y-104394057D01*
X109282285Y-104394057D02*
X109234666Y-104489295D01*
X109234666Y-104489295D02*
X109234666Y-104632152D01*
X109234666Y-104632152D02*
X109282285Y-104727390D01*
X109282285Y-104727390D02*
X109329904Y-104775009D01*
X109329904Y-104775009D02*
X109425142Y-104822628D01*
X109425142Y-104822628D02*
X109806094Y-104822628D01*
X108329904Y-104298819D02*
X108806094Y-104298819D01*
X108806094Y-104298819D02*
X108853713Y-104775009D01*
X108853713Y-104775009D02*
X108806094Y-104727390D01*
X108806094Y-104727390D02*
X108710856Y-104679771D01*
X108710856Y-104679771D02*
X108472761Y-104679771D01*
X108472761Y-104679771D02*
X108377523Y-104727390D01*
X108377523Y-104727390D02*
X108329904Y-104775009D01*
X108329904Y-104775009D02*
X108282285Y-104870247D01*
X108282285Y-104870247D02*
X108282285Y-105108342D01*
X108282285Y-105108342D02*
X108329904Y-105203580D01*
X108329904Y-105203580D02*
X108377523Y-105251200D01*
X108377523Y-105251200D02*
X108472761Y-105298819D01*
X108472761Y-105298819D02*
X108710856Y-105298819D01*
X108710856Y-105298819D02*
X108806094Y-105251200D01*
X108806094Y-105251200D02*
X108853713Y-105203580D01*
X179947819Y-110882142D02*
X179471628Y-110548809D01*
X179947819Y-110310714D02*
X178947819Y-110310714D01*
X178947819Y-110310714D02*
X178947819Y-110691666D01*
X178947819Y-110691666D02*
X178995438Y-110786904D01*
X178995438Y-110786904D02*
X179043057Y-110834523D01*
X179043057Y-110834523D02*
X179138295Y-110882142D01*
X179138295Y-110882142D02*
X179281152Y-110882142D01*
X179281152Y-110882142D02*
X179376390Y-110834523D01*
X179376390Y-110834523D02*
X179424009Y-110786904D01*
X179424009Y-110786904D02*
X179471628Y-110691666D01*
X179471628Y-110691666D02*
X179471628Y-110310714D01*
X179947819Y-111834523D02*
X179947819Y-111263095D01*
X179947819Y-111548809D02*
X178947819Y-111548809D01*
X178947819Y-111548809D02*
X179090676Y-111453571D01*
X179090676Y-111453571D02*
X179185914Y-111358333D01*
X179185914Y-111358333D02*
X179233533Y-111263095D01*
X178947819Y-112453571D02*
X178947819Y-112548809D01*
X178947819Y-112548809D02*
X178995438Y-112644047D01*
X178995438Y-112644047D02*
X179043057Y-112691666D01*
X179043057Y-112691666D02*
X179138295Y-112739285D01*
X179138295Y-112739285D02*
X179328771Y-112786904D01*
X179328771Y-112786904D02*
X179566866Y-112786904D01*
X179566866Y-112786904D02*
X179757342Y-112739285D01*
X179757342Y-112739285D02*
X179852580Y-112691666D01*
X179852580Y-112691666D02*
X179900200Y-112644047D01*
X179900200Y-112644047D02*
X179947819Y-112548809D01*
X179947819Y-112548809D02*
X179947819Y-112453571D01*
X179947819Y-112453571D02*
X179900200Y-112358333D01*
X179900200Y-112358333D02*
X179852580Y-112310714D01*
X179852580Y-112310714D02*
X179757342Y-112263095D01*
X179757342Y-112263095D02*
X179566866Y-112215476D01*
X179566866Y-112215476D02*
X179328771Y-112215476D01*
X179328771Y-112215476D02*
X179138295Y-112263095D01*
X179138295Y-112263095D02*
X179043057Y-112310714D01*
X179043057Y-112310714D02*
X178995438Y-112358333D01*
X178995438Y-112358333D02*
X178947819Y-112453571D01*
D10*
X177625333Y-123663419D02*
X177625333Y-124377704D01*
X177625333Y-124377704D02*
X177672952Y-124520561D01*
X177672952Y-124520561D02*
X177768190Y-124615800D01*
X177768190Y-124615800D02*
X177911047Y-124663419D01*
X177911047Y-124663419D02*
X178006285Y-124663419D01*
X176625333Y-124663419D02*
X177196761Y-124663419D01*
X176911047Y-124663419D02*
X176911047Y-123663419D01*
X176911047Y-123663419D02*
X177006285Y-123806276D01*
X177006285Y-123806276D02*
X177101523Y-123901514D01*
X177101523Y-123901514D02*
X177196761Y-123949133D01*
D11*
X106134666Y-129898819D02*
X106467999Y-129422628D01*
X106706094Y-129898819D02*
X106706094Y-128898819D01*
X106706094Y-128898819D02*
X106325142Y-128898819D01*
X106325142Y-128898819D02*
X106229904Y-128946438D01*
X106229904Y-128946438D02*
X106182285Y-128994057D01*
X106182285Y-128994057D02*
X106134666Y-129089295D01*
X106134666Y-129089295D02*
X106134666Y-129232152D01*
X106134666Y-129232152D02*
X106182285Y-129327390D01*
X106182285Y-129327390D02*
X106229904Y-129375009D01*
X106229904Y-129375009D02*
X106325142Y-129422628D01*
X106325142Y-129422628D02*
X106706094Y-129422628D01*
X105801332Y-128898819D02*
X105182285Y-128898819D01*
X105182285Y-128898819D02*
X105515618Y-129279771D01*
X105515618Y-129279771D02*
X105372761Y-129279771D01*
X105372761Y-129279771D02*
X105277523Y-129327390D01*
X105277523Y-129327390D02*
X105229904Y-129375009D01*
X105229904Y-129375009D02*
X105182285Y-129470247D01*
X105182285Y-129470247D02*
X105182285Y-129708342D01*
X105182285Y-129708342D02*
X105229904Y-129803580D01*
X105229904Y-129803580D02*
X105277523Y-129851200D01*
X105277523Y-129851200D02*
X105372761Y-129898819D01*
X105372761Y-129898819D02*
X105658475Y-129898819D01*
X105658475Y-129898819D02*
X105753713Y-129851200D01*
X105753713Y-129851200D02*
X105801332Y-129803580D01*
X104082535Y-115824886D02*
X104130154Y-115872506D01*
X104130154Y-115872506D02*
X104273011Y-115920125D01*
X104273011Y-115920125D02*
X104368249Y-115920125D01*
X104368249Y-115920125D02*
X104511106Y-115872506D01*
X104511106Y-115872506D02*
X104606344Y-115777267D01*
X104606344Y-115777267D02*
X104653963Y-115682029D01*
X104653963Y-115682029D02*
X104701582Y-115491553D01*
X104701582Y-115491553D02*
X104701582Y-115348696D01*
X104701582Y-115348696D02*
X104653963Y-115158220D01*
X104653963Y-115158220D02*
X104606344Y-115062982D01*
X104606344Y-115062982D02*
X104511106Y-114967744D01*
X104511106Y-114967744D02*
X104368249Y-114920125D01*
X104368249Y-114920125D02*
X104273011Y-114920125D01*
X104273011Y-114920125D02*
X104130154Y-114967744D01*
X104130154Y-114967744D02*
X104082535Y-115015363D01*
X103749201Y-114920125D02*
X103130154Y-114920125D01*
X103130154Y-114920125D02*
X103463487Y-115301077D01*
X103463487Y-115301077D02*
X103320630Y-115301077D01*
X103320630Y-115301077D02*
X103225392Y-115348696D01*
X103225392Y-115348696D02*
X103177773Y-115396315D01*
X103177773Y-115396315D02*
X103130154Y-115491553D01*
X103130154Y-115491553D02*
X103130154Y-115729648D01*
X103130154Y-115729648D02*
X103177773Y-115824886D01*
X103177773Y-115824886D02*
X103225392Y-115872506D01*
X103225392Y-115872506D02*
X103320630Y-115920125D01*
X103320630Y-115920125D02*
X103606344Y-115920125D01*
X103606344Y-115920125D02*
X103701582Y-115872506D01*
X103701582Y-115872506D02*
X103749201Y-115824886D01*
X106734666Y-105298819D02*
X107067999Y-104822628D01*
X107306094Y-105298819D02*
X107306094Y-104298819D01*
X107306094Y-104298819D02*
X106925142Y-104298819D01*
X106925142Y-104298819D02*
X106829904Y-104346438D01*
X106829904Y-104346438D02*
X106782285Y-104394057D01*
X106782285Y-104394057D02*
X106734666Y-104489295D01*
X106734666Y-104489295D02*
X106734666Y-104632152D01*
X106734666Y-104632152D02*
X106782285Y-104727390D01*
X106782285Y-104727390D02*
X106829904Y-104775009D01*
X106829904Y-104775009D02*
X106925142Y-104822628D01*
X106925142Y-104822628D02*
X107306094Y-104822628D01*
X105877523Y-104298819D02*
X106067999Y-104298819D01*
X106067999Y-104298819D02*
X106163237Y-104346438D01*
X106163237Y-104346438D02*
X106210856Y-104394057D01*
X106210856Y-104394057D02*
X106306094Y-104536914D01*
X106306094Y-104536914D02*
X106353713Y-104727390D01*
X106353713Y-104727390D02*
X106353713Y-105108342D01*
X106353713Y-105108342D02*
X106306094Y-105203580D01*
X106306094Y-105203580D02*
X106258475Y-105251200D01*
X106258475Y-105251200D02*
X106163237Y-105298819D01*
X106163237Y-105298819D02*
X105972761Y-105298819D01*
X105972761Y-105298819D02*
X105877523Y-105251200D01*
X105877523Y-105251200D02*
X105829904Y-105203580D01*
X105829904Y-105203580D02*
X105782285Y-105108342D01*
X105782285Y-105108342D02*
X105782285Y-104870247D01*
X105782285Y-104870247D02*
X105829904Y-104775009D01*
X105829904Y-104775009D02*
X105877523Y-104727390D01*
X105877523Y-104727390D02*
X105972761Y-104679771D01*
X105972761Y-104679771D02*
X106163237Y-104679771D01*
X106163237Y-104679771D02*
X106258475Y-104727390D01*
X106258475Y-104727390D02*
X106306094Y-104775009D01*
X106306094Y-104775009D02*
X106353713Y-104870247D01*
X114954904Y-117898819D02*
X114954904Y-118708342D01*
X114954904Y-118708342D02*
X114907285Y-118803580D01*
X114907285Y-118803580D02*
X114859666Y-118851200D01*
X114859666Y-118851200D02*
X114764428Y-118898819D01*
X114764428Y-118898819D02*
X114573952Y-118898819D01*
X114573952Y-118898819D02*
X114478714Y-118851200D01*
X114478714Y-118851200D02*
X114431095Y-118803580D01*
X114431095Y-118803580D02*
X114383476Y-118708342D01*
X114383476Y-118708342D02*
X114383476Y-117898819D01*
X113383476Y-118898819D02*
X113954904Y-118898819D01*
X113669190Y-118898819D02*
X113669190Y-117898819D01*
X113669190Y-117898819D02*
X113764428Y-118041676D01*
X113764428Y-118041676D02*
X113859666Y-118136914D01*
X113859666Y-118136914D02*
X113954904Y-118184533D01*
X174498819Y-110858333D02*
X174022628Y-110525000D01*
X174498819Y-110286905D02*
X173498819Y-110286905D01*
X173498819Y-110286905D02*
X173498819Y-110667857D01*
X173498819Y-110667857D02*
X173546438Y-110763095D01*
X173546438Y-110763095D02*
X173594057Y-110810714D01*
X173594057Y-110810714D02*
X173689295Y-110858333D01*
X173689295Y-110858333D02*
X173832152Y-110858333D01*
X173832152Y-110858333D02*
X173927390Y-110810714D01*
X173927390Y-110810714D02*
X173975009Y-110763095D01*
X173975009Y-110763095D02*
X174022628Y-110667857D01*
X174022628Y-110667857D02*
X174022628Y-110286905D01*
X173498819Y-111191667D02*
X173498819Y-111858333D01*
X173498819Y-111858333D02*
X174498819Y-111429762D01*
X165500283Y-103823419D02*
X165500283Y-104537704D01*
X165500283Y-104537704D02*
X165547902Y-104680561D01*
X165547902Y-104680561D02*
X165643140Y-104775800D01*
X165643140Y-104775800D02*
X165785997Y-104823419D01*
X165785997Y-104823419D02*
X165881235Y-104823419D01*
X165071711Y-103918657D02*
X165024092Y-103871038D01*
X165024092Y-103871038D02*
X164928854Y-103823419D01*
X164928854Y-103823419D02*
X164690759Y-103823419D01*
X164690759Y-103823419D02*
X164595521Y-103871038D01*
X164595521Y-103871038D02*
X164547902Y-103918657D01*
X164547902Y-103918657D02*
X164500283Y-104013895D01*
X164500283Y-104013895D02*
X164500283Y-104109133D01*
X164500283Y-104109133D02*
X164547902Y-104251990D01*
X164547902Y-104251990D02*
X165119330Y-104823419D01*
X165119330Y-104823419D02*
X164500283Y-104823419D01*
X106234666Y-128403580D02*
X106282285Y-128451200D01*
X106282285Y-128451200D02*
X106425142Y-128498819D01*
X106425142Y-128498819D02*
X106520380Y-128498819D01*
X106520380Y-128498819D02*
X106663237Y-128451200D01*
X106663237Y-128451200D02*
X106758475Y-128355961D01*
X106758475Y-128355961D02*
X106806094Y-128260723D01*
X106806094Y-128260723D02*
X106853713Y-128070247D01*
X106853713Y-128070247D02*
X106853713Y-127927390D01*
X106853713Y-127927390D02*
X106806094Y-127736914D01*
X106806094Y-127736914D02*
X106758475Y-127641676D01*
X106758475Y-127641676D02*
X106663237Y-127546438D01*
X106663237Y-127546438D02*
X106520380Y-127498819D01*
X106520380Y-127498819D02*
X106425142Y-127498819D01*
X106425142Y-127498819D02*
X106282285Y-127546438D01*
X106282285Y-127546438D02*
X106234666Y-127594057D01*
X105377523Y-127832152D02*
X105377523Y-128498819D01*
X105615618Y-127451200D02*
X105853713Y-128165485D01*
X105853713Y-128165485D02*
X105234666Y-128165485D01*
D12*
%TO.C,C2*%
X113802420Y-111204000D02*
X114083580Y-111204000D01*
X113802420Y-110184000D02*
X114083580Y-110184000D01*
%TO.C,C1*%
X113881748Y-109429000D02*
X114404252Y-109429000D01*
X113881748Y-107959000D02*
X114404252Y-107959000D01*
%TO.C,U2*%
X108195500Y-121754000D02*
X107865500Y-121994000D01*
X107865500Y-121514000D01*
X108195500Y-121754000D01*
G36*
X108195500Y-121754000D02*
G01*
X107865500Y-121994000D01*
X107865500Y-121514000D01*
X108195500Y-121754000D01*
G37*
X114785500Y-123174000D02*
X114785500Y-129594000D01*
X114515500Y-123174000D02*
X114785500Y-123174000D01*
X108155500Y-123174000D02*
X107885500Y-123174000D01*
X107885500Y-123174000D02*
X107885500Y-129594000D01*
%TO.C,C5*%
X105827420Y-121554000D02*
X106108580Y-121554000D01*
X105827420Y-120534000D02*
X106108580Y-120534000D01*
%TO.C,R9*%
X175499500Y-108187258D02*
X175499500Y-107712742D01*
X176544500Y-108187258D02*
X176544500Y-107712742D01*
%TO.C,R1*%
X110715500Y-107206742D02*
X110715500Y-107681258D01*
X109670500Y-107206742D02*
X109670500Y-107681258D01*
%TO.C,R8*%
X177277500Y-108187258D02*
X177277500Y-107712742D01*
X178322500Y-108187258D02*
X178322500Y-107712742D01*
%TO.C,R2*%
X106715500Y-111206742D02*
X106715500Y-111681258D01*
X105670500Y-111206742D02*
X105670500Y-111681258D01*
%TO.C,R4*%
X104715500Y-107206742D02*
X104715500Y-107681258D01*
X103670500Y-107206742D02*
X103670500Y-107681258D01*
%TO.C,R5*%
X108715500Y-107206742D02*
X108715500Y-107681258D01*
X107670500Y-107206742D02*
X107670500Y-107681258D01*
%TO.C,R10*%
X179055500Y-108187258D02*
X179055500Y-107712742D01*
X180100500Y-108187258D02*
X180100500Y-107712742D01*
%TO.C,J1*%
X129350000Y-134157000D02*
X129350000Y-128957000D01*
X129920000Y-128957000D02*
X129350000Y-128957000D01*
X129920000Y-128957000D02*
X129920000Y-127517000D01*
X129920000Y-134157000D02*
X129350000Y-134157000D01*
X132460000Y-128957000D02*
X131440000Y-128957000D01*
X132460000Y-134157000D02*
X131440000Y-134157000D01*
X135000000Y-128957000D02*
X133980000Y-128957000D01*
X135000000Y-134157000D02*
X133980000Y-134157000D01*
X137540000Y-128957000D02*
X136520000Y-128957000D01*
X137540000Y-134157000D02*
X136520000Y-134157000D01*
X140080000Y-128957000D02*
X139060000Y-128957000D01*
X140080000Y-134157000D02*
X139060000Y-134157000D01*
X142620000Y-128957000D02*
X141600000Y-128957000D01*
X142620000Y-134157000D02*
X141600000Y-134157000D01*
X145160000Y-128957000D02*
X144140000Y-128957000D01*
X145160000Y-134157000D02*
X144140000Y-134157000D01*
X147700000Y-128957000D02*
X146680000Y-128957000D01*
X147700000Y-134157000D02*
X146680000Y-134157000D01*
X150240000Y-128957000D02*
X149220000Y-128957000D01*
X150240000Y-134157000D02*
X149220000Y-134157000D01*
X152780000Y-128957000D02*
X151760000Y-128957000D01*
X152780000Y-134157000D02*
X151760000Y-134157000D01*
X155320000Y-128957000D02*
X154300000Y-128957000D01*
X155320000Y-134157000D02*
X154300000Y-134157000D01*
X157860000Y-128957000D02*
X156840000Y-128957000D01*
X157860000Y-134157000D02*
X156840000Y-134157000D01*
X160400000Y-128957000D02*
X159380000Y-128957000D01*
X160400000Y-134157000D02*
X159380000Y-134157000D01*
X162940000Y-128957000D02*
X161920000Y-128957000D01*
X162940000Y-134157000D02*
X161920000Y-134157000D01*
X165480000Y-128957000D02*
X164460000Y-128957000D01*
X165480000Y-134157000D02*
X164460000Y-134157000D01*
X168020000Y-128957000D02*
X167000000Y-128957000D01*
X168020000Y-134157000D02*
X167000000Y-134157000D01*
X170560000Y-128957000D02*
X169540000Y-128957000D01*
X170560000Y-134157000D02*
X169540000Y-134157000D01*
X173100000Y-128957000D02*
X172080000Y-128957000D01*
X173100000Y-134157000D02*
X172080000Y-134157000D01*
X175640000Y-128957000D02*
X174620000Y-128957000D01*
X175640000Y-134157000D02*
X174620000Y-134157000D01*
X178180000Y-128957000D02*
X177160000Y-128957000D01*
X178180000Y-134157000D02*
X177160000Y-134157000D01*
X180270000Y-128957000D02*
X179700000Y-128957000D01*
X180270000Y-134157000D02*
X179700000Y-134157000D01*
X180270000Y-134157000D02*
X180270000Y-128957000D01*
%TO.C,R3*%
X105730742Y-125566500D02*
X106205258Y-125566500D01*
X105730742Y-124521500D02*
X106205258Y-124521500D01*
%TO.C,C3*%
X106928000Y-115705252D02*
X106928000Y-115182748D01*
X105458000Y-115705252D02*
X105458000Y-115182748D01*
%TO.C,R6*%
X106715500Y-107206742D02*
X106715500Y-107681258D01*
X105670500Y-107206742D02*
X105670500Y-107681258D01*
%TO.C,U1*%
X115383000Y-112409000D02*
X115053000Y-112169000D01*
X115383000Y-111929000D01*
X115383000Y-112409000D01*
G36*
X115383000Y-112409000D02*
G01*
X115053000Y-112169000D01*
X115383000Y-111929000D01*
X115383000Y-112409000D01*
G37*
X113393000Y-117179000D02*
X111193000Y-117179000D01*
X113393000Y-111709000D02*
X111193000Y-111709000D01*
X108993000Y-117179000D02*
X111193000Y-117179000D01*
X108993000Y-111709000D02*
X111193000Y-111709000D01*
%TO.C,R7*%
X173721500Y-108187258D02*
X173721500Y-107712742D01*
X174766500Y-108187258D02*
X174766500Y-107712742D01*
D13*
%TO.C,J2*%
X164509549Y-94513400D02*
X164509549Y-102539800D01*
X164509549Y-102539800D02*
X184473949Y-102539800D01*
X184473949Y-94513400D02*
X164509549Y-94513400D01*
X184473949Y-95090111D02*
X184473949Y-94513400D01*
X184473949Y-100530110D02*
X184473949Y-96523090D01*
X184473949Y-102539800D02*
X184473949Y-101963089D01*
D14*
X177517951Y-103174800D02*
G75*
G02*
X176755951Y-103174800I-381000J0D01*
G01*
X176755951Y-103174800D02*
G75*
G02*
X177517951Y-103174800I381000J0D01*
G01*
D12*
%TO.C,C4*%
X105506748Y-123779000D02*
X106029252Y-123779000D01*
X105506748Y-122309000D02*
X106029252Y-122309000D01*
%TD*%
M02*
