%TF.GenerationSoftware,KiCad,Pcbnew,8.0.2*%
%TF.CreationDate,2024-06-02T13:55:41-07:00*%
%TF.ProjectId,RLS_PCBA,524c535f-5043-4424-912e-6b696361645f,rev?*%
%TF.SameCoordinates,Original*%
%TF.FileFunction,Soldermask,Bot*%
%TF.FilePolarity,Negative*%
%FSLAX46Y46*%
G04 Gerber Fmt 4.6, Leading zero omitted, Abs format (unit mm)*
G04 Created by KiCad (PCBNEW 8.0.2) date 2024-06-02 13:55:41*
%MOMM*%
%LPD*%
G01*
G04 APERTURE LIST*
G04 Aperture macros list*
%AMRoundRect*
0 Rectangle with rounded corners*
0 $1 Rounding radius*
0 $2 $3 $4 $5 $6 $7 $8 $9 X,Y pos of 4 corners*
0 Add a 4 corners polygon primitive as box body*
4,1,4,$2,$3,$4,$5,$6,$7,$8,$9,$2,$3,0*
0 Add four circle primitives for the rounded corners*
1,1,$1+$1,$2,$3*
1,1,$1+$1,$4,$5*
1,1,$1+$1,$6,$7*
1,1,$1+$1,$8,$9*
0 Add four rect primitives between the rounded corners*
20,1,$1+$1,$2,$3,$4,$5,0*
20,1,$1+$1,$4,$5,$6,$7,0*
20,1,$1+$1,$6,$7,$8,$9,0*
20,1,$1+$1,$8,$9,$2,$3,0*%
G04 Aperture macros list end*
%ADD10C,2.000000*%
%ADD11C,2.500000*%
%ADD12RoundRect,0.225000X0.225000X0.250000X-0.225000X0.250000X-0.225000X-0.250000X0.225000X-0.250000X0*%
%ADD13RoundRect,0.250000X0.250000X0.475000X-0.250000X0.475000X-0.250000X-0.475000X0.250000X-0.475000X0*%
%ADD14C,2.600000*%
%ADD15C,3.800000*%
%ADD16RoundRect,0.250000X-0.350000X0.850000X-0.350000X-0.850000X0.350000X-0.850000X0.350000X0.850000X0*%
%ADD17RoundRect,0.249997X-2.650003X2.950003X-2.650003X-2.950003X2.650003X-2.950003X2.650003X2.950003X0*%
%ADD18C,4.400000*%
%ADD19RoundRect,0.200000X-0.275000X0.200000X-0.275000X-0.200000X0.275000X-0.200000X0.275000X0.200000X0*%
%ADD20RoundRect,0.200000X0.275000X-0.200000X0.275000X0.200000X-0.275000X0.200000X-0.275000X-0.200000X0*%
%ADD21R,1.000000X3.150000*%
%ADD22RoundRect,0.200000X0.200000X0.275000X-0.200000X0.275000X-0.200000X-0.275000X0.200000X-0.275000X0*%
%ADD23RoundRect,0.250000X-0.475000X0.250000X-0.475000X-0.250000X0.475000X-0.250000X0.475000X0.250000X0*%
%ADD24RoundRect,0.100000X0.637500X0.100000X-0.637500X0.100000X-0.637500X-0.100000X0.637500X-0.100000X0*%
%ADD25C,1.473200*%
%ADD26C,1.905000*%
G04 APERTURE END LIST*
D10*
%TO.C,RV5*%
X166906000Y-86574000D03*
X170406000Y-145074000D03*
X166906000Y-145074000D03*
D11*
X172906000Y-90724000D03*
X164406000Y-91924000D03*
X164406000Y-139724000D03*
X172906000Y-140924000D03*
%TD*%
D10*
%TO.C,RV3*%
X134648000Y-86574000D03*
X138148000Y-145074000D03*
X134648000Y-145074000D03*
D11*
X140648000Y-90724000D03*
X132148000Y-91924000D03*
X132148000Y-139724000D03*
X140648000Y-140924000D03*
%TD*%
D10*
%TO.C,RV4*%
X148872000Y-86574000D03*
X152372000Y-145074000D03*
X148872000Y-145074000D03*
D11*
X154872000Y-90724000D03*
X146372000Y-91924000D03*
X146372000Y-139724000D03*
X154872000Y-140924000D03*
%TD*%
D10*
%TO.C,RV1*%
X102390000Y-86574000D03*
X105890000Y-145074000D03*
X102390000Y-145074000D03*
D11*
X108390000Y-90724000D03*
X99890000Y-91924000D03*
X99890000Y-139724000D03*
X108390000Y-140924000D03*
%TD*%
D10*
%TO.C,RV6*%
X181130000Y-86574000D03*
X184630000Y-145074000D03*
X181130000Y-145074000D03*
D11*
X187130000Y-90724000D03*
X178630000Y-91924000D03*
X178630000Y-139724000D03*
X187130000Y-140924000D03*
%TD*%
D12*
%TO.C,C2*%
X113168000Y-110694000D03*
X114718000Y-110694000D03*
%TD*%
D13*
%TO.C,C1*%
X113193000Y-108694000D03*
X115093000Y-108694000D03*
%TD*%
D14*
%TO.C,H4*%
X163195000Y-110490000D03*
D15*
X163195000Y-110490000D03*
%TD*%
D16*
%TO.C,U2*%
X113615500Y-121444000D03*
D17*
X111335500Y-127744000D03*
D16*
X109055500Y-121444000D03*
%TD*%
D14*
%TO.C,H1*%
X127316690Y-121743124D03*
D18*
X127316690Y-121743124D03*
%TD*%
D12*
%TO.C,C5*%
X105193000Y-121044000D03*
X106743000Y-121044000D03*
%TD*%
D19*
%TO.C,R9*%
X176022000Y-107125000D03*
X176022000Y-108775000D03*
%TD*%
D20*
%TO.C,R1*%
X110193000Y-106619000D03*
X110193000Y-108269000D03*
%TD*%
D19*
%TO.C,R8*%
X177800000Y-107125000D03*
X177800000Y-108775000D03*
%TD*%
D20*
%TO.C,R2*%
X106193000Y-110619000D03*
X106193000Y-112269000D03*
%TD*%
%TO.C,R4*%
X104193000Y-106619000D03*
X104193000Y-108269000D03*
%TD*%
D14*
%TO.C,H2*%
X127500000Y-115500000D03*
D18*
X127500000Y-115500000D03*
%TD*%
D20*
%TO.C,R5*%
X108193000Y-106619000D03*
X108193000Y-108269000D03*
%TD*%
D19*
%TO.C,R10*%
X179578000Y-107125000D03*
X179578000Y-108775000D03*
%TD*%
D21*
%TO.C,J1*%
X130680000Y-129032000D03*
X130680000Y-134082000D03*
X133220000Y-129032000D03*
X133220000Y-134082000D03*
X135760000Y-129032000D03*
X135760000Y-134082000D03*
X138300000Y-129032000D03*
X138300000Y-134082000D03*
X140840000Y-129032000D03*
X140840000Y-134082000D03*
X143380000Y-129032000D03*
X143380000Y-134082000D03*
X145920000Y-129032000D03*
X145920000Y-134082000D03*
X148460000Y-129032000D03*
X148460000Y-134082000D03*
X151000000Y-129032000D03*
X151000000Y-134082000D03*
X153540000Y-129032000D03*
X153540000Y-134082000D03*
X156080000Y-129032000D03*
X156080000Y-134082000D03*
X158620000Y-129032000D03*
X158620000Y-134082000D03*
X161160000Y-129032000D03*
X161160000Y-134082000D03*
X163700000Y-129032000D03*
X163700000Y-134082000D03*
X166240000Y-129032000D03*
X166240000Y-134082000D03*
X168780000Y-129032000D03*
X168780000Y-134082000D03*
X171320000Y-129032000D03*
X171320000Y-134082000D03*
X173860000Y-129032000D03*
X173860000Y-134082000D03*
X176400000Y-129032000D03*
X176400000Y-134082000D03*
X178940000Y-129032000D03*
X178940000Y-134082000D03*
%TD*%
D22*
%TO.C,R3*%
X105143000Y-125044000D03*
X106793000Y-125044000D03*
%TD*%
D23*
%TO.C,C3*%
X106193000Y-116394000D03*
X106193000Y-114494000D03*
%TD*%
D20*
%TO.C,R6*%
X106193000Y-106619000D03*
X106193000Y-108269000D03*
%TD*%
D24*
%TO.C,U1*%
X108330500Y-112169000D03*
X108330500Y-112819000D03*
X108330500Y-113469000D03*
X108330500Y-114119000D03*
X108330500Y-114769000D03*
X108330500Y-115419000D03*
X108330500Y-116069000D03*
X108330500Y-116719000D03*
X114055500Y-116719000D03*
X114055500Y-116069000D03*
X114055500Y-115419000D03*
X114055500Y-114769000D03*
X114055500Y-114119000D03*
X114055500Y-113469000D03*
X114055500Y-112819000D03*
X114055500Y-112169000D03*
%TD*%
D14*
%TO.C,H3*%
X168275000Y-110490000D03*
D15*
X168275000Y-110490000D03*
%TD*%
D19*
%TO.C,R7*%
X174244000Y-107125000D03*
X174244000Y-108775000D03*
%TD*%
D25*
%TO.C,J2*%
X177136951Y-98526600D03*
X179136950Y-98526600D03*
X181136951Y-98526600D03*
X183136949Y-98526600D03*
D26*
X183406951Y-101246600D03*
X183406951Y-95806600D03*
X176406950Y-101246600D03*
X176406950Y-95806600D03*
%TD*%
D13*
%TO.C,C4*%
X104818000Y-123044000D03*
X106718000Y-123044000D03*
%TD*%
D10*
%TO.C,RV2*%
X116614000Y-86574000D03*
X120114000Y-145074000D03*
X116614000Y-145074000D03*
D11*
X122614000Y-90724000D03*
X114114000Y-91924000D03*
X114114000Y-139724000D03*
X122614000Y-140924000D03*
%TD*%
M02*
